<svg width="36" height="34" viewBox="0 0 36 34" fill="none" xmlns="http://www.w3.org/2000/svg">
<path d="M17.6826 14.0585L17.7048 14.0782L17.7285 14.0961C18.017 14.314 18.4242 14.4857 18.8646 14.4857C19.393 14.4857 19.8205 14.2385 20.0996 13.9749C20.3839 13.7064 20.6646 13.2345 20.547 12.6775C20.5183 12.2582 20.3215 11.87 20.0276 11.5924L20.0204 11.5856L20.013 11.579L15.843 7.84442C15.268 7.31012 14.3253 7.31011 13.7502 7.8444L9.58027 11.579L9.57288 11.5856L9.56566 11.5924C9.25977 11.8813 9.05912 12.29 9.0436 12.7288C8.98733 13.2438 9.22936 13.6913 9.52966 13.9749C9.85987 14.2868 10.294 14.4375 10.7033 14.4513C11.1094 14.465 11.5654 14.3452 11.9178 14.0181L13.0746 12.9908V20.0937C13.0746 21.0577 13.8834 21.7617 14.7966 21.7617H14.7966H14.7967H14.7967H14.7967H14.7967H14.7967H14.7968H14.7968H14.7968H14.7968H14.7968H14.7968H14.7969H14.7969H14.7969H14.7969H14.7969H14.797H14.797H14.797H14.797H14.7971H14.7971H14.7971H14.7971H14.7972H14.7972H14.7972H14.7973H14.7973H14.7973H14.7974H14.7974H14.7974H14.7975H14.7975H14.7975H14.7976H14.7976H14.7977H14.7977H14.7977H14.7978H14.7978H14.7979H14.7979H14.798H14.798H14.7981H14.7981H14.7981H14.7982H14.7982H14.7983H14.7983H14.7984H14.7984H14.7985H14.7986H14.7986H14.7987H14.7987H14.7988H14.7988H14.7989H14.7989H14.799H14.7991H14.7991H14.7992H14.7993H14.7993H14.7994H14.7994H14.7995H14.7996H14.7996H14.7997H14.7998H14.7998H14.7999H14.8H14.8H14.8001H14.8002H14.8003H14.8003H14.8004H14.8005H14.8006H14.8006H14.8007H14.8008H14.8009H14.8009H14.801H14.8011H14.8012H14.8013H14.8013H14.8014H14.8015H14.8016H14.8017H14.8018H14.8018H14.8019H14.802H14.8021H14.8022H14.8023H14.8024H14.8025H14.8025H14.8026H14.8027H14.8028H14.8029H14.803H14.8031H14.8032H14.8033H14.8034H14.8035H14.8036H14.8037H14.8038H14.8039H14.804H14.8041H14.8042H14.8043H14.8044H14.8045H14.8046H14.8047H14.8048H14.8049H14.805H14.8051H14.8052H14.8053H14.8054H14.8055H14.8056H14.8057H14.8059H14.806H14.8061H14.8062H14.8063H14.8064H14.8065H14.8066H14.8068H14.8069H14.807H14.8071H14.8072H14.8073H14.8075H14.8076H14.8077H14.8078H14.8079H14.808H14.8082H14.8083H14.8084H14.8085H14.8087H14.8088H14.8089H14.809H14.8092H14.8093H14.8094H14.8095H14.8097H14.8098H14.8099H14.81H14.8102H14.8103H14.8104H14.8106H14.8107H14.8108H14.811H14.8111H14.8112H14.8114H14.8115H14.8116H14.8118H14.8119H14.812H14.8122H14.8123H14.8125H14.8126H14.8127H14.8129H14.813H14.8131H14.8133H14.8134H14.8136H14.8137H14.8139H14.814H14.8141H14.8143H14.8144H14.8146H14.8147H14.8149H14.815H14.8152H14.8153H14.8155H14.8156H14.8158H14.8159H14.816H14.8162H14.8163H14.8165H14.8167H14.8168H14.817H14.8171H14.8173H14.8174H14.8176H14.8177H14.8179H14.818H14.8182H14.8183H14.8185H14.8187H14.8188H14.819H14.8191H14.8193H14.8194H14.8196H14.8198H14.8199H14.8201H14.8202H14.8204H14.8206H14.8207H14.8209H14.8211H14.8212H14.8214H14.8215H14.8217H14.8219H14.822H14.8222H14.8224H14.8225H14.8227H14.8229H14.823H14.8232H14.8234H14.8235H14.8237H14.8239H14.8241H14.8242H14.8244H14.8246H14.8247H14.8249H14.8251H14.8252H14.8254H14.8256H14.8258H14.8259H14.8261H14.8263H14.8265H14.8266H14.8268H14.827H14.8272H14.8273H14.8275H14.8277H14.8279H14.8281H14.8282H14.8284H14.8286H14.8288H14.8289H14.8291H14.8293H14.8295H14.8297H14.8298H14.83H14.8302H14.8304H14.8306H14.8308H14.8309H14.8311H14.8313H14.8315H14.8317H14.8319H14.832H14.8322H14.8324H14.8326H14.8328H14.833H14.8332H14.8333H14.8335H14.8337H14.8339H14.8341H14.8343H14.8345H14.8347H14.8348H14.835H14.8352H14.8354H14.8356H14.8358H14.836H14.8362H14.8364H14.8365H14.8367H14.8369H14.8371H14.8373H14.8375H14.8377H14.8379H14.8381H14.8383H14.8385H14.8387H14.8389H14.8391H14.8392H14.8394H14.8396H14.8398H14.84H14.8402H14.8404H14.8406H14.8408H14.841H14.8412H14.8414H14.8416H14.8418H14.842H14.8422H14.8424H14.8426H14.8428H14.843H14.8432H14.8434H14.8436H14.8438H14.844H14.8442H14.8444H14.8446H14.8448H14.845H14.8452H14.8454H14.8456H14.8458H14.846H14.8462H14.8464H14.8466H14.8468H14.847H14.8472H14.8474H14.8476H14.8478H14.848H14.8482H14.8484H14.8486H14.8488H14.849H14.8492H14.8494H14.8496H14.8498H14.85H14.8502H14.8505H14.8507H14.8509H14.8511H14.8513H14.8515H14.8517H14.8519H14.8521H14.8523H14.8525H14.8527H14.8529H14.8531H14.8533H14.8535H14.8537H14.854H14.8542H14.8544H14.8546H14.8548H14.855H14.8552H14.8554H14.8556H14.8558H14.856H14.8562H14.8564H14.8567H14.8569H14.8571H14.8573H14.8575H14.8577H14.8579H14.8581H14.8583H14.8585H14.8587H14.859H14.8592H14.8594H14.8596H14.8598H14.86H14.8602H14.8604H14.8606H14.8608H14.861H14.8613H14.8615H14.8617H14.8619H14.8621H14.8623H14.8625H14.8627H14.8629H14.8631H14.8634H14.8636H14.8638H14.864H14.8642H14.8644H14.8646H14.8648H14.865H14.8653H14.8655H14.8657H14.8659H14.8661H14.8663H14.8665H14.8667H14.8669H14.8672H14.8674H14.8676H14.8678H14.868H14.8682H14.8684H14.8686H14.8939L14.9191 21.76C15.8206 21.6992 16.5186 20.9266 16.5186 20.0597V13.0248L17.6826 14.0585ZM5.50863 1.42969H24.1566C24.7238 1.42969 25.1441 1.85509 25.1706 2.36247V25.9417C25.1706 26.4057 24.7554 26.8577 24.1566 26.8577H5.50863C4.90987 26.8577 4.49463 26.4057 4.49463 25.9417V2.34569C4.49463 1.88171 4.90988 1.42969 5.50863 1.42969Z" stroke="white" stroke-width="1.5"/>
<path d="M29.4481 32.5699H10.8361C9.66132 32.5699 8.77808 31.6759 8.77808 30.6679C8.77808 30.5779 8.86932 30.4319 9.07208 30.4319C9.27483 30.4319 9.36608 30.5779 9.36608 30.6679C9.36608 31.4959 10.0668 32.0979 10.8361 32.0979H29.4841C30.2533 32.0979 30.9541 31.4959 30.9541 30.6679V7.07192C30.9541 6.24389 30.2533 5.64192 29.4841 5.64192C29.2813 5.64192 29.1901 5.49589 29.1901 5.40592C29.1901 5.31595 29.2813 5.16992 29.4841 5.16992C30.6588 5.16992 31.5421 6.06395 31.5421 7.07192V30.6579C31.5121 31.6809 30.615 32.5699 29.4481 32.5699Z" stroke="white" stroke-width="1.5"/>
</svg>
