<svg width="25" height="19" viewBox="0 0 25 19" fill="none" xmlns="http://www.w3.org/2000/svg">
<path d="M23.3645 0.160156H1.60391C1.00465 0.160156 0.5 0.707325 0.5 1.35709V16.8472C0.5 17.497 1.00465 18.0442 1.60391 18.0442H23.3961C23.9953 18.0442 24.5 17.497 24.5 16.8472V13.5C24.5 13.2949 24.1894 13.043 24 13.043C23.8108 13.043 23.5 13.2946 23.5 13.5V16.8472C23.5 17.1208 23.2521 17.043 23 17.043L1.5 17.1602V16.8472V1.66016C1.5 1.38657 1.7479 1.16016 2 1.16016H23C23.2523 1.16016 23.5 1.38681 23.5 1.66016V12.6602C23.5 12.8653 23.8106 13.043 24 13.043C24.1892 13.043 24.4998 12.8809 24.4998 12.6755V1.35709C24.4683 0.707331 23.9638 0.160156 23.3645 0.160156Z" fill="white"/>
<path d="M7.82489 8.44533C7.82489 7.41943 7.18773 6.59895 6.30469 6.42791V4.34204C6.30469 4.13691 6.12198 4 5.93257 4C5.74338 4 5.5625 4.13667 5.5625 4.34204V6.42791C4.67946 6.59893 4.04025 7.41943 4.04025 8.44533C4.04025 9.47123 4.65721 10.329 5.54025 10.5V10.8789V12.5L5.5758 14.6001C5.5758 14.8053 5.74316 14.9422 5.93257 14.9422C6.12176 14.9422 6.30072 14.8055 6.30072 14.6001L6.24803 10.8789V10.463C7.13107 10.292 7.82489 9.47123 7.82489 8.44533ZM5.93255 9.79966C5.23873 9.79966 4.73336 9.19369 4.73336 8.44141C4.73336 7.68913 5.23873 7.12277 5.93255 7.12277C6.62637 7.12277 7.12512 7.68913 7.12512 8.44141C7.12534 9.19344 6.62637 9.79966 5.93255 9.79966Z" fill="white"/>
<path d="M10.012 10.4976C10.0092 11.5235 10.6442 12.3457 11.5268 12.5191L11.5211 14.605C11.5206 14.8101 11.7029 14.9475 11.8923 14.948C12.0815 14.9485 12.2628 14.8123 12.2633 14.607L12.2689 12.5211C13.1524 12.3525 13.7939 11.5337 13.7966 10.5078C13.7994 9.48192 13.1847 8.62252 12.3022 8.44911L12.3032 8.0702L12.3075 6.44911L12.2777 4.34888C12.2782 4.14375 12.1112 4.00639 11.9218 4.00588C11.7326 4.00537 11.5533 4.14156 11.5527 4.34693L11.5954 8.0683L11.5943 8.48421C10.7108 8.65285 10.0148 9.47172 10.012 10.4976ZM11.908 9.14839C12.6018 9.15026 13.1055 9.75759 13.1035 10.5099C13.1015 11.2621 12.5946 11.8271 11.9008 11.8253C11.2069 11.8234 10.7097 11.2557 10.7117 10.5034C10.7136 9.75139 11.2142 9.14652 11.908 9.14839Z" fill="white"/>
<path d="M16.012 10.4976C16.0092 11.5235 16.6442 12.3457 17.5268 12.5191L17.5211 14.605C17.5206 14.8101 17.7029 14.9475 17.8923 14.948C18.0815 14.9485 18.2628 14.8123 18.2633 14.607L18.2689 12.5211C19.1524 12.3525 19.7939 11.5337 19.7966 10.5078C19.7994 9.48192 19.1847 8.62252 18.3022 8.44911L18.3032 8.0702L18.3075 6.44911L18.2777 4.34888C18.2782 4.14375 18.1112 4.00639 17.9218 4.00588C17.7326 4.00537 17.5533 4.14156 17.5527 4.34693L17.5954 8.0683L17.5943 8.48421C16.7108 8.65285 16.0148 9.47172 16.012 10.4976ZM17.908 9.14839C18.6018 9.15026 19.1055 9.75759 19.1035 10.5099C19.1015 11.2621 18.5946 11.8271 17.9008 11.8253C17.2069 11.8234 16.7097 11.2557 16.7117 10.5034C16.7136 9.75139 17.2142 9.14652 17.908 9.14839Z" fill="white"/>
</svg>
