<svg width="25" height="23" viewBox="0 0 25 23" fill="none" xmlns="http://www.w3.org/2000/svg">
<mask id="path-1-inside-1_3609_1378" fill="white">
<path d="M12.4388 0.00723251C12.3834 0.0203166 12.3329 0.049861 12.2936 0.0922775C12.1499 0.241897 11.8318 0.375062 11.4216 0.489441C11.0115 0.603821 10.5212 0.707013 10.0409 0.886605C9.56064 1.06619 9.08361 1.32597 8.72394 1.76574C8.36448 2.20553 8.14269 2.82451 8.14269 3.63757C8.14431 3.74899 8.20432 3.85029 8.2992 3.90178C8.39409 3.95306 8.50843 3.9461 8.59683 3.88342C8.95831 3.6325 9.70441 3.3972 10.4405 3.28791C11.1503 3.1824 11.7266 3.39364 12.082 3.5V4.35642L5.98089 7.59907C5.88012 7.64993 5.81646 7.75672 5.81728 7.8732V12.0613L0.167797 14.8598C0.067035 14.9109 0.00337268 15.0175 0.00418753 15.1339V20.8821C0.00317384 20.9629 0.0331794 21.041 0.0879205 21.0986C0.142459 21.1565 0.217067 21.189 0.294919 21.189C0.372771 21.189 0.447178 21.1565 0.501918 21.0986C0.556456 21.041 0.586663 20.9629 0.585448 20.8821L0.5 15.5L5.81712 12.8797V22.3952H0.2948C0.216948 22.3939 0.141934 22.4254 0.0865864 22.4821C0.0312386 22.5391 1.47223e-05 22.6165 1.47223e-05 22.6976C1.47223e-05 22.7786 0.0312366 22.8563 0.0865864 22.913C0.141934 22.97 0.216948 23.0013 0.2948 23.0002H24.7093C24.8698 23.0002 25 22.8647 25 22.6976V15.1342C25.0008 15.0177 24.9372 14.9111 24.8364 14.8601L19.1869 12.0616V7.87346C19.1877 7.75697 19.1241 7.65019 19.0233 7.59933L12.7925 4.35642V0.31012C12.7946 0.216842 12.7554 0.127999 12.6863 0.0689131C12.617 0.00982155 12.5262 -0.0130265 12.4388 0.00723251ZM12.2117 1.01092L12.2117 2.4068C11.6959 2.28715 11.0512 2.28503 10.3588 2.38781C9.78833 2.47264 9.25052 2.87264 8.78767 3.07608C8.85457 2.67006 8.97809 2.6404 9.16907 2.4068C9.43628 2.08012 9.81296 1.8577 10.2409 1.69773C10.6689 1.53756 11.1415 1.4407 11.576 1.31956C11.8004 1.25688 12.014 1.10082 12.2117 1.01092ZM12.5024 5.83008L17.8688 8.5V22.3948L15.6996 22.3952V16.9873C15.6996 15.2803 14.2548 13.9242 12.5023 13.9242C10.7498 13.9242 9.3051 15.2803 9.3051 16.9873V22.3952L6.98448 22.3948L7.1897 8.5L12.5024 5.83008ZM12.5024 7.87326C11.2217 7.87326 10.1772 8.96049 10.1772 10.2936C10.1772 11.6267 11.2217 12.7137 12.5024 12.7137C13.7832 12.7137 14.8277 11.6267 14.8277 10.2936C14.8277 8.96049 13.7832 7.87326 12.5024 7.87326ZM12.5023 8.85302C13.469 8.85302 13.8273 9.28739 13.8273 10.2936C13.8273 11.2996 13.469 11.7052 12.5023 11.7052C11.5357 11.7052 11.1055 11.2996 11.1055 10.2936C11.1055 9.28739 11.5357 8.85302 12.5023 8.85302ZM19.1869 13.2648L24 15.5V22.3952L19.1874 22.3948L19.1869 13.2648ZM12.5023 14.8601C13.9702 14.8601 14.8277 15.6363 14.8277 16.9873V22.3952L10.1772 22.3948V16.9873C10.1772 15.6363 11.0345 14.8601 12.5023 14.8601Z"/>
</mask>
<path d="M12.4388 0.00723251C12.3834 0.0203166 12.3329 0.049861 12.2936 0.0922775C12.1499 0.241897 11.8318 0.375062 11.4216 0.489441C11.0115 0.603821 10.5212 0.707013 10.0409 0.886605C9.56064 1.06619 9.08361 1.32597 8.72394 1.76574C8.36448 2.20553 8.14269 2.82451 8.14269 3.63757C8.14431 3.74899 8.20432 3.85029 8.2992 3.90178C8.39409 3.95306 8.50843 3.9461 8.59683 3.88342C8.95831 3.6325 9.70441 3.3972 10.4405 3.28791C11.1503 3.1824 11.7266 3.39364 12.082 3.5V4.35642L5.98089 7.59907C5.88012 7.64993 5.81646 7.75672 5.81728 7.8732V12.0613L0.167797 14.8598C0.067035 14.9109 0.00337268 15.0175 0.00418753 15.1339V20.8821C0.00317384 20.9629 0.0331794 21.041 0.0879205 21.0986C0.142459 21.1565 0.217067 21.189 0.294919 21.189C0.372771 21.189 0.447178 21.1565 0.501918 21.0986C0.556456 21.041 0.586663 20.9629 0.585448 20.8821L0.5 15.5L5.81712 12.8797V22.3952H0.2948C0.216948 22.3939 0.141934 22.4254 0.0865864 22.4821C0.0312386 22.5391 1.47223e-05 22.6165 1.47223e-05 22.6976C1.47223e-05 22.7786 0.0312366 22.8563 0.0865864 22.913C0.141934 22.97 0.216948 23.0013 0.2948 23.0002H24.7093C24.8698 23.0002 25 22.8647 25 22.6976V15.1342C25.0008 15.0177 24.9372 14.9111 24.8364 14.8601L19.1869 12.0616V7.87346C19.1877 7.75697 19.1241 7.65019 19.0233 7.59933L12.7925 4.35642V0.31012C12.7946 0.216842 12.7554 0.127999 12.6863 0.0689131C12.617 0.00982155 12.5262 -0.0130265 12.4388 0.00723251ZM12.2117 1.01092L12.2117 2.4068C11.6959 2.28715 11.0512 2.28503 10.3588 2.38781C9.78833 2.47264 9.25052 2.87264 8.78767 3.07608C8.85457 2.67006 8.97809 2.6404 9.16907 2.4068C9.43628 2.08012 9.81296 1.8577 10.2409 1.69773C10.6689 1.53756 11.1415 1.4407 11.576 1.31956C11.8004 1.25688 12.014 1.10082 12.2117 1.01092ZM12.5024 5.83008L17.8688 8.5V22.3948L15.6996 22.3952V16.9873C15.6996 15.2803 14.2548 13.9242 12.5023 13.9242C10.7498 13.9242 9.3051 15.2803 9.3051 16.9873V22.3952L6.98448 22.3948L7.1897 8.5L12.5024 5.83008ZM12.5024 7.87326C11.2217 7.87326 10.1772 8.96049 10.1772 10.2936C10.1772 11.6267 11.2217 12.7137 12.5024 12.7137C13.7832 12.7137 14.8277 11.6267 14.8277 10.2936C14.8277 8.96049 13.7832 7.87326 12.5024 7.87326ZM12.5023 8.85302C13.469 8.85302 13.8273 9.28739 13.8273 10.2936C13.8273 11.2996 13.469 11.7052 12.5023 11.7052C11.5357 11.7052 11.1055 11.2996 11.1055 10.2936C11.1055 9.28739 11.5357 8.85302 12.5023 8.85302ZM19.1869 13.2648L24 15.5V22.3952L19.1874 22.3948L19.1869 13.2648ZM12.5023 14.8601C13.9702 14.8601 14.8277 15.6363 14.8277 16.9873V22.3952L10.1772 22.3948V16.9873C10.1772 15.6363 11.0345 14.8601 12.5023 14.8601Z" fill="white"/>
<path d="M12.4388 0.00723251L7.46968 -21.4242L7.42358 -21.4136L7.37752 -21.4027L12.4388 0.00723251ZM12.2936 0.0922775L28.1585 15.3338L28.2933 15.1935L28.4257 15.0508L12.2936 0.0922775ZM11.4216 0.489441L5.512 -20.702L5.51179 -20.7019L11.4216 0.489441ZM10.0409 0.886605L17.746 21.4932L17.7461 21.4932L10.0409 0.886605ZM8.72394 1.76574L-8.30563 -12.1624L-8.3101 -12.157L8.72394 1.76574ZM8.14269 3.63757H-13.8573V3.79768L-13.855 3.95777L8.14269 3.63757ZM8.2992 3.90178L-2.19422 23.238L-2.1777 23.2469L-2.16117 23.2559L8.2992 3.90178ZM8.59683 3.88342L-3.94799 -14.1894L-4.03817 -14.1268L-4.12772 -14.0633L8.59683 3.88342ZM10.4405 3.28791L13.6714 25.0494L13.6753 25.0488L10.4405 3.28791ZM12.082 3.5H34.082V-12.8804L18.3892 -17.5765L12.082 3.5ZM12.082 4.35642L22.407 23.7831L34.082 17.578V4.35642H12.082ZM5.98089 7.59907L15.8941 27.2391L16.1011 27.1346L16.3058 27.0257L5.98089 7.59907ZM5.81728 7.8732H27.8173V7.79626L27.8167 7.71931L5.81728 7.8732ZM5.81728 12.0613L15.5827 31.7752L27.8173 25.7147V12.0613H5.81728ZM0.167797 14.8598L-9.59759 -4.85406L-9.68804 -4.80926L-9.77806 -4.76363L0.167797 14.8598ZM0.00418753 15.1339H22.0042V15.057L22.0036 14.9801L0.00418753 15.1339ZM0.00418753 20.8821L22.0025 21.158L22.0042 21.0201V20.8821H0.00418753ZM0.0879205 21.0986L16.0921 6.00339L16.0643 5.97397L16.0365 5.94465L0.0879205 21.0986ZM0.501918 21.0986L16.4784 36.2232L16.4786 36.223L0.501918 21.0986ZM0.585448 20.8821L22.583 20.5516L22.5828 20.5422L22.5827 20.5329L0.585448 20.8821ZM0.5 15.5L-9.22489 -4.23389L-21.7183 1.92289L-21.4972 15.8492L0.5 15.5ZM5.81712 12.8797H27.8171V-22.4883L-3.90777 -6.85418L5.81712 12.8797ZM5.81712 22.3952V44.3952H27.8171V22.3952H5.81712ZM0.2948 22.3952L-0.0629535 44.3923L0.115911 44.3952H0.2948V22.3952ZM0.0865864 22.4821L-15.6657 7.12422L-15.6799 7.13876L-15.694 7.15333L0.0865864 22.4821ZM0.0865864 22.913L15.8672 7.58426L15.8529 7.5695L15.8385 7.55477L0.0865864 22.913ZM0.2948 23.0002V1.00021H0.145958L-0.0028694 1.00222L0.2948 23.0002ZM25 15.1342L3.00054 14.981L3 15.0576V15.1342H25ZM24.8364 14.8601L34.7822 -4.76342L34.6922 -4.80903L34.6018 -4.85381L24.8364 14.8601ZM19.1869 12.0616H-2.81309V25.715L9.42153 31.7755L19.1869 12.0616ZM19.1869 7.87346L-2.81255 7.7203L-2.81309 7.79688V7.87346H19.1869ZM19.0233 7.59933L8.86638 27.1144L8.98791 27.1776L9.11021 27.2394L19.0233 7.59933ZM12.7925 4.35642H-9.20747V17.7075L2.63561 23.8715L12.7925 4.35642ZM12.7925 0.31012L-9.20227 -0.167944L-9.20747 0.0710597V0.31012H12.7925ZM12.6863 0.0689131L26.9795 -16.6554L26.968 -16.6652L26.9565 -16.6751L12.6863 0.0689131ZM12.2117 1.01092L34.2117 1.01164L34.2128 -33.1628L3.10425 -19.0154L12.2117 1.01092ZM12.2117 2.4068L7.23996 23.8377L34.2108 30.0946L34.2117 2.40752L12.2117 2.4068ZM10.3588 2.38781L7.12863 -19.3738L7.12299 -19.3729L10.3588 2.38781ZM8.78767 3.07608L-12.9196 -0.500929L-19.5192 39.549L17.6399 23.2165L8.78767 3.07608ZM9.16907 2.4068L-7.85985 -11.5222L-7.86319 -11.5181L9.16907 2.4068ZM10.2409 1.69773L17.9434 22.3053L17.952 22.3021L10.2409 1.69773ZM11.576 1.31956L17.4844 22.5113L17.4936 22.5087L11.576 1.31956ZM12.5024 5.83008L22.3021 -13.8668L12.453 -18.767L2.62367 -13.8272L12.5024 5.83008ZM17.8688 8.5H39.8688V-5.12688L27.6685 -11.1969L17.8688 8.5ZM17.8688 22.3948L17.8721 44.3948L39.8688 44.3915V22.3948H17.8688ZM15.6996 22.3952H-6.30042V44.3984L15.7029 44.3952L15.6996 22.3952ZM9.3051 22.3952L9.30203 44.3952L31.3051 44.3982L31.3051 22.3952H9.3051ZM6.98448 22.3948L-15.0131 22.07L-15.3428 44.3917L6.98141 44.3948L6.98448 22.3948ZM7.1897 8.5L-2.68908 -11.1573L-14.6109 -5.16602L-14.8079 8.17511L7.1897 8.5ZM19.1869 13.2648L28.4531 -6.68855L-2.81476 -21.209L-2.81309 13.2659L19.1869 13.2648ZM24 15.5H46V1.46007L33.2662 -4.4534L24 15.5ZM24 22.3952L23.9985 44.3952L46 44.3967V22.3952H24ZM19.1874 22.3948L-2.81264 22.3959L-2.81158 44.3933L19.1858 44.3948L19.1874 22.3948ZM14.8277 22.3952L14.8261 44.3952L36.8277 44.3968V22.3952H14.8277ZM10.1772 22.3948H-11.8228V44.3932L10.1756 44.3948L10.1772 22.3948ZM7.37752 -21.4027C3.00799 -20.3697 -0.876814 -18.0602 -3.83841 -14.8662L28.4257 15.0508C25.5427 18.1599 21.7589 20.4103 17.5 21.4171L7.37752 -21.4027ZM-3.57128 -15.1493C-2.00111 -16.7837 -0.48928 -17.8392 0.48636 -18.4495C1.50799 -19.0887 2.39531 -19.5203 3.00281 -19.791C4.17954 -20.3154 5.1082 -20.5894 5.512 -20.702L17.3312 21.6809C18.1452 21.4539 19.438 21.0561 20.9122 20.3992C22.0039 19.9127 25.1657 18.4491 28.1585 15.3338L-3.57128 -15.1493ZM5.51179 -20.7019C5.64734 -20.7397 5.7336 -20.7612 5.62405 -20.733C5.57521 -20.7205 5.32272 -20.6561 5.07373 -20.5895C4.55437 -20.4506 3.53693 -20.1691 2.33574 -19.7199L17.7461 21.4932C17.3682 21.6345 17.0567 21.7353 16.8428 21.8008C16.6314 21.8656 16.4817 21.9059 16.4414 21.9167C16.42 21.9224 16.4143 21.9238 16.4384 21.9176C16.4755 21.908 16.4907 21.9041 16.5768 21.882C16.6426 21.8651 16.7491 21.8377 16.8686 21.8062C16.9901 21.7742 17.1495 21.7316 17.3315 21.6808L5.51179 -20.7019ZM2.33587 -19.72C-0.0340233 -18.8339 -4.51964 -16.7914 -8.30563 -12.1624L25.7535 15.6939C22.6869 19.4434 19.1553 20.9662 17.746 21.4932L2.33587 -19.72ZM-8.3101 -12.157C-12.4607 -7.07879 -13.8573 -1.25189 -13.8573 3.63757H30.1427C30.1427 6.9009 29.1897 11.4898 25.758 15.6884L-8.3101 -12.157ZM-13.855 3.95777C-13.7422 11.7041 -9.55348 19.2442 -2.19422 23.238L18.7926 -15.4344C25.9621 -11.5436 30.0308 -4.20616 30.1404 3.31737L-13.855 3.95777ZM-2.16117 23.2559C5.3233 27.301 14.4238 26.7207 21.3214 21.8302L-4.12772 -14.0633C2.59307 -18.8285 11.4649 -19.3949 18.7596 -15.4523L-2.16117 23.2559ZM21.1416 21.9563C19.7585 22.9163 18.5666 23.4923 17.9019 23.789C17.167 24.1171 16.5469 24.3372 16.0985 24.481C15.227 24.7606 14.4269 24.9372 13.6714 25.0494L7.20962 -18.4736C5.71806 -18.2521 4.17685 -17.9032 2.65789 -17.4159C1.49663 -17.0434 -1.15765 -16.1263 -3.94799 -14.1894L21.1416 21.9563ZM13.6753 25.0488C8.63496 25.7981 4.26624 24.1251 5.77483 24.5765L18.3892 -17.5765C19.187 -17.3378 13.6657 -19.4333 7.20571 -18.473L13.6753 25.0488ZM-9.91798 3.5V4.35642H34.082V3.5H-9.91798ZM1.75706 -15.0702L-4.34407 -11.8276L16.3058 27.0257L22.407 23.7831L1.75706 -15.0702ZM-3.93229 -12.0409C-11.8075 -8.06594 -16.239 -0.091509 -16.1822 8.02709L27.8167 7.71931C27.8719 15.6049 23.5678 23.3658 15.8941 27.2391L-3.93229 -12.0409ZM-16.1827 7.8732V12.0613H27.8173V7.8732H-16.1827ZM-3.94811 -7.65257L-9.59759 -4.85406L9.93319 34.5737L15.5827 31.7752L-3.94811 -7.65257ZM-9.77806 -4.76363C-17.6021 -0.798145 -22.0522 7.1444 -21.9953 15.2878L22.0036 14.9801C22.059 22.8905 17.7361 30.6199 10.1137 34.4833L-9.77806 -4.76363ZM-21.9958 15.1339V20.8821H22.0042V15.1339H-21.9958ZM-21.9941 20.6062C-22.0649 26.2563 -19.9792 31.9181 -15.8606 36.2526L16.0365 5.94465C20.0455 10.1639 22.0713 15.6696 22.0025 21.158L-21.9941 20.6062ZM-15.9163 36.1939C-11.7925 40.5659 -5.96698 43.189 0.294919 43.189V-0.811041C6.40111 -0.811041 12.0775 1.74703 16.0921 6.00339L-15.9163 36.1939ZM0.294919 43.189C6.57978 43.189 12.3822 40.5501 16.4784 36.2232L-15.4746 5.97412C-11.4879 1.76279 -5.83424 -0.811041 0.294919 -0.811041V43.189ZM16.4786 36.223C20.5456 31.9268 22.669 26.2754 22.583 20.5516L-21.4121 21.2127C-21.4956 15.6505 -19.4327 10.1553 -15.4747 5.97426L16.4786 36.223ZM22.5827 20.5329L22.4972 15.1508L-21.4972 15.8492L-21.4118 21.2314L22.5827 20.5329ZM10.2249 35.2339L15.542 32.6136L-3.90777 -6.85418L-9.22489 -4.23389L10.2249 35.2339ZM-16.1829 12.8797V22.3952H27.8171V12.8797H-16.1829ZM5.81712 0.395174H0.2948V44.3952H5.81712V0.395174ZM0.652553 0.398083C-5.63973 0.295747 -11.4956 2.84707 -15.6657 7.12422L15.8389 37.84C11.7795 42.0036 6.07363 44.4921 -0.0629535 44.3923L0.652553 0.398083ZM-15.694 7.15333C-19.8053 11.3858 -22 16.9902 -22 22.6976H22C22 28.2429 19.8678 33.6924 15.8672 37.8109L-15.694 7.15333ZM-22 22.6976C-22 28.3812 -19.8205 34.0097 -15.6653 38.2713L15.8385 7.55477C19.883 11.7029 22 17.1761 22 22.6976H-22ZM-15.694 38.2418C-11.4851 42.5748 -5.62088 45.0823 0.592469 44.9982L-0.0028694 1.00222C6.05478 0.92025 11.769 3.36522 15.8672 7.58426L-15.694 38.2418ZM0.2948 45.0002H24.7093V1.00021H0.2948V45.0002ZM24.7093 45.0002C37.8427 45.0002 47 34.1757 47 22.6976H3C3 11.5537 11.8969 1.00021 24.7093 1.00021V45.0002ZM47 22.6976V15.1342H3V22.6976H47ZM46.9995 15.2874C47.0562 7.14524 42.6069 -0.797594 34.7822 -4.76342L14.8906 34.4836C7.26738 30.6199 2.94547 22.8902 3.00054 14.981L46.9995 15.2874ZM34.6018 -4.85381L28.9523 -7.65231L9.42153 31.7755L15.071 34.574L34.6018 -4.85381ZM41.1869 12.0616V7.87346H-2.81309V12.0616H41.1869ZM41.1864 8.02661C41.2429 -0.0907908 36.8123 -8.06544 28.9364 -12.0407L9.11021 27.2394C1.43587 23.3658 -2.86744 15.6047 -2.81255 7.7203L41.1864 8.02661ZM29.1802 -11.9157L22.9495 -15.1586L2.63561 23.8715L8.86638 27.1144L29.1802 -11.9157ZM34.7925 4.35642V0.31012H-9.20747V4.35642H34.7925ZM34.7873 0.788184C34.9285 -5.70587 32.2154 -12.1806 26.9795 -16.6554L-1.60695 16.7932C-6.70455 12.4366 -9.33937 6.13955 -9.20227 -0.167944L34.7873 0.788184ZM26.9565 -16.6751C21.7267 -21.1322 14.5369 -23.0628 7.46968 -21.4242L17.4079 21.4387C10.5155 23.0368 3.50723 21.1519 -1.58392 16.8129L26.9565 -16.6751ZM-9.78829 1.0102L-9.78833 2.40608L34.2117 2.40752L34.2117 1.01164L-9.78829 1.0102ZM17.1834 -19.0241C13.1301 -19.9644 9.53222 -19.7305 7.12863 -19.3738L13.589 24.1494C12.9569 24.2432 12.141 24.3214 11.1656 24.3131C10.2197 24.3051 8.862 24.214 7.23996 23.8377L17.1834 -19.0241ZM7.12299 -19.3729C5.01718 -19.0598 3.30209 -18.5126 2.09498 -18.0521C0.897158 -17.595 -0.0401329 -17.129 -0.55558 -16.8631C-0.949876 -16.6596 -1.53532 -16.3385 -1.33464 -16.4473C-1.3261 -16.4519 -1.19593 -16.5227 -1.00806 -16.6182C-0.818727 -16.7145 -0.490281 -16.8773 -0.0646107 -17.0644L17.6399 23.2165C18.6413 22.7764 19.4348 22.3429 19.631 22.2366C19.7001 22.1992 19.7623 22.1652 19.7931 22.1483C19.8126 22.1377 19.8218 22.1326 19.8321 22.127C19.8409 22.1222 19.844 22.1205 19.8438 22.1206C19.8434 22.1208 19.8379 22.1238 19.8285 22.1289C19.8192 22.1339 19.8048 22.1416 19.7865 22.1514C19.7505 22.1706 19.6937 22.2007 19.6213 22.238C19.3695 22.3679 18.7026 22.7053 17.7805 23.0571C16.8492 23.4125 15.4152 23.8778 13.5947 24.1485L7.12299 -19.3729ZM30.4949 6.65309C30.349 7.53834 30.0572 8.94322 29.4319 10.6002C28.7496 12.4084 27.8391 14.0732 26.7652 15.5597C26.2782 16.2339 25.8398 16.7571 25.5418 17.0978C25.3944 17.2663 25.2725 17.4002 25.1953 17.484C25.1218 17.5639 25.0654 17.6237 25.0632 17.626C25.0016 17.6916 25.5851 17.0854 26.2013 16.3317L-7.86319 -11.5181C-7.34246 -12.155 -6.84598 -12.6699 -6.98662 -12.5204C-7.01037 -12.4951 -7.27203 -12.2189 -7.57761 -11.8695C-7.91108 -11.4882 -8.38299 -10.924 -8.90157 -10.2061C-10.0385 -8.63227 -11.0044 -6.8693 -11.7347 -4.93407C-12.4079 -3.15004 -12.7403 -1.58919 -12.9196 -0.500929L30.4949 6.65309ZM26.198 16.3358C23.1297 20.0869 19.6069 21.6835 17.9434 22.3053L2.53847 -18.9098C0.0189931 -17.9681 -4.25713 -15.9267 -7.85985 -11.5222L26.198 16.3358ZM17.952 22.3021C17.5047 22.4695 17.1418 22.5847 16.9104 22.6544C16.6817 22.7232 16.5226 22.765 16.4975 22.7716C16.4824 22.7756 16.4828 22.7754 16.5174 22.7666C16.5347 22.7621 16.5535 22.7574 16.5832 22.7498C16.6098 22.743 16.6474 22.7335 16.6865 22.7235C16.7645 22.7036 16.8781 22.6744 17.0072 22.6405C17.1378 22.6061 17.3006 22.5626 17.4844 22.5113L5.66758 -19.8722C5.80187 -19.9096 5.88337 -19.9298 5.80204 -19.909C5.79058 -19.9061 5.52693 -19.8394 5.31455 -19.7836C4.86594 -19.6657 3.79295 -19.3793 2.52988 -18.9066L17.952 22.3021ZM17.4936 22.5087C18.928 22.1082 20.0741 21.6364 20.8452 21.2859C21.6097 20.9385 22.2006 20.6194 22.4639 20.4754C22.6003 20.4007 22.716 20.3357 22.7391 20.3228C22.7923 20.293 22.7339 20.3258 22.6687 20.3617C22.557 20.4232 22.0332 20.7125 21.3192 21.0373L3.10425 -19.0154C2.29141 -18.6458 1.66672 -18.3032 1.45237 -18.1852C1.38643 -18.1489 1.3313 -18.1182 1.29545 -18.0982C1.26338 -18.0803 1.22997 -18.0615 1.22666 -18.0597C1.19752 -18.0434 1.26052 -18.0788 1.34388 -18.1245C1.50103 -18.2104 1.98411 -18.4731 2.63924 -18.7708C3.30095 -19.0716 4.3362 -19.5004 5.65835 -19.8696L17.4936 22.5087ZM2.70275 25.5269L8.06914 28.1969L27.6685 -11.1969L22.3021 -13.8668L2.70275 25.5269ZM-4.13116 8.5V22.3948H39.8688V8.5H-4.13116ZM17.8655 0.394837L15.6963 0.395161L15.7029 44.3952L17.8721 44.3948L17.8655 0.394837ZM37.6996 22.3952V16.9873H-6.30042V22.3952H37.6996ZM37.6996 16.9873C37.6996 2.12289 25.3729 -8.07577 12.5023 -8.07577V35.9242C3.13678 35.9242 -6.30042 28.4377 -6.30042 16.9873H37.6996ZM12.5023 -8.07577C-0.368491 -8.07577 -12.6949 2.12319 -12.6949 16.9873H31.3051C31.3051 28.4375 21.8682 35.9242 12.5023 35.9242V-8.07577ZM-12.6949 16.9873V22.3952H31.3051V16.9873H-12.6949ZM9.30818 0.395161L6.98756 0.394837L6.98141 44.3948L9.30203 44.3952L9.30818 0.395161ZM28.9821 22.7197L29.1873 8.82489L-14.8079 8.17511L-15.0131 22.07L28.9821 22.7197ZM17.0685 28.1573L22.3812 25.4874L2.62367 -13.8272L-2.68908 -11.1573L17.0685 28.1573ZM12.5024 -14.1267C-1.75131 -14.1267 -11.8228 -2.35035 -11.8228 10.2936H32.1772C32.1772 20.2713 24.1948 29.8733 12.5024 29.8733V-14.1267ZM-11.8228 10.2936C-11.8228 22.9401 -1.74881 34.7137 12.5024 34.7137V-9.28629C24.1923 -9.28629 32.1772 0.313246 32.1772 10.2936H-11.8228ZM12.5024 34.7137C26.7537 34.7137 36.8277 22.9401 36.8277 10.2936H-7.17232C-7.17232 0.31327 0.812609 -9.28629 12.5024 -9.28629V34.7137ZM36.8277 10.2936C36.8277 -2.35033 26.7562 -14.1267 12.5024 -14.1267V29.8733C0.810107 29.8733 -7.17232 20.2713 -7.17232 10.2936H36.8277ZM12.5023 30.853C10.2356 30.853 2.99118 30.3918 -2.84318 23.8931C-8.1498 17.9823 -8.17268 11.4859 -8.17268 10.2936H35.8273C35.8273 8.09508 35.6253 0.878362 29.8978 -5.50118C23.6426 -12.4685 15.7357 -13.147 12.5023 -13.147V30.853ZM-8.17268 10.2936C-8.17268 9.14355 -8.16901 2.42505 -2.6123 -3.5737C3.34339 -10.0032 10.6102 -10.2948 12.5023 -10.2948V33.7052C15.3612 33.7052 23.2904 33.2107 29.667 26.327C35.6445 19.8739 35.8273 12.4496 35.8273 10.2936H-8.17268ZM12.5023 -10.2948C14.4607 -10.2948 21.1668 -9.97968 26.9561 -4.22132C32.7628 1.5544 33.1055 8.28037 33.1055 10.2936H-10.8945C-10.8945 13.3128 -10.3367 20.7446 -4.0732 26.9746C2.17282 33.1872 9.57731 33.7052 12.5023 33.7052V-10.2948ZM33.1055 10.2936C33.1055 12.3299 32.7548 18.8468 27.1981 24.5494C21.5144 30.3824 14.8138 30.853 12.5023 30.853V-13.147C9.22423 -13.147 1.82518 -12.4591 -4.31524 -6.15743C-10.3286 0.0139086 -10.8945 7.2511 -10.8945 10.2936H33.1055ZM9.92074 33.2182L14.7338 35.4534L33.2662 -4.4534L28.4531 -6.68855L9.92074 33.2182ZM2 15.5V22.3952H46V15.5H2ZM24.0015 0.395174L19.1889 0.394836L19.1858 44.3948L23.9985 44.3952L24.0015 0.395174ZM41.1874 22.3938L41.1869 13.2638L-2.81309 13.2659L-2.81264 22.3959L41.1874 22.3938ZM12.5023 36.8601C9.546 36.8601 4.19923 36.0586 -0.611279 31.6703C-5.70818 27.0208 -7.17232 21.1228 -7.17232 16.9873H36.8277C36.8277 11.5009 34.9348 4.53925 29.0422 -0.836181C23.4359 -5.95036 16.9265 -7.13993 12.5023 -7.13993V36.8601ZM-7.17232 16.9873V22.3952H36.8277V16.9873H-7.17232ZM14.8293 0.395174L10.1788 0.394836L10.1756 44.3948L14.8261 44.3952L14.8293 0.395174ZM32.1772 22.3948V16.9873H-11.8228V22.3948H32.1772ZM32.1772 16.9873C32.1772 21.1212 30.714 27.0192 25.6171 31.6694C20.8062 36.0586 15.4587 36.8601 12.5023 36.8601V-7.13993C8.07813 -7.13993 1.56806 -5.95031 -4.03845 -0.835217C-9.93098 4.54084 -11.8228 11.5024 -11.8228 16.9873H32.1772Z" fill="white" mask="url(#path-1-inside-1_3609_1378)"/>
</svg>
