<svg width="20" height="30" viewBox="0 0 20 30" fill="none" xmlns="http://www.w3.org/2000/svg">
<path d="M9.60128 23.1166C14.3516 23.1166 18.2026 19.2657 18.2026 14.5153C18.2026 9.76499 14.3516 5.91406 9.60128 5.91406C4.85092 5.91406 1 9.76499 1 14.5153C1 19.2657 4.85092 23.1166 9.60128 23.1166Z" stroke="white" stroke-width="2" stroke-linecap="round" stroke-linejoin="round"/>
<path d="M9.60059 10.8301V14.5163L11.4437 16.3595" stroke="white" stroke-width="2" stroke-linecap="round" stroke-linejoin="round"/>
<path d="M4.05916 7.94248L4.48923 3.23635C4.5444 2.62576 4.82582 2.05784 5.27823 1.64407C5.73064 1.23031 6.32136 1.0006 6.93445 1.00002H12.2795C12.8947 0.997524 13.4885 1.22586 13.9435 1.63992C14.3985 2.05398 14.6817 2.62364 14.737 3.23635L15.1671 7.94248M15.1425 21.0902L14.7125 25.7963C14.6571 26.409 14.3739 26.9787 13.9189 27.3927C13.4639 27.8068 12.8702 28.0351 12.255 28.0326H6.93445C6.31925 28.0351 5.72548 27.8068 5.27047 27.3927C4.81546 26.9787 4.5323 26.409 4.47694 25.7963L4.04688 21.0902H15.1425Z" stroke="white" stroke-width="2" stroke-linecap="round" stroke-linejoin="round"/>
</svg>
