<svg width="23" height="30" viewBox="0 0 23 30" fill="none" xmlns="http://www.w3.org/2000/svg">
<mask id="path-1-inside-1_3598_1324" fill="white">
<path d="M0.258974 21.7819C0.130539 23.357 0.00522473 28.8696 0.000110888 29.1034C-0.00244647 29.2179 0.0393237 29.3285 0.115758 29.4107C0.19248 29.4926 0.297616 29.5386 0.407298 29.5386H22.5925C22.7033 29.5386 22.8093 29.4914 22.886 29.4084C22.9628 29.325 23.004 29.2128 22.9997 29.0971L22.7425 22.0233C22.7542 21.7623 22.7528 20.0388 20.8211 19.1746C19.3904 18.5344 15.9971 17.0661 14.6803 16.4973C15.5858 15.5723 16.2821 14.4485 16.7188 13.2069C17.2385 11.7493 17.5656 10.2249 17.6908 8.67536C17.8448 8.61929 18.27 8.44336 18.2802 8.27336C18.5496 3.43092 15.9082 1.10907 14.5 0.480127C12.2617 -0.519076 9.48428 0.177047 8.31304 1.32639C7.54044 1.38395 6.48563 2.35033 6 2.98047C4.64232 4.72581 5.1968 7.84554 5.44368 7.99455C5.4701 8.16662 5.45921 8.26416 5.62204 8.30213C5.7141 10.1967 6.32021 12.0581 7.00814 13.8139C7.38123 14.7078 7.9052 15.5245 8.55538 16.225L1.70589 19.2859C0.851444 19.8098 0.307567 20.7486 0.258974 21.7819ZM11.4389 20.7064L10.6341 20.0232V19.1964H12.2845V19.9805L11.4389 20.7064ZM11.2127 21.5716C11.3496 21.6671 11.5281 21.6671 11.6651 21.5716L11.9938 21.3426L12.3298 27.9805H10.3298L10.8842 21.3426L11.2127 21.5716ZM7.02624 3.39059C7.40388 2.90403 7.96994 2.61893 8.56978 2.61301C8.6752 2.60737 8.77437 2.55901 8.84626 2.47831C9.75751 1.45747 12.2328 0.965231 14.181 1.83481C15.5756 2.45754 17.1785 3.9599 17.1679 7.56641C16.969 7.4593 16.744 7.41777 16.5221 7.44714C16.3621 6.69001 15.9137 6.03378 15.2797 5.62965C15.1777 5.56319 15.053 5.54747 14.9388 5.58663C13.7135 5.99486 12.4373 6.21174 11.1516 6.23013C10.0014 6.28265 8.86165 5.98062 7.87446 5.36141C7.70027 5.24067 7.46669 5.27745 7.33428 5.44686C6.98392 5.88298 6.77336 6.4232 6.73273 6.99078C6.56764 6.98336 6.40368 7.02074 6.25677 7.09936C6.2042 6.12712 6.24057 4.4008 7.02624 3.39059ZM8.09226 13.4805C7.4012 11.6953 6.68044 9.78318 6.62646 7.85859C6.65885 7.84524 6.6938 7.84079 6.72818 7.84554L7.56771 8.27336C7.697 8.32261 7.84164 8.30066 7.9516 8.21402C8.06185 8.12769 8.12266 7.98914 8.11329 7.84554L8.09226 7.51949C8.07947 7.19818 8.1562 6.87984 8.31304 6.60307C9.35902 7.16172 10.12 7.89406 11.2941 7.85608C12.5975 7.83828 13.2526 7.43325 14.5 7.03867C14.8944 7.32081 15.4483 7.50136 15.5134 7.99596L15.5 8.30213C15.4937 8.44127 15.5537 8.57478 15.6594 8.65934C15.7654 8.74419 15.9044 8.76911 16.0314 8.72698L16.311 8.63352C16.4417 8.57804 16.5917 8.61068 16.69 8.7166C16.5823 10.2534 16.1718 11.4184 15.6594 12.8638C14.9192 14.8281 13.7286 16.4973 11.7597 16.4973C9.89932 16.4973 8.77794 15.0905 8.09226 13.4805ZM2.6541 20.1669L9.40719 17.1006C10.1264 17.6984 10.8408 17.7814 11.7597 17.8085C12.5388 17.7999 13.2989 17.5539 13.9462 17.1006C14.6811 17.4178 18.3701 19.4376 20 20.1669C21.496 20.8365 21.5031 21.948 21.5 22V22.0233V28L13.3298 27.9805L12.777 20.7955L13.0845 20.581C13.2152 20.4902 13.284 20.3291 13.2615 20.1669L13.0404 18.5648C13.0114 18.3556 12.8398 18.2001 12.6372 18.2001H10.2401C10.0375 18.2001 9.86588 18.3556 9.8369 18.5648L9.61554 20.1669C9.59309 20.3291 9.66185 20.4902 9.79257 20.581L10.1003 20.7955L9.3298 27.9805H1.70589C1.73885 26.6163 1.5999 23.4529 1.70589 22.1576C1.73203 21.428 2.06735 20.5638 2.6541 20.1669Z"/>
</mask>
<path d="M0.258974 21.7819C0.130539 23.357 0.00522473 28.8696 0.000110888 29.1034C-0.00244647 29.2179 0.0393237 29.3285 0.115758 29.4107C0.19248 29.4926 0.297616 29.5386 0.407298 29.5386H22.5925C22.7033 29.5386 22.8093 29.4914 22.886 29.4084C22.9628 29.325 23.004 29.2128 22.9997 29.0971L22.7425 22.0233C22.7542 21.7623 22.7528 20.0388 20.8211 19.1746C19.3904 18.5344 15.9971 17.0661 14.6803 16.4973C15.5858 15.5723 16.2821 14.4485 16.7188 13.2069C17.2385 11.7493 17.5656 10.2249 17.6908 8.67536C17.8448 8.61929 18.27 8.44336 18.2802 8.27336C18.5496 3.43092 15.9082 1.10907 14.5 0.480127C12.2617 -0.519076 9.48428 0.177047 8.31304 1.32639C7.54044 1.38395 6.48563 2.35033 6 2.98047C4.64232 4.72581 5.1968 7.84554 5.44368 7.99455C5.4701 8.16662 5.45921 8.26416 5.62204 8.30213C5.7141 10.1967 6.32021 12.0581 7.00814 13.8139C7.38123 14.7078 7.9052 15.5245 8.55538 16.225L1.70589 19.2859C0.851444 19.8098 0.307567 20.7486 0.258974 21.7819ZM11.4389 20.7064L10.6341 20.0232V19.1964H12.2845V19.9805L11.4389 20.7064ZM11.2127 21.5716C11.3496 21.6671 11.5281 21.6671 11.6651 21.5716L11.9938 21.3426L12.3298 27.9805H10.3298L10.8842 21.3426L11.2127 21.5716ZM7.02624 3.39059C7.40388 2.90403 7.96994 2.61893 8.56978 2.61301C8.6752 2.60737 8.77437 2.55901 8.84626 2.47831C9.75751 1.45747 12.2328 0.965231 14.181 1.83481C15.5756 2.45754 17.1785 3.9599 17.1679 7.56641C16.969 7.4593 16.744 7.41777 16.5221 7.44714C16.3621 6.69001 15.9137 6.03378 15.2797 5.62965C15.1777 5.56319 15.053 5.54747 14.9388 5.58663C13.7135 5.99486 12.4373 6.21174 11.1516 6.23013C10.0014 6.28265 8.86165 5.98062 7.87446 5.36141C7.70027 5.24067 7.46669 5.27745 7.33428 5.44686C6.98392 5.88298 6.77336 6.4232 6.73273 6.99078C6.56764 6.98336 6.40368 7.02074 6.25677 7.09936C6.2042 6.12712 6.24057 4.4008 7.02624 3.39059ZM8.09226 13.4805C7.4012 11.6953 6.68044 9.78318 6.62646 7.85859C6.65885 7.84524 6.6938 7.84079 6.72818 7.84554L7.56771 8.27336C7.697 8.32261 7.84164 8.30066 7.9516 8.21402C8.06185 8.12769 8.12266 7.98914 8.11329 7.84554L8.09226 7.51949C8.07947 7.19818 8.1562 6.87984 8.31304 6.60307C9.35902 7.16172 10.12 7.89406 11.2941 7.85608C12.5975 7.83828 13.2526 7.43325 14.5 7.03867C14.8944 7.32081 15.4483 7.50136 15.5134 7.99596L15.5 8.30213C15.4937 8.44127 15.5537 8.57478 15.6594 8.65934C15.7654 8.74419 15.9044 8.76911 16.0314 8.72698L16.311 8.63352C16.4417 8.57804 16.5917 8.61068 16.69 8.7166C16.5823 10.2534 16.1718 11.4184 15.6594 12.8638C14.9192 14.8281 13.7286 16.4973 11.7597 16.4973C9.89932 16.4973 8.77794 15.0905 8.09226 13.4805ZM2.6541 20.1669L9.40719 17.1006C10.1264 17.6984 10.8408 17.7814 11.7597 17.8085C12.5388 17.7999 13.2989 17.5539 13.9462 17.1006C14.6811 17.4178 18.3701 19.4376 20 20.1669C21.496 20.8365 21.5031 21.948 21.5 22V22.0233V28L13.3298 27.9805L12.777 20.7955L13.0845 20.581C13.2152 20.4902 13.284 20.3291 13.2615 20.1669L13.0404 18.5648C13.0114 18.3556 12.8398 18.2001 12.6372 18.2001H10.2401C10.0375 18.2001 9.86588 18.3556 9.8369 18.5648L9.61554 20.1669C9.59309 20.3291 9.66185 20.4902 9.79257 20.581L10.1003 20.7955L9.3298 27.9805H1.70589C1.73885 26.6163 1.5999 23.4529 1.70589 22.1576C1.73203 21.428 2.06735 20.5638 2.6541 20.1669Z" fill="white"/>
<path d="M0.258974 21.7819L5.24243 22.1883L5.24942 22.1026L5.25345 22.0168L0.258974 21.7819ZM0.000110888 29.1034L4.99887 29.215L4.99892 29.2127L0.000110888 29.1034ZM0.115758 29.4107L-3.54557 32.8158L-3.53923 32.8226L-3.53287 32.8294L0.115758 29.4107ZM22.886 29.4084L26.5591 32.8008L26.5652 32.7941L22.886 29.4084ZM22.9997 29.0971L18.003 29.2788L18.0031 29.2812L22.9997 29.0971ZM22.7425 22.0233L17.7475 21.8004L17.7385 22.0027L17.7458 22.205L22.7425 22.0233ZM20.8211 19.1746L18.7788 23.7385L18.7791 23.7386L20.8211 19.1746ZM14.6803 16.4973L11.1073 12.9997L6.01521 18.2014L12.6978 21.0875L14.6803 16.4973ZM16.7188 13.2069L12.0092 11.5276L12.0055 11.5378L12.002 11.548L16.7188 13.2069ZM17.6908 8.67536L15.9803 3.97706L12.9656 5.07465L12.7071 8.27248L17.6908 8.67536ZM18.2802 8.27336L23.2712 8.57385L23.2719 8.56246L23.2725 8.55107L18.2802 8.27336ZM14.5 0.480127L16.539 -4.08524L16.5382 -4.08559L14.5 0.480127ZM8.31304 1.32639L8.68449 6.31257L10.5091 6.17664L11.8151 4.89512L8.31304 1.32639ZM6 2.98047L9.94655 6.05044L9.95347 6.04155L9.96035 6.03262L6 2.98047ZM5.44368 7.99455L10.3857 7.23557L10.0306 4.92286L8.02733 3.7138L5.44368 7.99455ZM5.62204 8.30213L10.6161 8.05945L10.433 4.29001L6.75772 3.43282L5.62204 8.30213ZM7.00814 13.8139L2.35273 15.6379L2.37275 15.689L2.39389 15.7397L7.00814 13.8139ZM8.55538 16.225L10.5953 20.7899L16.9702 17.9412L12.2201 12.8235L8.55538 16.225ZM1.70589 19.2859L-0.334071 14.721L-0.630775 14.8535L-0.907819 15.0234L1.70589 19.2859ZM11.4389 20.7064L8.20274 24.5179L11.4569 27.2808L14.6958 24.5002L11.4389 20.7064ZM10.6341 20.0232H5.63414V22.3371L7.398 23.8347L10.6341 20.0232ZM10.6341 19.1964V14.1964H5.63414V19.1964H10.6341ZM12.2845 19.1964H17.2845V14.1964H12.2845V19.1964ZM12.2845 19.9805L15.5414 23.7742L17.2845 22.2778V19.9805H12.2845ZM11.2127 21.5716L14.0731 17.4706L14.0726 17.4703L11.2127 21.5716ZM11.6651 21.5716L8.80695 17.469L8.80473 17.4706L11.6651 21.5716ZM11.9938 21.3426L16.9874 21.0898L16.5318 12.0874L9.13571 17.24L11.9938 21.3426ZM12.3298 27.9805V32.9805H17.5893L17.3234 27.7277L12.3298 27.9805ZM10.3298 27.9805L5.34715 27.5643L4.89478 32.9805H10.3298V27.9805ZM10.8842 21.3426L13.7441 17.2412L6.62406 12.2763L5.90158 20.9264L10.8842 21.3426ZM7.02624 3.39059L10.9731 6.46017L10.9761 6.45628L7.02624 3.39059ZM8.56978 2.61301L8.61916 7.61276L8.72803 7.61169L8.83675 7.60587L8.56978 2.61301ZM8.84626 2.47831L5.11617 -0.85132L5.11298 -0.847737L8.84626 2.47831ZM14.181 1.83481L16.2196 -2.73072L16.219 -2.73099L14.181 1.83481ZM17.1679 7.56641L14.7974 11.9688L22.1435 15.9244L22.1679 7.58103L17.1679 7.56641ZM16.5221 7.44714L11.6301 8.48078L12.5874 13.0115L17.178 12.4039L16.5221 7.44714ZM15.2797 5.62965L12.5504 9.81902L12.5711 9.83251L12.592 9.84579L15.2797 5.62965ZM14.9388 5.58663L16.5192 10.3303L16.5397 10.3234L16.5602 10.3164L14.9388 5.58663ZM11.1516 6.23013L11.0801 1.23065L11.0018 1.23177L10.9236 1.23534L11.1516 6.23013ZM7.87446 5.36141L5.0259 9.47064L5.12032 9.53609L5.21765 9.59714L7.87446 5.36141ZM7.33428 5.44686L11.2322 8.5783L11.2531 8.55229L11.2737 8.52602L7.33428 5.44686ZM6.73273 6.99078L6.50832 11.9857L11.3723 12.2043L11.72 7.34783L6.73273 6.99078ZM6.25677 7.09936L1.26406 7.36932L1.68829 15.2152L8.61598 11.5078L6.25677 7.09936ZM8.09226 13.4805L3.42945 15.2855L3.45947 15.3631L3.49204 15.4396L8.09226 13.4805ZM6.62646 7.85859L4.72123 3.23582L1.53171 4.55034L1.62843 7.99877L6.62646 7.85859ZM6.72818 7.84554L8.99838 3.39063L8.24721 3.00784L7.41206 2.89253L6.72818 7.84554ZM7.56771 8.27336L5.29752 12.7283L5.53683 12.8502L5.78782 12.9458L7.56771 8.27336ZM7.9516 8.21402L4.86894 4.27738L4.86318 4.28189L4.85743 4.28642L7.9516 8.21402ZM8.11329 7.84554L3.12365 8.16733L3.12391 8.17133L8.11329 7.84554ZM8.09226 7.51949L3.09622 7.71831L3.09866 7.77983L3.10263 7.84127L8.09226 7.51949ZM8.31304 6.60307L10.6686 2.19271L6.36728 -0.104631L3.96301 4.13786L8.31304 6.60307ZM11.2941 7.85608L11.2258 2.85655L11.1791 2.85719L11.1324 2.8587L11.2941 7.85608ZM14.5 7.03867L17.4091 2.97206L15.3757 1.51747L12.992 2.27149L14.5 7.03867ZM15.5134 7.99596L20.5086 8.21385L20.5277 7.77712L20.4706 7.34371L15.5134 7.99596ZM15.5 8.30213L20.495 8.52655L20.4953 8.52003L15.5 8.30213ZM15.6594 8.65934L18.7843 4.75611L18.7827 4.75485L15.6594 8.65934ZM16.0314 8.72698L17.6054 13.4728L17.6164 13.4691L16.0314 8.72698ZM16.311 8.63352L17.896 13.3756L18.083 13.3131L18.2645 13.2361L16.311 8.63352ZM16.69 8.7166L21.6778 9.06613L21.8293 6.90382L20.3547 5.3151L16.69 8.7166ZM15.6594 12.8638L20.3382 14.6269L20.3556 14.5808L20.3721 14.5343L15.6594 12.8638ZM2.6541 20.1669L0.586947 15.6142L0.202377 15.7888L-0.147452 16.0254L2.6541 20.1669ZM9.40719 17.1006L12.6033 13.2555L10.1934 11.2523L7.34004 12.5479L9.40719 17.1006ZM11.7597 17.8085L11.6126 22.8063L11.7137 22.8093L11.8149 22.8082L11.7597 17.8085ZM13.9462 17.1006L15.9275 12.5099L13.3646 11.4038L11.0781 13.005L13.9462 17.1006ZM20 20.1669L22.0427 15.6031L22.0421 15.6029L20 20.1669ZM21.5 22L16.509 21.6995L16.5 21.8496V22H21.5ZM21.5 28L21.488 33L26.5 33.012V28H21.5ZM13.3298 27.9805L8.34454 28.364L8.69886 32.9694L13.3179 32.9805L13.3298 27.9805ZM12.777 20.7955L9.91615 16.6949L7.57255 18.3299L7.79175 21.1791L12.777 20.7955ZM13.0845 20.581L10.2323 16.4743L10.2236 16.4804L13.0845 20.581ZM13.2615 20.1669L8.30844 20.8503L8.30867 20.852L13.2615 20.1669ZM13.0404 18.5648L17.9935 17.8813L17.9931 17.8785L13.0404 18.5648ZM9.8369 18.5648L4.88423 17.8783L4.88395 17.8804L9.8369 18.5648ZM9.61554 20.1669L14.5684 20.852L14.5685 20.8512L9.61554 20.1669ZM9.79257 20.581L12.6517 16.4791L12.6448 16.4743L9.79257 20.581ZM10.1003 20.7955L15.0718 21.3287L15.3874 18.386L12.9594 16.6936L10.1003 20.7955ZM9.3298 27.9805V32.9805H13.8223L14.3013 28.5136L9.3298 27.9805ZM1.70589 27.9805L-3.29266 27.8597L-3.41639 32.9805H1.70589V27.9805ZM1.70589 22.1576L6.68923 22.5653L6.69858 22.4511L6.70268 22.3366L1.70589 22.1576ZM-4.72448 21.3755C-4.86845 23.141 -4.99573 28.8585 -4.99869 28.994L4.99892 29.2127C5.00618 28.8807 5.12953 23.5729 5.24243 22.1883L-4.72448 21.3755ZM-4.99864 28.9917C-5.02974 30.3844 -4.5246 31.7631 -3.54557 32.8158L3.77709 26.0056C4.60325 26.894 5.02485 28.0514 4.99886 29.215L-4.99864 28.9917ZM-3.53287 32.8294C-2.53139 33.8983 -1.11465 34.5386 0.407298 34.5386V24.5386C1.70989 24.5386 2.91635 25.087 3.76438 25.992L-3.53287 32.8294ZM0.407298 34.5386H22.5925V24.5386H0.407298V34.5386ZM22.5925 34.5386C24.1371 34.5386 25.5625 33.8798 26.5591 32.8008L19.213 26.0159C20.0562 25.103 21.2696 24.5386 22.5925 24.5386V34.5386ZM26.5652 32.7941C27.5483 31.7258 28.0483 30.3252 27.9963 28.9131L18.0031 29.2812C17.9596 28.1005 18.3772 26.9241 19.2068 26.0226L26.5652 32.7941ZM27.9964 28.9155L27.7392 21.8417L17.7458 22.205L18.003 29.2788L27.9964 28.9155ZM27.7376 22.2462C27.779 21.3167 27.6729 16.7625 22.8631 14.6106L18.7791 23.7386C18.681 23.6947 18.4981 23.5872 18.3051 23.3831C18.1175 23.1847 17.9864 22.9653 17.9016 22.7635C17.7535 22.4114 17.7344 22.0953 17.7475 21.8004L27.7376 22.2462ZM22.8634 14.6107C21.3957 13.9539 17.9668 12.4704 16.6627 11.9072L12.6978 21.0875C14.0274 21.6618 17.385 23.1148 18.7788 23.7385L22.8634 14.6107ZM18.2533 19.995C19.6785 18.5391 20.7606 16.7847 21.4355 14.8657L12.002 11.548C11.8035 12.1123 11.4932 12.6054 11.1073 12.9997L18.2533 19.995ZM21.4283 14.8861C22.0954 13.0153 22.5142 11.0616 22.6746 9.07824L12.7071 8.27248C12.6169 9.38817 12.3815 10.4833 12.0092 11.5276L21.4283 14.8861ZM19.4014 13.3737C19.5991 13.3017 20.0389 13.1324 20.5142 12.8617C20.7368 12.7349 21.1815 12.4667 21.6385 12.0351C21.9548 11.7365 23.1515 10.562 23.2712 8.57385L13.2893 7.97288C13.3494 6.97354 13.6992 6.21045 13.988 5.73626C14.2739 5.26676 14.5799 4.9467 14.7724 4.7649C15.142 4.41584 15.4689 4.22706 15.5646 4.1725C15.7863 4.04624 15.9365 3.99299 15.9803 3.97706L19.4014 13.3737ZM23.2725 8.55107C23.6651 1.49397 19.7055 -2.671 16.539 -4.08524L12.461 5.04549C12.2655 4.95815 12.5201 5.03869 12.798 5.47652C13.0217 5.82882 13.3667 6.57946 13.2879 7.99565L23.2725 8.55107ZM16.5382 -4.08559C14.3414 -5.06627 12.0509 -5.15563 10.1585 -4.83004C8.34933 -4.51875 6.3207 -3.7238 4.81103 -2.24234L11.8151 4.89512C11.7027 5.00536 11.6168 5.0662 11.5789 5.09121C11.5393 5.11741 11.5263 5.12148 11.5458 5.11254C11.5904 5.09206 11.6985 5.05194 11.8542 5.02515C12.0069 4.99887 12.1531 4.99445 12.2732 5.00605C12.3915 5.01747 12.4504 5.04076 12.4618 5.04585L16.5382 -4.08559ZM7.94159 -3.65979C5.9967 -3.51491 4.54119 -2.44532 3.97846 -2.00747C3.22389 -1.42035 2.53986 -0.720732 2.03965 -0.0716851L9.96035 6.03262C9.9355 6.06486 9.94918 6.04403 10.0016 5.99135C10.051 5.94168 10.0954 5.90354 10.1194 5.88489C10.153 5.8587 10.097 5.90847 9.94625 5.98451C9.86569 6.02515 9.7268 6.08915 9.53436 6.15067C9.34458 6.21134 9.05489 6.28498 8.68449 6.31257L7.94159 -3.65979ZM2.05345 -0.089504C0.368145 2.07701 0.120459 4.6349 0.12013 6.085C0.119945 6.90079 0.198265 7.67598 0.325407 8.33745C0.386594 8.65578 0.479004 9.05297 0.623097 9.46357C0.691817 9.65939 0.814534 9.9809 1.01253 10.3411C1.09979 10.4999 1.64403 11.5414 2.86003 12.2753L8.02733 3.7138C8.70853 4.12494 9.1278 4.60285 9.3264 4.85147C9.54782 5.12868 9.69323 5.37375 9.77613 5.52457C9.93954 5.82189 10.0264 6.05939 10.0589 6.15223C10.0993 6.26724 10.1215 6.34955 10.1308 6.3862C10.1413 6.427 10.1455 6.44891 10.1456 6.4499C10.1457 6.45006 10.1384 6.41031 10.1314 6.33646C10.1247 6.26482 10.1201 6.1792 10.1201 6.08727C10.1202 5.88667 10.142 5.74903 10.1562 5.69216C10.1722 5.62817 10.1446 5.79583 9.94655 6.05044L2.05345 -0.089504ZM0.501619 8.75352C0.496301 8.7189 0.493051 8.69337 0.495709 8.7134C0.495925 8.71503 0.505868 8.79195 0.518343 8.87276C0.537656 8.99785 0.614124 9.51164 0.860926 10.1087C1.15137 10.8113 1.6568 11.5906 2.4775 12.223C3.23707 12.8082 3.99562 13.057 4.48635 13.1714L6.75772 3.43282C7.16704 3.52829 7.8659 3.75065 8.58089 4.30155C9.35701 4.89955 9.83298 5.63656 10.1025 6.28856C10.3284 6.83497 10.3924 7.28974 10.4013 7.34696C10.4085 7.39383 10.4137 7.43461 10.4088 7.39782C10.4064 7.37943 10.3977 7.31321 10.3857 7.23557L0.501619 8.75352ZM0.627928 8.54481C0.760869 11.2806 1.6182 13.7633 2.35273 15.6379L11.6635 11.9898C11.0222 10.353 10.6673 9.11282 10.6161 8.05945L0.627928 8.54481ZM2.39389 15.7397C2.99071 17.1697 3.83365 18.4876 4.89069 19.6265L12.2201 12.8235C11.9768 12.5614 11.7717 12.246 11.6224 11.8881L2.39389 15.7397ZM6.51543 11.6601L-0.334071 14.721L3.74584 23.8508L10.5953 20.7899L6.51543 11.6601ZM-0.907819 15.0234C-3.22849 16.4464 -4.6122 18.925 -4.73551 21.547L5.25345 22.0168C5.22733 22.5722 4.93138 23.1732 4.31959 23.5483L-0.907819 15.0234ZM14.675 16.895L13.8703 16.2117L7.398 23.8347L8.20274 24.5179L14.675 16.895ZM15.6341 20.0232V19.1964H5.63414V20.0232H15.6341ZM10.6341 24.1964H12.2845V14.1964H10.6341V24.1964ZM7.28449 19.1964V19.9805H17.2845V19.1964H7.28449ZM9.02754 16.1867L8.18193 16.9127L14.6958 24.5002L15.5414 23.7742L9.02754 16.1867ZM8.35225 25.6726C10.2078 26.9668 12.6699 26.9667 14.5254 25.6726L8.80473 17.4706C10.3862 16.3675 12.4915 16.3674 14.0731 17.4706L8.35225 25.6726ZM14.5232 25.6742L14.8519 25.4451L9.13571 17.24L8.80695 17.469L14.5232 25.6742ZM7.00021 21.5953L7.3362 28.2332L17.3234 27.7277L16.9874 21.0898L7.00021 21.5953ZM12.3298 22.9805H10.3298V32.9805H12.3298V22.9805ZM15.3125 28.3966L15.8669 21.7587L5.90158 20.9264L5.34715 27.5643L15.3125 28.3966ZM8.02432 25.4439L8.35277 25.6729L14.0726 17.4703L13.7441 17.2412L8.02432 25.4439ZM10.9761 6.45628C10.4461 7.13917 9.59308 7.60314 8.61916 7.61276L8.5204 -2.38675C6.3468 -2.36528 4.36167 -1.33111 3.07637 0.324888L10.9761 6.45628ZM8.83675 7.60587C10.3109 7.52705 11.6458 6.85241 12.5795 5.80437L5.11298 -0.847737C5.90292 -1.73439 7.03949 -2.31231 8.3028 -2.37986L8.83675 7.60587ZM12.5763 5.80795C12.3862 6.02101 12.2122 6.15776 12.0961 6.23782C11.9781 6.31919 11.8897 6.36298 11.8453 6.38299C11.7641 6.4196 11.7633 6.40739 11.8443 6.39561C11.9189 6.38476 12.0042 6.38316 12.0791 6.39182C12.1534 6.40042 12.1721 6.41363 12.1429 6.40061L16.219 -2.73099C14.2432 -3.61292 12.1575 -3.75512 10.4052 -3.5003C8.80218 -3.26718 6.65146 -2.57126 5.11618 -0.851319L12.5763 5.80795ZM12.1423 6.40034C12.1035 6.38299 12.0195 6.3235 11.9795 6.26044C11.9449 6.20589 12.171 6.50231 12.168 7.55178L22.1679 7.58103C22.1754 5.024 21.6053 2.76599 20.4233 0.90295C19.2358 -0.968604 17.653 -2.09064 16.2196 -2.73072L12.1423 6.40034ZM19.5384 3.16406C18.4226 2.56323 17.1396 2.32182 15.8661 2.49036L17.178 12.4039C16.3483 12.5137 15.5154 12.3554 14.7974 11.9688L19.5384 3.16406ZM21.414 6.4135C20.9858 4.38679 19.7713 2.56339 17.9675 1.41351L12.592 9.84579C12.0561 9.50417 11.7383 8.99322 11.6301 8.48078L21.414 6.4135ZM18.0091 1.44028C16.629 0.541206 14.9009 0.313979 13.3173 0.856839L16.5602 10.3164C15.2051 10.781 13.7264 10.5852 12.5504 9.81902L18.0091 1.44028ZM13.3583 0.842987C12.6176 1.08978 11.8503 1.21963 11.0801 1.23065L11.2231 11.2296C13.0244 11.2039 14.8094 10.8999 16.5192 10.3303L13.3583 0.842987ZM10.9236 1.23534C10.8024 1.24087 10.6672 1.21097 10.5313 1.12569L5.21765 9.59714C7.05608 10.7503 9.20038 11.3244 11.3796 11.2249L10.9236 1.23534ZM10.723 1.25219C8.32516 -0.410031 5.125 0.154249 3.39489 2.3677L11.2737 8.52602C9.80839 10.4007 7.07539 10.8914 5.0259 9.47064L10.723 1.25219ZM3.43632 2.31542C2.43808 3.55801 1.85744 5.07007 1.74549 6.63373L11.72 7.34783C11.6893 7.77633 11.5298 8.20795 11.2322 8.5783L3.43632 2.31542ZM6.95714 1.99582C5.88667 1.94772 4.83099 2.19142 3.89756 2.69095L8.61598 11.5078C7.97638 11.8501 7.2486 12.019 6.50832 11.9857L6.95714 1.99582ZM11.2495 6.82941C11.2421 6.69387 11.2385 6.54005 11.2426 6.38363C11.2468 6.22437 11.2584 6.09192 11.2731 5.99253C11.2887 5.88759 11.2998 5.87372 11.28 5.92957C11.2616 5.98142 11.1822 6.19125 10.9731 6.46017L3.07939 0.321003C1.92167 1.8096 1.53628 3.48015 1.38123 4.52591C1.2134 5.65785 1.2277 6.69682 1.26406 7.36932L11.2495 6.82941ZM12.7551 11.6754C12.0158 9.76582 11.6505 8.64477 11.6245 7.71842L1.62843 7.99877C1.7104 10.9216 2.78657 13.6248 3.42945 15.2855L12.7551 11.6754ZM8.53169 12.4814C7.74883 12.804 6.89053 12.9154 6.04431 12.7986L7.41206 2.89253C6.49707 2.7662 5.56888 2.88647 4.72123 3.23582L8.53169 12.4814ZM4.45799 12.3005L5.29752 12.7283L9.83791 3.81845L8.99838 3.39063L4.45799 12.3005ZM5.78782 12.9458C7.56667 13.6235 9.56081 13.3115 11.0458 12.1416L4.85743 4.28642C6.12246 3.28982 7.82733 3.02177 9.34761 3.60089L5.78782 12.9458ZM11.0343 12.1507C12.4872 11.013 13.2162 9.25807 13.1027 7.51975L3.12391 8.17133C3.02916 6.72021 3.63655 5.24242 4.86894 4.27738L11.0343 12.1507ZM13.1029 7.52376L13.0819 7.1977L3.10263 7.84127L3.12365 8.16733L13.1029 7.52376ZM13.0883 7.32066C13.1122 7.92002 12.9705 8.52574 12.6631 9.06827L3.96301 4.13786C3.34186 5.23394 3.04679 6.47633 3.09622 7.71831L13.0883 7.32066ZM5.95748 11.0134C6.05783 11.067 6.1723 11.1358 6.42259 11.2908C6.62718 11.4175 7.00359 11.6534 7.4121 11.8701C8.31743 12.3505 9.68559 12.9107 11.4557 12.8535L11.1324 2.8587C11.3955 2.85019 11.6446 2.88768 11.8505 2.94636C12.0376 2.9997 12.1345 3.05533 12.0989 3.03648C12.0815 3.02721 12.0435 3.00625 11.9718 2.96338C11.8957 2.91788 11.8143 2.86755 11.6874 2.78894C11.4641 2.65068 11.0912 2.41843 10.6686 2.19271L5.95748 11.0134ZM11.3623 12.8556C12.5966 12.8388 13.5766 12.6248 14.4272 12.3555C14.7931 12.2396 15.1455 12.1093 15.3682 12.0281C15.6198 11.9364 15.8073 11.8693 16.008 11.8058L12.992 2.27149C12.569 2.40529 12.2068 2.53684 11.944 2.63262C11.6523 2.73892 11.5256 2.78491 11.4088 2.82188C11.362 2.8367 11.3343 2.84426 11.3195 2.84804C11.3055 2.85159 11.3003 2.85247 11.3002 2.85248C11.2998 2.85256 11.2992 2.85266 11.2981 2.8528C11.297 2.85295 11.2944 2.85328 11.29 2.85369C11.2817 2.85447 11.2613 2.85606 11.2258 2.85655L11.3623 12.8556ZM11.5909 11.1053C11.896 11.3235 12.1989 11.4991 12.2639 11.5376C12.4044 11.621 12.3125 11.5708 12.1926 11.4837C12.0599 11.3873 11.7101 11.1197 11.3634 10.6511C10.9812 10.1344 10.6619 9.45232 10.5561 8.64821L20.4706 7.34371C20.1755 5.10058 18.7187 3.86417 18.0677 3.39156C17.7519 3.16226 17.4435 2.98312 17.3672 2.93784C17.2154 2.84773 17.3012 2.89488 17.4091 2.97206L11.5909 11.1053ZM10.5181 7.77807L10.5048 8.08424L20.4953 8.52003L20.5086 8.21385L10.5181 7.77807ZM10.505 8.07772C10.4288 9.77403 11.1523 11.4569 12.5361 12.5638L18.7827 4.75485C19.9551 5.69267 20.5587 7.10852 20.495 8.52655L10.505 8.07772ZM12.5345 12.5626C13.9522 13.6975 15.8575 14.0525 17.6054 13.4728L14.4573 3.98121C15.9512 3.48572 17.5786 3.79082 18.7843 4.75611L12.5345 12.5626ZM17.6164 13.4691L17.896 13.3756L14.7259 3.89141L14.4463 3.98486L17.6164 13.4691ZM18.2645 13.2361C16.4214 14.0184 14.3338 13.5278 13.0254 12.1181L20.3547 5.3151C18.8496 3.69355 16.462 3.1377 14.3575 4.03094L18.2645 13.2361ZM11.7023 8.36706C11.648 9.14078 11.4714 9.71317 10.9467 11.1933L20.3721 14.5343C20.8722 13.1236 21.5166 11.366 21.6778 9.06613L11.7023 8.36706ZM10.9806 11.1006C10.8663 11.4038 10.7593 11.6288 10.67 11.7855C10.5792 11.945 10.535 11.9841 10.5632 11.9546C10.5974 11.9191 10.7301 11.7924 10.9766 11.677C11.2394 11.5541 11.5191 11.4973 11.7597 11.4973V21.4973C17.1904 21.4973 19.5166 16.8071 20.3382 14.6269L10.9806 11.1006ZM11.7597 11.4973C11.9432 11.4973 12.1779 11.5357 12.4189 11.636C12.651 11.7326 12.803 11.8504 12.8782 11.9199C12.9468 11.9833 12.9461 12.0007 12.8973 11.925C12.8491 11.85 12.777 11.7198 12.6925 11.5214L3.49204 15.4396C4.39716 17.5649 6.76616 21.4973 11.7597 21.4973V11.4973ZM4.72124 24.7195L11.4743 21.6533L7.34004 12.5479L0.586947 15.6142L4.72124 24.7195ZM6.21104 20.9457C8.28612 22.6706 10.4658 22.7726 11.6126 22.8063L11.9067 12.8106C11.722 12.8052 11.6413 12.7992 11.6074 12.7958C11.5809 12.7931 11.643 12.7976 11.7571 12.827C11.8793 12.8585 12.036 12.9121 12.2054 12.9977C12.3747 13.0833 12.5085 13.1767 12.6033 13.2555L6.21104 20.9457ZM11.8149 22.8082C13.6157 22.7883 15.3537 22.2191 16.8143 21.1962L11.0781 13.005C11.2441 12.8888 11.4619 12.8115 11.7044 12.8088L11.8149 22.8082ZM11.9649 21.6913C11.9534 21.6863 12.1479 21.7791 12.677 22.0526C13.1399 22.2919 13.6984 22.5852 14.3236 22.9116C15.4961 23.5236 16.9751 24.2911 17.9579 24.7308L22.0421 15.6029C21.3951 15.3134 20.2146 14.7062 18.9513 14.0468C17.9049 13.5005 16.5192 12.7653 15.9275 12.5099L11.9649 21.6913ZM17.9573 24.7306C17.6831 24.6078 17.2004 24.2558 16.8612 23.593C16.7131 23.3035 16.6217 23.0114 16.5684 22.7356C16.5417 22.5978 16.5234 22.4582 16.5125 22.3166C16.5056 22.2266 16.4908 22.0031 16.509 21.6995L26.491 22.3005C26.5823 20.7828 25.9415 17.3482 22.0427 15.6031L17.9573 24.7306ZM16.5 22V22.0233H26.5V22H16.5ZM16.5 22.0233V28H26.5V22.0233H16.5ZM21.512 23L13.3418 22.9805L13.3179 32.9805L21.488 33L21.512 23ZM18.3151 27.5969L17.7623 20.412L7.79175 21.1791L8.34454 28.364L18.3151 27.5969ZM15.6379 24.8962L15.9454 24.6817L10.2236 16.4804L9.91615 16.6949L15.6379 24.8962ZM15.9367 24.6877C17.6738 23.4812 18.4847 21.4364 18.2143 19.4817L8.30867 20.852C8.08318 19.2219 8.7566 17.4992 10.2323 16.4743L15.9367 24.6877ZM18.2146 19.4834L17.9935 17.8813L8.08737 19.2482L8.30844 20.8503L18.2146 19.4834ZM17.9931 17.8785C17.6446 15.3638 15.5012 13.2001 12.6372 13.2001V23.2001C10.1785 23.2001 8.37825 21.3474 8.08776 19.2511L17.9931 17.8785ZM12.6372 13.2001H10.2401V23.2001H12.6372V13.2001ZM10.2401 13.2001C7.37606 13.2001 5.23272 15.3639 4.88424 17.8783L14.7896 19.2512C14.499 21.3473 12.6989 23.2001 10.2401 23.2001V13.2001ZM4.88395 17.8804L4.66259 19.4825L14.5685 20.8512L14.7898 19.2491L4.88395 17.8804ZM4.6627 19.4818C4.39233 21.4363 5.20325 23.4812 6.94033 24.6877L12.6448 16.4743C14.1205 17.4992 14.7939 19.2219 14.5684 20.852L4.6627 19.4818ZM6.93347 24.6829L7.24121 24.8974L12.9594 16.6936L12.6517 16.4791L6.93347 24.6829ZM5.12881 20.2624L4.35831 27.4473L14.3013 28.5136L15.0718 21.3287L5.12881 20.2624ZM9.3298 22.9805H1.70589V32.9805H9.3298V22.9805ZM6.70443 28.1012C6.72408 27.288 6.69367 25.9859 6.6779 24.9659C6.65927 23.7606 6.66036 22.9182 6.68923 22.5653L-3.27746 21.7498C-3.35457 22.6922 -3.337 24.0793 -3.3209 25.1205C-3.30194 26.3471 -3.27935 27.3088 -3.29266 27.8597L6.70443 28.1012ZM6.70268 22.3366C6.69259 22.6181 6.63468 22.8551 6.5301 23.0877C6.4386 23.2912 6.15549 23.8348 5.45564 24.3083L-0.147452 16.0254C-1.43404 16.8958 -2.17819 18.07 -2.59057 18.9873C-3.01604 19.9336 -3.25468 20.9675 -3.29091 21.9785L6.70268 22.3366Z" fill="white" mask="url(#path-1-inside-1_3598_1324)"/>
</svg>
