<svg width="31" height="23" viewBox="0 0 31 23" fill="none" xmlns="http://www.w3.org/2000/svg">
<mask id="path-1-inside-1_3598_1318" fill="white">
<path d="M15.8459 0C14.6881 0 13.5324 0.213345 12.6136 0.678221L2.19077 5.96563C1.73196 6.1979 1.37288 6.46114 1.11348 6.78253C0.853816 7.10426 0.689801 7.50479 0.689801 7.9232C0.689801 7.9755 0.696827 8.02609 0.70196 8.07736V14.105C0.298278 14.2777 0 14.7557 0 15.3227C0 16.034 0.469617 16.6176 1.02894 16.6176C1.58826 16.6176 2.0457 16.034 2.0457 15.3227C2.0457 14.7557 1.75658 14.2777 1.3556 14.105V9.31062C1.58392 9.5274 1.8571 9.71218 2.19078 9.88114L6.46376 12.0548V18.2056C6.46376 18.9599 6.78476 19.6347 7.28677 20.2097C7.78881 20.7847 8.48809 21.2808 9.33248 21.6897C11.0215 22.5069 13.3115 23 15.8449 23C18.3783 23 20.6789 22.5069 22.3695 21.6897C23.215 21.2812 23.9005 20.8001 24.403 20.2252C24.9056 19.6502 25.2261 18.9603 25.2261 18.2056V12.0548L29.499 9.88114C29.9578 9.64887 30.3169 9.37015 30.5763 9.04876C30.836 8.72703 31 8.34198 31 7.92359C31 7.50482 30.836 7.10428 30.5763 6.78291C30.3167 6.46118 29.9578 6.19829 29.499 5.96602L19.0762 0.678608C18.1578 0.213732 17.0018 0.000388457 15.8439 0.000388457L15.8459 0ZM15.8459 0.832378C16.9375 0.832378 18.0307 1.04125 18.836 1.44901L29.2589 6.73642C29.6617 6.94047 29.9471 7.17171 30.1184 7.38402C30.2897 7.59634 30.3362 7.77595 30.3362 7.92357C30.3362 8.07119 30.2897 8.23533 30.1184 8.44764C29.9471 8.65995 29.6617 8.89118 29.2589 9.09524L18.836 14.3826C17.225 15.1982 14.4668 15.1982 12.8561 14.3826L6.92458 11.3766H6.92431C6.91242 11.3707 6.90026 11.3656 6.8881 11.3614L2.43354 9.09516C2.03067 8.89111 1.74533 8.65987 1.57401 8.44756C1.40269 8.23524 1.35622 8.07112 1.35622 7.92349H1.35595C1.35622 7.91317 1.35622 7.90285 1.35595 7.89287C1.36244 7.75144 1.41459 7.58145 1.57374 7.38429C1.74505 7.17198 2.03038 6.94074 2.43327 6.73669L12.8561 1.44928C13.6614 1.04152 14.7546 0.832649 15.8463 0.832649L15.8459 0.832378ZM24.574 12.3783V18.2053C24.574 18.6615 24.3827 19.1196 23.9688 19.5927C23.5548 20.0658 22.9223 20.5197 22.1286 20.903C20.542 21.67 18.312 22.1518 15.8461 22.1518C13.3803 22.1518 11.1484 21.67 9.56364 20.903C8.77113 20.5197 8.14913 20.0658 7.73569 19.5927C7.32254 19.1195 7.13043 18.6619 7.13043 18.2053V12.3934L12.6139 15.1682C14.4502 16.098 17.242 16.098 19.078 15.1682L24.5737 12.3779L24.574 12.3783ZM1.02916 14.8603C1.22992 14.8603 1.38015 15.0613 1.38015 15.3228C1.38015 15.5843 1.22992 15.7853 1.02916 15.7853C0.828401 15.7853 0.666005 15.5843 0.666005 15.3228C0.666005 15.0613 0.828401 14.8603 1.02916 14.8603Z"/>
</mask>
<path d="M15.8459 0C14.6881 0 13.5324 0.213345 12.6136 0.678221L2.19077 5.96563C1.73196 6.1979 1.37288 6.46114 1.11348 6.78253C0.853816 7.10426 0.689801 7.50479 0.689801 7.9232C0.689801 7.9755 0.696827 8.02609 0.70196 8.07736V14.105C0.298278 14.2777 0 14.7557 0 15.3227C0 16.034 0.469617 16.6176 1.02894 16.6176C1.58826 16.6176 2.0457 16.034 2.0457 15.3227C2.0457 14.7557 1.75658 14.2777 1.3556 14.105V9.31062C1.58392 9.5274 1.8571 9.71218 2.19078 9.88114L6.46376 12.0548V18.2056C6.46376 18.9599 6.78476 19.6347 7.28677 20.2097C7.78881 20.7847 8.48809 21.2808 9.33248 21.6897C11.0215 22.5069 13.3115 23 15.8449 23C18.3783 23 20.6789 22.5069 22.3695 21.6897C23.215 21.2812 23.9005 20.8001 24.403 20.2252C24.9056 19.6502 25.2261 18.9603 25.2261 18.2056V12.0548L29.499 9.88114C29.9578 9.64887 30.3169 9.37015 30.5763 9.04876C30.836 8.72703 31 8.34198 31 7.92359C31 7.50482 30.836 7.10428 30.5763 6.78291C30.3167 6.46118 29.9578 6.19829 29.499 5.96602L19.0762 0.678608C18.1578 0.213732 17.0018 0.000388457 15.8439 0.000388457L15.8459 0ZM15.8459 0.832378C16.9375 0.832378 18.0307 1.04125 18.836 1.44901L29.2589 6.73642C29.6617 6.94047 29.9471 7.17171 30.1184 7.38402C30.2897 7.59634 30.3362 7.77595 30.3362 7.92357C30.3362 8.07119 30.2897 8.23533 30.1184 8.44764C29.9471 8.65995 29.6617 8.89118 29.2589 9.09524L18.836 14.3826C17.225 15.1982 14.4668 15.1982 12.8561 14.3826L6.92458 11.3766H6.92431C6.91242 11.3707 6.90026 11.3656 6.8881 11.3614L2.43354 9.09516C2.03067 8.89111 1.74533 8.65987 1.57401 8.44756C1.40269 8.23524 1.35622 8.07112 1.35622 7.92349H1.35595C1.35622 7.91317 1.35622 7.90285 1.35595 7.89287C1.36244 7.75144 1.41459 7.58145 1.57374 7.38429C1.74505 7.17198 2.03038 6.94074 2.43327 6.73669L12.8561 1.44928C13.6614 1.04152 14.7546 0.832649 15.8463 0.832649L15.8459 0.832378ZM24.574 12.3783V18.2053C24.574 18.6615 24.3827 19.1196 23.9688 19.5927C23.5548 20.0658 22.9223 20.5197 22.1286 20.903C20.542 21.67 18.312 22.1518 15.8461 22.1518C13.3803 22.1518 11.1484 21.67 9.56364 20.903C8.77113 20.5197 8.14913 20.0658 7.73569 19.5927C7.32254 19.1195 7.13043 18.6619 7.13043 18.2053V12.3934L12.6139 15.1682C14.4502 16.098 17.242 16.098 19.078 15.1682L24.5737 12.3779L24.574 12.3783ZM1.02916 14.8603C1.22992 14.8603 1.38015 15.0613 1.38015 15.3228C1.38015 15.5843 1.22992 15.7853 1.02916 15.7853C0.828401 15.7853 0.666005 15.5843 0.666005 15.3228C0.666005 15.0613 0.828401 14.8603 1.02916 14.8603Z" fill="white"/>
<path d="M15.8459 0L16.8358 4.90101L15.8459 -5V0ZM12.6136 0.678221L10.3562 -3.78318L10.3516 -3.78084L12.6136 0.678221ZM2.19077 5.96563L4.44908 10.4266L4.4528 10.4247L2.19077 5.96563ZM1.11348 6.78253L-2.77732 3.6422L-2.77737 3.64226L1.11348 6.78253ZM0.70196 8.07736H5.70196V7.82763L5.67708 7.57915L0.70196 8.07736ZM0.70196 14.105L2.66894 18.7018L5.70196 17.404V14.105H0.70196ZM1.3556 14.105H-3.6444V17.3952L-0.62264 18.697L1.3556 14.105ZM1.3556 9.31062L4.79828 5.68461L-3.6444 -2.33123V9.31062H1.3556ZM2.19078 9.88114L4.45785 5.42463L4.44942 5.42035L2.19078 9.88114ZM6.46376 12.0548H11.4638V8.98861L8.73083 7.59834L6.46376 12.0548ZM7.28677 20.2097L3.52038 23.4982L3.5204 23.4982L7.28677 20.2097ZM9.33248 21.6897L7.15359 26.1899L7.15477 26.1905L9.33248 21.6897ZM22.3695 21.6897L20.1946 17.1875L20.1935 17.188L22.3695 21.6897ZM24.403 20.2252L20.6384 16.9346L20.6384 16.9347L24.403 20.2252ZM25.2261 12.0548L22.959 7.59834L20.2261 8.98861V12.0548H25.2261ZM29.499 9.88114L27.2407 5.42018L27.232 5.42463L29.499 9.88114ZM30.5763 9.04876L34.4671 12.1891L34.4672 12.189L30.5763 9.04876ZM30.5763 6.78291L26.6855 9.92318L26.6872 9.92532L30.5763 6.78291ZM29.499 5.96602L27.237 10.4251L27.2407 10.4269L29.499 5.96602ZM19.0762 0.678608L21.3382 -3.78045L21.3342 -3.78244L19.0762 0.678608ZM15.8439 0.000388457L14.854 -4.90062L15.8439 5.00039V0.000388457ZM15.8459 0.832378V-4.16762H-0.455127L13.0423 4.97245L15.8459 0.832378ZM18.836 1.44901L21.098 -3.01005L21.0948 -3.01168L18.836 1.44901ZM29.2589 6.73642L26.9968 11.1955L26.9997 11.1969L29.2589 6.73642ZM30.1184 7.38402L34.0096 4.24425L34.0095 4.24409L30.1184 7.38402ZM30.1184 8.44764L26.2272 5.30784L26.2271 5.30786L30.1184 8.44764ZM29.2589 9.09524L26.9997 4.63471L26.9968 4.63618L29.2589 9.09524ZM18.836 14.3826L21.0943 18.8436L21.098 18.8417L18.836 14.3826ZM12.8561 14.3826L10.5958 18.8426L10.5975 18.8435L12.8561 14.3826ZM6.92458 11.3766L9.18485 6.91664L8.11923 6.37658H6.92458V11.3766ZM6.92431 11.3766L4.71695 15.863L5.76087 16.3766H6.92431V11.3766ZM6.8881 11.3614L4.62087 15.8179L4.94068 15.9806L5.28044 16.0959L6.8881 11.3614ZM2.43354 9.09516L4.70078 4.63873L4.69274 4.63466L2.43354 9.09516ZM1.57401 8.44756L-2.31724 11.5873L-2.31712 11.5875L1.57401 8.44756ZM1.35622 7.92349H6.35622V2.92349H1.35622V7.92349ZM1.35595 7.92349L-3.64233 7.79268L-3.77662 12.9235H1.35595V7.92349ZM1.35595 7.89287L-3.6388 7.66384L-3.64715 7.84596L-3.64221 8.0282L1.35595 7.89287ZM1.57374 7.38429L5.4644 10.5248L5.46499 10.5241L1.57374 7.38429ZM2.43327 6.73669L4.69241 11.1972L4.6953 11.1957L2.43327 6.73669ZM12.8561 1.44928L10.5973 -3.01141L10.5941 -3.00978L12.8561 1.44928ZM15.8463 0.832649V5.83265H32.1473L18.6498 -3.30742L15.8463 0.832649ZM24.574 12.3783H29.574V10.6498L28.5065 9.29033L24.574 12.3783ZM23.9688 19.5927L20.2057 16.3003L20.2057 16.3004L23.9688 19.5927ZM22.1286 20.903L19.9538 16.4008L19.9526 16.4014L22.1286 20.903ZM9.56364 20.903L11.7419 16.4025L11.7408 16.4019L9.56364 20.903ZM7.73569 19.5927L3.96945 22.8814L3.97062 22.8827L7.73569 19.5927ZM7.13043 12.3934L9.38801 7.93205L2.13043 4.25948V12.3934H7.13043ZM12.6139 15.1682L14.8726 10.7074L14.8715 10.7069L12.6139 15.1682ZM19.078 15.1682L21.3369 19.6288L21.3416 19.6265L19.078 15.1682ZM24.5737 12.3779L28.5062 9.28989L25.9707 6.061L22.3101 7.91961L24.5737 12.3779ZM15.8459 -5C14.1514 -5 12.1666 -4.69919 10.3562 -3.78317L14.8711 5.13962C14.8619 5.14427 14.9421 5.104 15.1357 5.06466C15.3243 5.02633 15.5668 5 15.8459 5V-5ZM10.3516 -3.78084L-0.0712622 1.50657L4.4528 10.4247L14.8757 5.13728L10.3516 -3.78084ZM-0.0675429 1.50469C-0.924724 1.93863 -1.93426 2.59766 -2.77732 3.6422L5.00429 9.92285C4.68001 10.3246 4.38865 10.4572 4.44908 10.4266L-0.0675429 1.50469ZM-2.77737 3.64226C-3.64088 4.71216 -4.3102 6.19304 -4.3102 7.9232H5.6898C5.6898 8.81655 5.34851 9.49635 5.00433 9.9228L-2.77737 3.64226ZM-4.3102 7.9232C-4.3102 8.16732 -4.29389 8.36411 -4.28424 8.46713C-4.27943 8.51842 -4.2747 8.56195 -4.27314 8.57645C-4.27049 8.60088 -4.27194 8.58775 -4.27316 8.57556L5.67708 7.57915C5.67329 7.54133 5.66904 7.50265 5.66892 7.50154C5.66773 7.4905 5.66974 7.50851 5.67215 7.53421C5.67701 7.58604 5.6898 7.73139 5.6898 7.9232H-4.3102ZM-4.29804 8.07736V14.105H5.70196V8.07736H-4.29804ZM-1.26502 9.50814C-3.86367 10.6201 -5 13.1714 -5 15.3227H5C5 16.3399 4.46023 17.9353 2.66894 18.7018L-1.26502 9.50814ZM-5 15.3227C-5 17.6825 -3.28659 21.6176 1.02894 21.6176V11.6176C2.57946 11.6176 3.66286 12.4287 4.2133 13.1187C4.76759 13.8135 5 14.6028 5 15.3227H-5ZM1.02894 21.6176C5.41045 21.6176 7.0457 17.5991 7.0457 15.3227H-2.9543C-2.9543 14.6355 -2.73882 13.854 -2.18626 13.15C-1.63147 12.4431 -0.535818 11.6176 1.02894 11.6176V21.6176ZM7.0457 15.3227C7.0457 13.2447 5.97686 10.6516 3.33383 9.51298L-0.62264 18.697C-2.4637 17.9039 -2.9543 16.2666 -2.9543 15.3227H7.0457ZM6.3556 14.105V9.31062H-3.6444V14.105H6.3556ZM-2.08709 12.9366C-1.43319 13.5575 -0.73383 14.0047 -0.067851 14.3419L4.44942 5.42035C4.44802 5.41965 4.60103 5.49733 4.79828 5.68461L-2.08709 12.9366ZM-0.076283 14.3376L4.1967 16.5113L8.73083 7.59834L4.45785 5.42463L-0.076283 14.3376ZM1.46376 12.0548V18.2056H11.4638V12.0548H1.46376ZM1.46376 18.2056C1.46376 20.4685 2.44489 22.2664 3.52038 23.4982L11.0532 16.9212C11.1246 17.003 11.4638 17.4512 11.4638 18.2056H1.46376ZM3.5204 23.4982C4.58136 24.7133 5.88708 25.5767 7.15359 26.1899L11.5114 17.1894C11.3126 17.0931 11.1808 17.0105 11.1026 16.9542C11.0239 16.8975 11.0183 16.8812 11.0531 16.9211L3.5204 23.4982ZM7.15477 26.1905C9.65857 27.402 12.7242 28 15.8449 28V18C13.8988 18 12.3845 17.6118 11.5102 17.1888L7.15477 26.1905ZM15.8449 28C18.9626 28 22.0388 27.403 24.5456 26.1913L20.1935 17.188C19.3189 17.6108 17.7941 18 15.8449 18V28ZM24.5445 26.1918C25.7974 25.5866 27.0971 24.7406 28.1677 23.5156L20.6384 16.9347C20.7039 16.8597 20.6326 16.9759 20.1946 17.1875L24.5445 26.1918ZM28.1677 23.5157C29.2683 22.2565 30.2261 20.4413 30.2261 18.2056H20.2261C20.2261 17.4792 20.543 17.0439 20.6384 16.9346L28.1677 23.5157ZM30.2261 18.2056V12.0548H20.2261V18.2056H30.2261ZM27.4931 16.5113L31.7661 14.3376L27.232 5.42463L22.959 7.59834L27.4931 16.5113ZM31.7573 14.3421C32.7085 13.8606 33.6746 13.171 34.4671 12.1891L26.6855 5.90843C26.9592 5.56934 27.2072 5.43715 27.2407 5.42019L31.7573 14.3421ZM34.4672 12.189C35.298 11.1596 36 9.69805 36 7.92359H26C26 6.98591 26.3739 6.29447 26.6855 5.90849L34.4672 12.189ZM36 7.92359C36 6.19391 35.3313 4.71206 34.4654 3.64051L26.6872 9.92532C26.3407 9.49651 26 8.81573 26 7.92359H36ZM34.4672 3.64264C33.6236 2.59739 32.614 1.93876 31.7574 1.50511L27.2407 10.4269C27.3017 10.4578 27.0098 10.325 26.6855 9.92318L34.4672 3.64264ZM31.7611 1.50696L21.3382 -3.78045L16.8141 5.13767L27.237 10.4251L31.7611 1.50696ZM21.3342 -3.78244C19.5236 -4.69895 17.538 -4.99961 15.8439 -4.99961V5.00039C16.1231 5.00039 16.3657 5.02673 16.5543 5.06506C16.748 5.10442 16.8279 5.14463 16.8181 5.13966L21.3342 -3.78244ZM16.8339 4.9014L16.8358 4.90101L14.8559 -4.90101L14.854 -4.90062L16.8339 4.9014ZM15.8459 5.83238C16.0821 5.83238 16.2952 5.85583 16.4575 5.88864C16.6315 5.92381 16.6603 5.95182 16.5771 5.90969L21.0948 -3.01168C19.3916 -3.87414 17.4657 -4.16762 15.8459 -4.16762V5.83238ZM16.5739 5.90807L26.9968 11.1955L31.5209 2.27736L21.098 -3.01005L16.5739 5.90807ZM26.9997 11.1969C26.9494 11.1715 26.8549 11.1185 26.7309 11.0233C26.6124 10.9324 26.4283 10.7731 26.2273 10.5239L34.0095 4.24409C33.2906 3.35314 32.3869 2.71601 31.518 2.27592L26.9997 11.1969ZM26.2271 10.5238C26.0158 10.2618 25.7771 9.88922 25.5983 9.40252C25.415 8.90367 25.3362 8.39802 25.3362 7.92357H35.3362C35.3362 6.5455 34.8412 5.27481 34.0096 4.24425L26.2271 10.5238ZM25.3362 7.92357C25.3362 7.43253 25.4206 6.89812 25.6238 6.36904C25.8152 5.87043 26.0582 5.51721 26.2272 5.30784L34.0096 11.5874C34.7732 10.6411 35.3362 9.39831 35.3362 7.92357H25.3362ZM26.2271 5.30786C26.4283 5.05859 26.6124 4.89931 26.7309 4.80834C26.8549 4.71314 26.9495 4.66013 26.9997 4.63471L31.518 13.5558C32.3869 13.1157 33.2906 12.4785 34.0096 11.5874L26.2271 5.30786ZM26.9968 4.63618L16.5739 9.92359L21.098 18.8417L31.5209 13.5543L26.9968 4.63618ZM16.5777 9.92169C16.667 9.87648 16.6431 9.90348 16.469 9.93825C16.3069 9.97064 16.0904 9.99429 15.8459 9.99429C15.6015 9.99429 15.385 9.97064 15.223 9.93827C15.049 9.90351 15.0252 9.87654 15.1147 9.92185L10.5975 18.8435C12.3125 19.7118 14.2434 19.9943 15.8459 19.9943C17.4485 19.9943 19.3794 19.7117 21.0943 18.8436L16.5777 9.92169ZM15.1164 9.9227L9.18485 6.91664L4.6643 15.8365L10.5958 18.8426L15.1164 9.9227ZM6.92458 6.37658H6.92431V16.3766H6.92458V6.37658ZM9.13166 6.8902C8.95745 6.8045 8.74418 6.7113 8.49575 6.62695L5.28044 16.0959C5.05634 16.0198 4.86738 15.937 4.71695 15.863L9.13166 6.8902ZM9.15533 6.90503L4.70077 4.63874L0.166309 13.5516L4.62087 15.8179L9.15533 6.90503ZM4.69274 4.63466C4.74294 4.66009 4.83752 4.71309 4.9615 4.80827C5.07999 4.89922 5.26405 5.05845 5.46513 5.30763L-2.31712 11.5875C-1.59817 12.4784 -0.694556 13.1156 0.174345 13.5557L4.69274 4.63466ZM5.46526 5.30779C5.63416 5.51711 5.87713 5.87033 6.06859 6.36895C6.27176 6.89806 6.35622 7.43248 6.35622 7.92349H-3.64378C-3.64378 9.39826 -3.08081 10.641 -2.31724 11.5873L5.46526 5.30779ZM1.35622 2.92349H1.35595V12.9235H1.35622V2.92349ZM6.35424 8.05431C6.35675 7.95832 6.35687 7.8592 6.35412 7.75754L-3.64221 8.0282C-3.64443 7.94649 -3.64431 7.86802 -3.64233 7.79268L6.35424 8.05431ZM6.35071 8.12189C6.32921 8.59069 6.23102 9.06135 6.0535 9.50762C5.87975 9.9444 5.66025 10.2822 5.4644 10.5248L-2.31693 4.24379C-3.07173 5.17889 -3.5785 6.3488 -3.6388 7.66384L6.35071 8.12189ZM5.46499 10.5241C5.26386 10.7733 5.07974 10.9326 4.96123 11.0236C4.83721 11.1188 4.74261 11.1718 4.69241 11.1972L0.174136 2.27616C-0.694785 2.71625 -1.5985 3.35342 -2.31751 4.24452L5.46499 10.5241ZM4.6953 11.1957L15.1182 5.90834L10.5941 -3.00978L0.171239 2.27763L4.6953 11.1957ZM15.115 5.90996C15.0318 5.95207 15.0606 5.92407 15.2346 5.88891C15.3968 5.8561 15.6099 5.83265 15.8463 5.83265V-4.16735C14.2264 -4.16735 12.3005 -3.87386 10.5973 -3.01141L15.115 5.90996ZM18.6498 -3.30742L18.6494 -3.30769L13.0423 4.97245L13.0427 4.97272L18.6498 -3.30742ZM19.574 12.3783V18.2053H29.574V12.3783H19.574ZM19.574 18.2053C19.574 17.1301 20.0621 16.4645 20.2057 16.3003L27.7318 22.8851C28.7033 21.7746 29.574 20.193 29.574 18.2053H19.574ZM20.2057 16.3004C20.2558 16.2431 20.2909 16.2109 20.303 16.2002C20.3154 16.1892 20.3115 16.1939 20.2871 16.2113C20.2357 16.2479 20.1279 16.3167 19.9538 16.4008L24.3035 25.4052C25.496 24.8292 26.7457 24.0121 27.7318 22.885L20.2057 16.3004ZM19.9526 16.4014C19.1876 16.7712 17.7355 17.1518 15.8461 17.1518V27.1518C18.8885 27.1518 21.8963 26.5689 24.3047 25.4046L19.9526 16.4014ZM15.8461 17.1518C13.9555 17.1518 12.5028 16.7707 11.7419 16.4025L7.38536 25.4036C9.794 26.5694 12.8051 27.1518 15.8461 27.1518V17.1518ZM11.7408 16.4019C11.5756 16.322 11.4754 16.2573 11.4293 16.224C11.3797 16.1883 11.4171 16.2069 11.5008 16.3027L3.97062 22.8827C4.94128 23.9935 6.1683 24.8149 7.38647 25.4041L11.7408 16.4019ZM11.5019 16.304C11.6397 16.4618 12.1304 17.1264 12.1304 18.2053H2.13043C2.13043 20.1974 3.00537 21.7773 3.96945 22.8814L11.5019 16.304ZM12.1304 18.2053V12.3934H2.13043V18.2053H12.1304ZM4.87286 16.8547L10.3564 19.6295L14.8715 10.7069L9.38801 7.93205L4.87286 16.8547ZM10.3553 19.629C12.1217 20.5234 14.0892 20.8655 15.8461 20.8655C17.6029 20.8655 19.5705 20.5234 21.3369 19.6288L16.8191 10.7076C16.7495 10.7428 16.4032 10.8655 15.8461 10.8655C15.289 10.8655 14.9425 10.7428 14.8726 10.7074L10.3553 19.629ZM21.3416 19.6265L26.8373 16.8361L22.3101 7.91961L16.8144 10.7099L21.3416 19.6265ZM20.6412 15.4658L20.6415 15.4663L28.5065 9.29033L28.5062 9.28989L20.6412 15.4658ZM1.02916 19.8603C-0.686788 19.8603 -1.98789 18.9626 -2.70946 18.0076C-3.39762 17.0967 -3.61985 16.111 -3.61985 15.3228H6.38015C6.38015 13.6904 5.20165 9.86032 1.02916 9.86032V19.8603ZM-3.61985 15.3228C-3.61985 14.5346 -3.39762 13.5489 -2.70946 12.638C-1.98789 11.683 -0.686788 10.7853 1.02916 10.7853V20.7853C5.20165 20.7853 6.38015 16.9552 6.38015 15.3228H-3.61985ZM1.02916 10.7853C2.706 10.7853 3.9757 11.6437 4.69155 12.5473C5.39467 13.4349 5.66601 14.4426 5.66601 15.3228H-4.33399C-4.33399 17.197 -2.95626 20.7853 1.02916 20.7853V10.7853ZM5.66601 15.3228C5.66601 16.203 5.39467 17.2107 4.69155 18.0982C3.9757 19.0019 2.706 19.8603 1.02916 19.8603V9.86032C-2.95626 9.86032 -4.33399 13.4486 -4.33399 15.3228H5.66601Z" fill="white" mask="url(#path-1-inside-1_3598_1318)"/>
</svg>
