<svg width="24" height="27" viewBox="0 0 24 27" fill="none" xmlns="http://www.w3.org/2000/svg">
<mask id="path-1-inside-1_3093_20225" fill="white">
<path d="M1.6151 0C0.724706 0 0 0.874317 0 1.94803V25.0513C0 26.125 0.724701 27 1.6151 27H10.537H12H13.463H22.3849C23.2753 27 24 26.125 24 25.0513V1.94803C24 0.874317 23.2753 0 22.3849 0H1.6151ZM1.6151 0.642857H22.3849C22.9888 0.642857 23.4667 1.21905 23.4667 1.94803V25.0513C23.4667 25.7803 22.9888 26.3571 22.3849 26.3571H13.3333H13.0667H12H10.9333H10.6667H1.6151C1.01119 26.3571 0.533333 25.7803 0.533333 25.0513V1.94803C0.533333 1.21905 1.01119 0.642857 1.6151 0.642857Z"/>
</mask>
<path d="M1.6151 -2C-0.714486 -2 -2 0.137107 -2 1.94803H2C2 1.85377 2.03304 1.82407 2.01335 1.84783C2.00161 1.86199 1.96673 1.89878 1.89748 1.93418C1.82468 1.9714 1.7264 2 1.6151 2V-2ZM-2 1.94803V25.0513H2V1.94803H-2ZM-2 25.0513C-2 26.8613 -0.715247 29 1.6151 29V25C1.72665 25 1.82509 25.0287 1.89792 25.0659C1.96719 25.1014 2.00199 25.1381 2.01363 25.1522C2.03309 25.1757 2 25.1456 2 25.0513H-2ZM1.6151 29H10.537V25H1.6151V29ZM10.537 29H12V25H10.537V29ZM12 29H13.463V25H12V29ZM13.463 29H22.3849V25H13.463V29ZM22.3849 29C24.7152 29 26 26.8613 26 25.0513H22C22 25.1456 21.9669 25.1757 21.9864 25.1522C21.998 25.1381 22.0328 25.1014 22.1021 25.0659C22.1749 25.0287 22.2733 25 22.3849 25V29ZM26 25.0513V1.94803H22V25.0513H26ZM26 1.94803C26 0.137107 24.7145 -2 22.3849 -2V2C22.2736 2 22.1753 1.9714 22.1025 1.93418C22.0333 1.89878 21.9984 1.86199 21.9867 1.84783C21.967 1.82407 22 1.85377 22 1.94803H26ZM22.3849 -2H1.6151V2H22.3849V-2ZM1.6151 2.64286H22.3849V-1.35714H1.6151V2.64286ZM22.3849 2.64286C22.0123 2.64286 21.7439 2.457 21.6125 2.29849C21.4877 2.14792 21.4667 2.01346 21.4667 1.94803H25.4667C25.4667 0.481947 24.4281 -1.35714 22.3849 -1.35714V2.64286ZM21.4667 1.94803V25.0513H25.4667V1.94803H21.4667ZM21.4667 25.0513C21.4667 24.986 21.4876 24.8519 21.6121 24.7017C21.7431 24.5436 22.0115 24.3571 22.3849 24.3571V28.3571C24.4292 28.3571 25.4667 26.5161 25.4667 25.0513H21.4667ZM22.3849 24.3571H13.3333V28.3571H22.3849V24.3571ZM13.3333 24.3571H13.0667V28.3571H13.3333V24.3571ZM13.0667 24.3571H12V28.3571H13.0667V24.3571ZM12 24.3571H10.9333V28.3571H12V24.3571ZM10.9333 24.3571H10.6667V28.3571H10.9333V24.3571ZM10.6667 24.3571H1.6151V28.3571H10.6667V24.3571ZM1.6151 24.3571C1.9885 24.3571 2.25689 24.5436 2.3879 24.7017C2.51236 24.8519 2.53333 24.986 2.53333 25.0513H-1.46667C-1.46667 26.5161 -0.429213 28.3571 1.6151 28.3571V24.3571ZM2.53333 25.0513V1.94803H-1.46667V25.0513H2.53333ZM2.53333 1.94803C2.53333 2.01346 2.5123 2.14792 2.38748 2.29849C2.25608 2.457 1.98769 2.64286 1.6151 2.64286V-1.35714C-0.428092 -1.35714 -1.46667 0.481947 -1.46667 1.94803H2.53333Z" fill="white" mask="url(#path-1-inside-1_3093_20225)"/>
<mask id="path-3-inside-2_3093_20225" fill="white">
<path d="M11.9934 4.97467C11.7727 4.97882 11.5964 5.19768 11.5996 5.46372V7.91084C10.4681 8.14225 9.59961 9.33292 9.59961 10.7604C9.59961 12.1878 10.4681 13.3779 11.5996 13.6093V23.7713C11.5996 24.4234 12.3996 24.4234 12.3996 23.7713V13.6093C13.5311 13.3779 14.3996 12.1878 14.3996 10.7604C14.3996 9.33292 13.5311 8.14225 12.3996 7.91084V5.46372C12.4028 5.19178 12.219 4.97042 11.9934 4.97467ZM11.9996 8.83181C12.888 8.83181 13.5996 9.68955 13.5996 10.7604C13.5996 11.8312 12.888 12.689 11.9996 12.689C11.1112 12.689 10.3996 11.8312 10.3996 10.7604C10.3996 9.68955 11.1112 8.83181 11.9996 8.83181Z"/>
</mask>
<path d="M11.9934 4.97467L12.0309 6.97432L12.031 6.97431L11.9934 4.97467ZM11.5996 5.46372H13.5996V5.45182L13.5995 5.43992L11.5996 5.46372ZM11.5996 7.91084L12.0003 9.87029L13.5996 9.54321V7.91084H11.5996ZM11.5996 13.6093H13.5996V11.977L12.0004 11.6499L11.5996 13.6093ZM12.3996 13.6093L11.9988 11.6499L10.3996 11.977V13.6093H12.3996ZM12.3996 7.91084H10.3996V9.54321L11.9989 9.87029L12.3996 7.91084ZM12.3996 5.46372L10.3998 5.43993L10.3996 5.45182V5.46372H12.3996ZM11.9558 2.97502C10.3062 3.00601 9.58782 4.48444 9.59975 5.48751L13.5995 5.43992C13.6031 5.74764 13.5049 6.08393 13.2704 6.37523C13.0329 6.6702 12.6058 6.96352 12.0309 6.97432L11.9558 2.97502ZM9.59961 5.46372V7.91084H13.5996V5.46372H9.59961ZM11.1989 5.9514C8.91963 6.41754 7.59961 8.62322 7.59961 10.7604H11.5996C11.5996 10.4481 11.6954 10.2008 11.8061 10.0449C11.8604 9.96837 11.912 9.92241 11.9479 9.89753C11.9656 9.88532 11.9789 9.87851 11.9873 9.87488C11.9954 9.87134 11.9996 9.87043 12.0003 9.87029L11.1989 5.9514ZM7.59961 10.7604C7.59961 12.8981 8.92014 15.1026 11.1988 15.5687L12.0004 11.6499C11.9996 11.6497 11.9953 11.6488 11.9871 11.6452C11.9787 11.6416 11.9653 11.6347 11.9477 11.6225C11.9117 11.5976 11.8602 11.5517 11.8059 11.4753C11.6954 11.3196 11.5996 11.0726 11.5996 10.7604H7.59961ZM9.59961 13.6093V23.7713H13.5996V13.6093H9.59961ZM9.59961 23.7713C9.59961 24.3522 9.78533 24.9843 10.2528 25.4923C10.7132 25.9927 11.3503 26.2604 11.9996 26.2604C12.6489 26.2604 13.286 25.9927 13.7464 25.4923C14.2139 24.9843 14.3996 24.3522 14.3996 23.7713H10.3996C10.3996 23.5166 10.4853 23.129 10.8028 22.7839C11.1132 22.4466 11.5503 22.2604 11.9996 22.2604C12.4489 22.2604 12.886 22.4466 13.1964 22.7839C13.5139 23.129 13.5996 23.5166 13.5996 23.7713H9.59961ZM14.3996 23.7713V13.6093H10.3996V23.7713H14.3996ZM12.8004 15.5687C15.0791 15.1026 16.3996 12.8981 16.3996 10.7604H12.3996C12.3996 11.0726 12.3039 11.3196 12.1933 11.4753C12.139 11.5517 12.0875 11.5976 12.0515 11.6225C12.0339 11.6347 12.0205 11.6416 12.0121 11.6452C12.0039 11.6488 11.9996 11.6497 11.9988 11.6499L12.8004 15.5687ZM16.3996 10.7604C16.3996 8.62322 15.0796 6.41754 12.8003 5.9514L11.9989 9.87029C11.9996 9.87043 12.0038 9.87134 12.012 9.87488C12.0203 9.87851 12.0336 9.88532 12.0513 9.89753C12.0872 9.92241 12.1388 9.96837 12.1931 10.0449C12.3038 10.2008 12.3996 10.4481 12.3996 10.7604H16.3996ZM14.3996 7.91084V5.46372H10.3996V7.91084H14.3996ZM14.3995 5.48751C14.4116 4.46996 13.6587 2.94295 11.9557 2.97502L12.031 6.97431C11.4408 6.98543 10.9932 6.69374 10.7439 6.39359C10.4984 6.09814 10.396 5.75376 10.3998 5.43993L14.3995 5.48751ZM11.9996 10.8318C11.8933 10.8318 11.7959 10.8049 11.7201 10.7665C11.6479 10.7298 11.609 10.6902 11.5935 10.6715C11.5658 10.6381 11.5996 10.6609 11.5996 10.7604H15.5996C15.5996 8.95088 14.326 6.83181 11.9996 6.83181V10.8318ZM11.5996 10.7604C11.5996 10.8599 11.5658 10.8826 11.5935 10.8492C11.609 10.8305 11.6479 10.7909 11.7201 10.7543C11.7959 10.7159 11.8933 10.689 11.9996 10.689V14.689C14.326 14.689 15.5996 12.5699 15.5996 10.7604H11.5996ZM11.9996 10.689C12.1059 10.689 12.2034 10.7159 12.2791 10.7543C12.3514 10.7909 12.3902 10.8305 12.4057 10.8492C12.4334 10.8826 12.3996 10.8599 12.3996 10.7604H8.39961C8.39961 12.5699 9.67323 14.689 11.9996 14.689V10.689ZM12.3996 10.7604C12.3996 10.6609 12.4334 10.6381 12.4057 10.6715C12.3902 10.6902 12.3514 10.7298 12.2791 10.7665C12.2034 10.8049 12.1059 10.8318 11.9996 10.8318V6.83181C9.67324 6.83181 8.39961 8.95088 8.39961 10.7604H12.3996Z" fill="white" mask="url(#path-3-inside-2_3093_20225)"/>
<mask id="path-5-inside-3_3093_20225" fill="white">
<path d="M18.3938 4.97467C18.173 4.97882 17.9968 5.19768 18 5.46372V11.768C16.8685 11.9994 16 13.1901 16 14.6175C16 16.045 16.8685 17.235 18 17.4664V23.772C17.9923 24.424 18.8077 24.424 18.8 23.772V17.4664C19.9315 17.235 20.8 16.045 20.8 14.6175C20.8 13.1901 19.9315 11.9994 18.8 11.768V5.46372C18.8032 5.19178 18.6194 4.97042 18.3938 4.97467ZM18.4 12.689C19.2884 12.689 20 13.5467 20 14.6175C20 15.6884 19.2884 16.5461 18.4 16.5461C17.5116 16.5461 16.8 15.6884 16.8 14.6175C16.8 13.5467 17.5116 12.689 18.4 12.689Z"/>
</mask>
<path d="M18.3938 4.97467L18.4313 6.97432L18.4314 6.97431L18.3938 4.97467ZM18 5.46372H20V5.45182L19.9999 5.43992L18 5.46372ZM18 11.768L18.4007 13.7274L20 13.4004V11.768H18ZM18 17.4664H20V15.8341L18.4008 15.507L18 17.4664ZM18 23.772L19.9999 23.7954L20 23.7837V23.772H18ZM18.8 23.772H16.8V23.7837L16.8001 23.7954L18.8 23.772ZM18.8 17.4664L18.3992 15.507L16.8 15.8341V17.4664H18.8ZM18.8 11.768H16.8V13.4004L18.3993 13.7274L18.8 11.768ZM18.8 5.46372L16.8001 5.43993L16.8 5.45182V5.46372H18.8ZM18.3562 2.97502C16.7066 3.00601 15.9882 4.48444 16.0001 5.48751L19.9999 5.43992C20.0035 5.74764 19.9053 6.08393 19.6708 6.37523C19.4333 6.6702 19.0062 6.96352 18.4313 6.97432L18.3562 2.97502ZM16 5.46372V11.768H20V5.46372H16ZM17.5993 9.80855C15.32 10.2747 14 12.4804 14 14.6175H18C18 14.3052 18.0958 14.058 18.2065 13.9021C18.2608 13.8255 18.3124 13.7796 18.3483 13.7547C18.366 13.7425 18.3793 13.7357 18.3876 13.732C18.3958 13.7285 18.4 13.7276 18.4007 13.7274L17.5993 9.80855ZM14 14.6175C14 16.7552 15.3205 18.9598 17.5992 19.4259L18.4008 15.507C18.4 15.5068 18.3957 15.5059 18.3875 15.5023C18.3791 15.4987 18.3657 15.4919 18.3481 15.4797C18.3121 15.4548 18.2606 15.4089 18.2063 15.3324C18.0957 15.1767 18 14.9298 18 14.6175H14ZM16 17.4664V23.772H20V17.4664H16ZM16.0001 23.7485C15.9932 24.3393 16.179 24.9815 16.6533 25.4953C17.1182 25.999 17.7574 26.261 18.4 26.261C19.0426 26.261 19.6818 25.999 20.1467 25.4953C20.621 24.9815 20.8068 24.3393 20.7999 23.7485L16.8001 23.7954C16.797 23.5307 16.8837 23.1329 17.2076 22.7821C17.522 22.4415 17.9593 22.261 18.4 22.261C18.8407 22.261 19.278 22.4415 19.5924 22.7821C19.9163 23.1329 20.003 23.5307 19.9999 23.7954L16.0001 23.7485ZM20.8 23.772V17.4664H16.8V23.772H20.8ZM19.2008 19.4259C21.4795 18.9598 22.8 16.7552 22.8 14.6175H18.8C18.8 14.9298 18.7043 15.1767 18.5937 15.3324C18.5394 15.4089 18.4879 15.4548 18.4519 15.4797C18.4343 15.4919 18.4209 15.4987 18.4125 15.5023C18.4043 15.5059 18.4 15.5068 18.3992 15.507L19.2008 19.4259ZM22.8 14.6175C22.8 12.4804 21.48 10.2747 19.2007 9.80855L18.3993 13.7274C18.4 13.7276 18.4042 13.7285 18.4124 13.732C18.4207 13.7357 18.434 13.7425 18.4517 13.7547C18.4876 13.7796 18.5392 13.8255 18.5935 13.9021C18.7042 14.058 18.8 14.3052 18.8 14.6175H22.8ZM20.8 11.768V5.46372H16.8V11.768H20.8ZM20.7999 5.48751C20.812 4.46996 20.0591 2.94295 18.3561 2.97502L18.4314 6.97431C17.8412 6.98543 17.3936 6.69374 17.1443 6.39359C16.8988 6.09814 16.7964 5.75376 16.8001 5.43993L20.7999 5.48751ZM18.4 14.689C18.2937 14.689 18.1962 14.662 18.1205 14.6236C18.0482 14.587 18.0094 14.5474 17.9939 14.5287C17.9662 14.4953 18 14.518 18 14.6175H22C22 12.808 20.7264 10.689 18.4 10.689V14.689ZM18 14.6175C18 14.717 17.9662 14.7398 17.9939 14.7064C18.0094 14.6877 18.0482 14.6481 18.1205 14.6114C18.1962 14.5731 18.2937 14.5461 18.4 14.5461V18.5461C20.7264 18.5461 22 16.427 22 14.6175H18ZM18.4 14.5461C18.5063 14.5461 18.6038 14.5731 18.6795 14.6114C18.7518 14.6481 18.7906 14.6877 18.8061 14.7064C18.8338 14.7398 18.8 14.717 18.8 14.6175H14.8C14.8 16.427 16.0736 18.5461 18.4 18.5461V14.5461ZM18.8 14.6175C18.8 14.518 18.8338 14.4953 18.8061 14.5287C18.7906 14.5474 18.7518 14.587 18.6795 14.6236C18.6038 14.662 18.5063 14.689 18.4 14.689V10.689C16.0736 10.689 14.8 12.808 14.8 14.6175H18.8Z" fill="white" mask="url(#path-5-inside-3_3093_20225)"/>
<mask id="path-7-inside-4_3093_20225" fill="white">
<path d="M5.59297 4.97467C5.37226 4.97882 5.19605 5.19768 5.19922 5.46372V16.268C4.06773 16.4994 3.19922 17.6901 3.19922 19.1175C3.19922 20.545 4.06775 21.735 5.19922 21.9664V23.7713C5.19157 24.4234 6.00687 24.4234 5.99922 23.7713V21.9664C7.13069 21.735 7.99922 20.545 7.99922 19.1175C7.99922 17.6901 7.13071 16.4994 5.99922 16.268V5.46372C6.00245 5.19178 5.81857 4.97042 5.59297 4.97467ZM5.59922 17.189C6.48761 17.189 7.19922 18.0467 7.19922 19.1175C7.19922 20.1884 6.48761 21.0461 5.59922 21.0461C4.71083 21.0461 3.99922 20.1884 3.99922 19.1175C3.99922 18.0467 4.71083 17.189 5.59922 17.189Z"/>
</mask>
<path d="M5.59297 4.97467L5.63054 6.97432L5.63063 6.97431L5.59297 4.97467ZM5.19922 5.46372H7.19922V5.45182L7.19908 5.43992L5.19922 5.46372ZM5.19922 16.268L5.59995 18.2274L7.19922 17.9004V16.268H5.19922ZM5.19922 21.9664H7.19922V20.3341L5.6 20.007L5.19922 21.9664ZM5.19922 23.7713L7.19908 23.7948L7.19922 23.7831V23.7713H5.19922ZM5.99922 23.7713H3.99922V23.7831L3.99936 23.7948L5.99922 23.7713ZM5.99922 21.9664L5.59844 20.007L3.99922 20.3341V21.9664H5.99922ZM5.99922 16.268H3.99922V17.9004L5.59849 18.2274L5.99922 16.268ZM5.99922 5.46372L3.99936 5.43993L3.99922 5.45182V5.46372H5.99922ZM5.5554 2.97502C3.90579 3.00601 3.18742 4.48444 3.19936 5.48751L7.19908 5.43992C7.20274 5.74763 7.10452 6.08392 6.86998 6.37523C6.63249 6.6702 6.20544 6.96352 5.63054 6.97432L5.5554 2.97502ZM3.19922 5.46372V16.268H7.19922V5.46372H3.19922ZM4.79849 14.3085C2.51924 14.7747 1.19922 16.9804 1.19922 19.1175H5.19922C5.19922 18.8052 5.295 18.558 5.40568 18.4021C5.46003 18.3255 5.51159 18.2796 5.54753 18.2547C5.56518 18.2425 5.57854 18.2357 5.58686 18.232C5.59501 18.2285 5.59925 18.2276 5.59995 18.2274L4.79849 14.3085ZM1.19922 19.1175C1.19922 21.2553 2.51975 23.4598 4.79844 23.9259L5.6 20.007C5.59921 20.0068 5.59491 20.0059 5.58671 20.0023C5.57833 19.9987 5.56495 19.9919 5.54729 19.9797C5.51133 19.9548 5.45981 19.9089 5.40552 19.8324C5.29497 19.6767 5.19922 19.4298 5.19922 19.1175H1.19922ZM3.19922 21.9664V23.7713H7.19922V21.9664H3.19922ZM3.19936 23.7479C3.19242 24.3387 3.37818 24.9809 3.85252 25.4947C4.31742 25.9983 4.95661 26.2603 5.59922 26.2603C6.24183 26.2603 6.88101 25.9983 7.34592 25.4947C7.82026 24.9809 8.00601 24.3387 7.99908 23.7479L3.99936 23.7948C3.99625 23.53 4.08296 23.1323 4.40682 22.7815C4.72125 22.4409 5.15852 22.2603 5.59922 22.2603C6.03991 22.2603 6.47719 22.4409 6.79162 22.7815C7.11548 23.1323 7.20219 23.53 7.19908 23.7948L3.19936 23.7479ZM7.99922 23.7713V21.9664H3.99922V23.7713H7.99922ZM6.4 23.9259C8.67869 23.4598 9.99922 21.2553 9.99922 19.1175H5.99922C5.99922 19.4298 5.90347 19.6767 5.79292 19.8324C5.73862 19.9089 5.68711 19.9548 5.65115 19.9797C5.63349 19.9919 5.6201 19.9987 5.61173 20.0023C5.60353 20.0059 5.59922 20.0068 5.59844 20.007L6.4 23.9259ZM9.99922 19.1175C9.99922 16.9804 8.6792 14.7747 6.39995 14.3085L5.59849 18.2274C5.59919 18.2276 5.60342 18.2285 5.61158 18.232C5.6199 18.2357 5.63326 18.2425 5.65091 18.2547C5.68685 18.2796 5.7384 18.3255 5.79275 18.4021C5.90344 18.558 5.99922 18.8052 5.99922 19.1175H9.99922ZM7.99922 16.268V5.46372H3.99922V16.268H7.99922ZM7.99908 5.48751C8.01118 4.46995 7.25829 2.94295 5.55531 2.97502L5.63063 6.97431C5.04037 6.98543 4.5928 6.69374 4.34347 6.39359C4.09804 6.09814 3.99563 5.75376 3.99936 5.43993L7.99908 5.48751ZM5.59922 19.189C5.49295 19.189 5.39545 19.162 5.31973 19.1236C5.24745 19.087 5.20863 19.0474 5.19312 19.0287C5.16543 18.9953 5.19922 19.0181 5.19922 19.1175H9.19922C9.19922 17.3081 7.92561 15.189 5.59922 15.189V19.189ZM5.19922 19.1175C5.19922 19.217 5.16542 19.2398 5.19313 19.2064C5.20864 19.1877 5.24747 19.1481 5.31975 19.1114C5.39547 19.0731 5.49296 19.0461 5.59922 19.0461V23.0461C7.92559 23.0461 9.19922 20.927 9.19922 19.1175H5.19922ZM5.59922 19.0461C5.70548 19.0461 5.80297 19.0731 5.87869 19.1114C5.95097 19.1481 5.9898 19.1877 6.00531 19.2064C6.03302 19.2398 5.99922 19.217 5.99922 19.1175H1.99922C1.99922 20.927 3.27285 23.0461 5.59922 23.0461V19.0461ZM5.99922 19.1175C5.99922 19.0181 6.03301 18.9953 6.00532 19.0287C5.98981 19.0474 5.95098 19.087 5.87871 19.1236C5.80299 19.162 5.70549 19.189 5.59922 19.189V15.189C3.27283 15.189 1.99922 17.3081 1.99922 19.1175H5.99922Z" fill="white" mask="url(#path-7-inside-4_3093_20225)"/>
</svg>
