<svg width="24" height="27" viewBox="0 0 24 27" fill="none" xmlns="http://www.w3.org/2000/svg">
<path d="M0.49998 17.034H1.63299V25.8595H0.500956C0.224844 25.8595 0.000976523 26.1146 0.000976523 26.4298C0.000976523 26.7449 0.224844 27 0.500956 27H2.13297H7.05831H9.36656H14.6342H16.9424H21.8678H23.5C23.7761 27 24 26.7449 24 26.4298C24 26.1146 23.7761 25.8595 23.5 25.8595H22.3677V17.034H23.499C23.7752 17.034 23.999 16.7789 23.999 16.4637V13.8347C23.999 13.5195 23.7752 13.2644 23.499 13.2644H17.4424V11.7731L17.7319 12.1033C17.8296 12.2147 17.9575 12.2704 18.0854 12.2704C18.2134 12.2704 18.3415 12.2147 18.4389 12.1033C18.6343 11.8806 18.6343 11.5197 18.4389 11.297L12.5005 4.52413V3.74505H16.1451C16.4212 3.74505 16.6451 3.49 16.6451 3.1748V0.57025C16.6451 0.255053 16.4212 0 16.1451 0H12.0005C11.7244 0 11.5005 0.255053 11.5005 0.57025V3.1748V4.52413L5.56179 11.297C5.36648 11.5197 5.36648 11.8806 5.56179 12.1033C5.7566 12.3261 6.07348 12.3261 6.26879 12.1033L6.55833 11.7731V13.2644H0.49998C0.223868 13.2644 0 13.5195 0 13.8347V16.4637C0 16.7789 0.223868 17.034 0.49998 17.034ZM17.4424 14.4049H22.9991V15.8935H21.8678H17.4424V14.4049ZM17.4424 17.034H21.3678V25.8595H17.4424V17.034ZM12.5005 1.1405H15.6451V2.60455H12.5005V1.1405ZM14.1342 25.8595H9.86654V19.3907H14.1342V25.8595ZM7.55829 16.472C7.55832 16.4691 7.55975 16.4667 7.55975 16.4637C7.55975 16.4608 7.55832 16.4584 7.55829 16.4555V13.843C7.55832 13.84 7.55975 13.8376 7.55975 13.8347C7.55975 13.8318 7.55832 13.8293 7.55829 13.8264V10.6332L12.0005 5.56662L16.4424 10.6332V16.4637V25.8595H15.1341V18.8205C15.1341 18.5053 14.9103 18.2502 14.6342 18.2502H9.36656C9.09045 18.2502 8.86658 18.5053 8.86658 18.8205V25.8595H7.55829V16.472ZM6.55833 25.8595H2.63295V17.034H6.55833V25.8595ZM0.999959 14.4049H6.55833V15.8935H2.13297H0.999959V14.4049Z" fill="white"/>
</svg>
