<svg width="24" height="27" viewBox="0 0 24 27" fill="none" xmlns="http://www.w3.org/2000/svg">
<mask id="path-1-inside-1_3093_20224" fill="white">
<path d="M21.7432 18.6419L17.0984 16.7417C16.6969 16.3259 16.3864 15.9561 16.2116 15.7387C16.1733 15.6912 16.1265 15.6534 16.0742 15.6276C16.022 15.6018 15.9655 15.5888 15.9085 15.5892L15.8289 15.1422C15.8128 15.0492 15.7761 14.9624 15.7222 14.8897C15.6683 14.8169 15.599 14.7607 15.5207 14.7261C15.496 14.7164 15.4706 14.7088 15.4449 14.7036C15.4367 14.6239 15.4323 14.5437 15.4317 14.4635V13.6745C16.9728 12.1179 18.002 9.56852 18.002 6.75C18.002 4.95979 17.3699 3.2429 16.2447 1.97703C15.1194 0.711159 13.5933 0 12.002 0C10.4107 0 8.8846 0.711159 7.75938 1.97703C6.63416 3.2429 6.00202 4.95979 6.00202 6.75C6.00202 9.56965 7.03124 12.1196 8.57432 13.6762V14.464C8.57373 14.5439 8.56935 14.6237 8.56118 14.7031C8.5345 14.7083 8.50823 14.7159 8.48261 14.7258C8.40429 14.7603 8.33496 14.8165 8.28101 14.8891C8.22706 14.9618 8.19022 15.0485 8.17389 15.1413L8.09457 15.5887C8.03757 15.5883 7.98112 15.6013 7.9289 15.627C7.87668 15.6527 7.82984 15.6905 7.79141 15.7379C7.61634 15.9559 7.30509 16.3262 6.9029 16.7428L2.25954 18.6419C1.59841 18.9136 1.02728 19.4069 0.62322 20.0552C0.219164 20.7036 0.00163772 21.4758 0 22.2676V25.3342C0.000401152 25.7758 0.156494 26.1992 0.434033 26.5115C0.711572 26.8238 1.08789 26.9995 1.48042 27H22.5196C22.9121 26.9995 23.2884 26.8238 23.566 26.5115C23.8435 26.1992 23.9996 25.7758 24 25.3342V22.2668C23.9985 21.4754 23.7814 20.7036 23.3778 20.0555C22.9743 19.4073 22.4038 18.9139 21.7432 18.6419ZM16.7204 17.3025L16.7232 17.3056C17.2128 17.8137 17.7392 18.275 18.2968 18.6849L17.2163 19.1319C17.1676 19.1521 17.1241 19.1858 17.0898 19.2297C17.0555 19.2736 17.0316 19.3265 17.0201 19.3836C17.0086 19.4406 17.01 19.4999 17.0241 19.5562C17.0382 19.6125 17.0646 19.6639 17.1009 19.7057C17.6326 20.2803 18.2306 20.7719 18.8787 21.1674C18.8954 21.1761 18.9088 21.1914 18.9163 21.2104C18.9238 21.2294 18.9249 21.2508 18.9193 21.2706C18.3104 22.9934 17.6083 24.6726 16.8169 26.2989H14.7251C15.6634 21.1245 15.9835 17.9766 16.0893 16.6147C16.2616 16.8153 16.4761 17.0526 16.7204 17.3025ZM13.8051 26.2989L12.8612 19.8612C12.9124 19.7945 12.9558 19.7206 12.9903 19.6415L13.2258 19.0992L13.5916 19.9215C13.614 19.9722 13.6471 20.0161 13.6879 20.0493C13.7288 20.0825 13.7761 20.1041 13.826 20.1122C13.8408 20.1144 13.8556 20.1156 13.8705 20.1156C13.9132 20.1154 13.9554 20.1053 13.9945 20.0861C14.0336 20.0668 14.0688 20.0387 14.0979 20.0036L15.2675 18.5862C15.07 20.3088 14.7168 22.8542 14.089 26.2989H13.8051ZM9.91048 26.2989C9.28295 22.8545 8.92951 20.3094 8.73196 18.5874L9.90139 20.0042C9.93046 20.0393 9.96564 20.0674 10.0047 20.0867C10.0439 20.1059 10.0861 20.116 10.1288 20.1161C10.1435 20.1161 10.1583 20.115 10.173 20.1127C10.2229 20.1046 10.2703 20.0831 10.3112 20.0499C10.352 20.0166 10.3852 19.9728 10.4077 19.922L10.773 19.0978L11.0087 19.6407C11.0433 19.7198 11.0868 19.7936 11.138 19.8603L10.1947 26.2989H9.91048ZM8.57937 16.4225L8.74712 15.479C9.47726 16.0516 10.3133 16.4305 11.1923 16.5874L10.052 19.1558L8.92219 17.7867C8.77334 17.606 8.66467 17.3881 8.60508 17.151C8.54549 16.9139 8.53668 16.6642 8.57937 16.4225ZM11.8608 16.6499C11.9073 16.6499 11.9533 16.6553 11.9997 16.6553C12.0462 16.6553 12.0925 16.6513 12.1387 16.6499L12.8751 18.3088L12.43 19.332C12.4114 19.3799 12.3811 19.421 12.3427 19.4505C12.3042 19.4799 12.2592 19.4966 12.2127 19.4985H11.7875C11.741 19.4966 11.6958 19.4799 11.6573 19.4504C11.6188 19.4209 11.5885 19.3797 11.5698 19.3317L11.1249 18.3066L11.8608 16.6499ZM15.2524 15.4787L15.4201 16.4223C15.4629 16.6639 15.4541 16.9136 15.3945 17.1507C15.3349 17.3879 15.2262 17.6057 15.0773 17.7865L13.9478 19.1558L12.8084 16.5868C13.687 16.43 14.5226 16.051 15.2524 15.4787ZM11.7221 20.196C11.7438 20.198 11.7656 20.2014 11.7878 20.2014H12.213C12.2352 20.2014 12.2569 20.198 12.2787 20.196L13.1735 26.2989H10.8268L11.7221 20.196ZM12 0.701147C13.3693 0.703669 14.6862 1.29362 15.6822 2.35072C16.6782 3.40782 17.2784 4.85248 17.3603 6.39019C14.1461 6.29697 11.3096 4.84408 10.076 2.62923C10.0439 2.57165 9.99758 2.52581 9.94275 2.49727C9.88792 2.46874 9.8269 2.45874 9.76711 2.46849C9.70732 2.47825 9.65134 2.50734 9.60598 2.55222C9.56061 2.5971 9.52782 2.65585 9.51158 2.72132C9.00253 4.77786 7.89752 6.16026 6.64042 6.36887C6.72703 4.83513 7.32912 3.39591 8.32449 2.34331C9.31985 1.29072 10.6339 0.703613 12 0.701147ZM6.6293 7.07912C8.02484 6.90461 9.25667 5.59213 9.91756 3.58617C11.402 5.67028 14.2259 7.00693 17.3702 7.09219C17.2371 11.1041 14.785 14.5516 12 14.5516C9.21499 14.5516 6.75764 11.0967 6.6293 7.07912ZM12 15.253C13.0062 15.2414 13.9853 14.8844 14.8062 14.2299V14.4649C14.8076 14.624 14.8203 14.7827 14.8441 14.9395C14.0927 15.5204 13.2179 15.8669 12.3087 15.9436C12.1031 15.959 11.8969 15.959 11.6913 15.9436C10.7828 15.8671 9.90854 15.521 9.15764 14.9407C9.18168 14.7837 9.19444 14.6248 9.19579 14.4655V14.231C10.0163 14.8847 10.9946 15.2412 12 15.253ZM7.91192 16.6147C8.01651 17.9763 8.33659 21.1245 9.27613 26.2989H7.18434C6.39294 24.6726 5.69083 22.9934 5.08194 21.2706C5.07636 21.2508 5.07738 21.2294 5.08483 21.2104C5.09227 21.1914 5.10561 21.1761 5.12236 21.1674C5.77055 20.772 6.36857 20.2804 6.90038 19.7057C6.93664 19.6639 6.96303 19.6125 6.97714 19.5562C6.99124 19.4999 6.99262 19.4406 6.98115 19.3836C6.96968 19.3265 6.94572 19.2736 6.91145 19.2297C6.87718 19.1858 6.83369 19.1521 6.78493 19.1319L5.70442 18.6849C6.26121 18.2758 6.78681 17.8154 7.27579 17.3084L7.27983 17.3044C7.52337 17.0526 7.73811 16.8153 7.91192 16.6147ZM0.623242 25.3342V22.2676C0.624509 21.6201 0.802235 20.9887 1.13245 20.4583C1.46267 19.928 1.9295 19.5244 2.46998 19.3019L5.2896 18.1483C5.25069 18.1767 5.21229 18.2037 5.17314 18.2304C5.09186 18.286 5.02619 18.3663 4.98368 18.462C4.94117 18.5578 4.92355 18.6651 4.93284 18.7716C4.94213 18.8781 4.97795 18.9795 5.0362 19.0641C5.09444 19.1487 5.17273 19.2131 5.26206 19.2499L6.0816 19.5886C5.68764 19.953 5.26482 20.276 4.81844 20.5535C4.66868 20.6435 4.55346 20.7921 4.49461 20.9713C4.43575 21.1504 4.43736 21.3476 4.49912 21.5255C5.07521 23.1584 5.73432 24.7526 6.47318 26.3003H1.48042C1.25296 26.2997 1.03498 26.1977 0.874286 26.0166C0.713591 25.8355 0.623308 25.5901 0.623242 25.3342ZM23.3768 25.3342C23.3764 25.5899 23.2859 25.8349 23.1253 26.0157C22.9646 26.1965 22.7468 26.2983 22.5196 26.2989H17.5258C18.2647 24.7512 18.9238 23.157 19.4999 21.5241C19.5616 21.3462 19.5632 21.1489 19.5043 20.9698C19.4454 20.7906 19.3301 20.642 19.1803 20.5521C18.7344 20.2745 18.312 19.9515 17.9184 19.5872L18.7377 19.2484C18.827 19.2117 18.9053 19.1473 18.9636 19.0627C19.0218 18.978 19.0576 18.8767 19.0669 18.7701C19.0762 18.6636 19.0586 18.5564 19.0161 18.4606C18.9736 18.3649 18.9079 18.2846 18.8266 18.229C18.7864 18.2006 18.747 18.1721 18.7071 18.1437L21.53 19.2985C22.0705 19.521 22.5374 19.9246 22.8676 20.4549C23.1978 20.9852 23.3755 21.6167 23.3768 22.2642V25.3342Z"/>
</mask>
<path d="M21.7432 18.6419L17.0984 16.7417C16.6969 16.3259 16.3864 15.9561 16.2116 15.7387C16.1733 15.6912 16.1265 15.6534 16.0742 15.6276C16.022 15.6018 15.9655 15.5888 15.9085 15.5892L15.8289 15.1422C15.8128 15.0492 15.7761 14.9624 15.7222 14.8897C15.6683 14.8169 15.599 14.7607 15.5207 14.7261C15.496 14.7164 15.4706 14.7088 15.4449 14.7036C15.4367 14.6239 15.4323 14.5437 15.4317 14.4635V13.6745C16.9728 12.1179 18.002 9.56852 18.002 6.75C18.002 4.95979 17.3699 3.2429 16.2447 1.97703C15.1194 0.711159 13.5933 0 12.002 0C10.4107 0 8.8846 0.711159 7.75938 1.97703C6.63416 3.2429 6.00202 4.95979 6.00202 6.75C6.00202 9.56965 7.03124 12.1196 8.57432 13.6762V14.464C8.57373 14.5439 8.56935 14.6237 8.56118 14.7031C8.5345 14.7083 8.50823 14.7159 8.48261 14.7258C8.40429 14.7603 8.33496 14.8165 8.28101 14.8891C8.22706 14.9618 8.19022 15.0485 8.17389 15.1413L8.09457 15.5887C8.03757 15.5883 7.98112 15.6013 7.9289 15.627C7.87668 15.6527 7.82984 15.6905 7.79141 15.7379C7.61634 15.9559 7.30509 16.3262 6.9029 16.7428L2.25954 18.6419C1.59841 18.9136 1.02728 19.4069 0.62322 20.0552C0.219164 20.7036 0.00163772 21.4758 0 22.2676V25.3342C0.000401152 25.7758 0.156494 26.1992 0.434033 26.5115C0.711572 26.8238 1.08789 26.9995 1.48042 27H22.5196C22.9121 26.9995 23.2884 26.8238 23.566 26.5115C23.8435 26.1992 23.9996 25.7758 24 25.3342V22.2668C23.9985 21.4754 23.7814 20.7036 23.3778 20.0555C22.9743 19.4073 22.4038 18.9139 21.7432 18.6419ZM16.7204 17.3025L16.7232 17.3056C17.2128 17.8137 17.7392 18.275 18.2968 18.6849L17.2163 19.1319C17.1676 19.1521 17.1241 19.1858 17.0898 19.2297C17.0555 19.2736 17.0316 19.3265 17.0201 19.3836C17.0086 19.4406 17.01 19.4999 17.0241 19.5562C17.0382 19.6125 17.0646 19.6639 17.1009 19.7057C17.6326 20.2803 18.2306 20.7719 18.8787 21.1674C18.8954 21.1761 18.9088 21.1914 18.9163 21.2104C18.9238 21.2294 18.9249 21.2508 18.9193 21.2706C18.3104 22.9934 17.6083 24.6726 16.8169 26.2989H14.7251C15.6634 21.1245 15.9835 17.9766 16.0893 16.6147C16.2616 16.8153 16.4761 17.0526 16.7204 17.3025ZM13.8051 26.2989L12.8612 19.8612C12.9124 19.7945 12.9558 19.7206 12.9903 19.6415L13.2258 19.0992L13.5916 19.9215C13.614 19.9722 13.6471 20.0161 13.6879 20.0493C13.7288 20.0825 13.7761 20.1041 13.826 20.1122C13.8408 20.1144 13.8556 20.1156 13.8705 20.1156C13.9132 20.1154 13.9554 20.1053 13.9945 20.0861C14.0336 20.0668 14.0688 20.0387 14.0979 20.0036L15.2675 18.5862C15.07 20.3088 14.7168 22.8542 14.089 26.2989H13.8051ZM9.91048 26.2989C9.28295 22.8545 8.92951 20.3094 8.73196 18.5874L9.90139 20.0042C9.93046 20.0393 9.96564 20.0674 10.0047 20.0867C10.0439 20.1059 10.0861 20.116 10.1288 20.1161C10.1435 20.1161 10.1583 20.115 10.173 20.1127C10.2229 20.1046 10.2703 20.0831 10.3112 20.0499C10.352 20.0166 10.3852 19.9728 10.4077 19.922L10.773 19.0978L11.0087 19.6407C11.0433 19.7198 11.0868 19.7936 11.138 19.8603L10.1947 26.2989H9.91048ZM8.57937 16.4225L8.74712 15.479C9.47726 16.0516 10.3133 16.4305 11.1923 16.5874L10.052 19.1558L8.92219 17.7867C8.77334 17.606 8.66467 17.3881 8.60508 17.151C8.54549 16.9139 8.53668 16.6642 8.57937 16.4225ZM11.8608 16.6499C11.9073 16.6499 11.9533 16.6553 11.9997 16.6553C12.0462 16.6553 12.0925 16.6513 12.1387 16.6499L12.8751 18.3088L12.43 19.332C12.4114 19.3799 12.3811 19.421 12.3427 19.4505C12.3042 19.4799 12.2592 19.4966 12.2127 19.4985H11.7875C11.741 19.4966 11.6958 19.4799 11.6573 19.4504C11.6188 19.4209 11.5885 19.3797 11.5698 19.3317L11.1249 18.3066L11.8608 16.6499ZM15.2524 15.4787L15.4201 16.4223C15.4629 16.6639 15.4541 16.9136 15.3945 17.1507C15.3349 17.3879 15.2262 17.6057 15.0773 17.7865L13.9478 19.1558L12.8084 16.5868C13.687 16.43 14.5226 16.051 15.2524 15.4787ZM11.7221 20.196C11.7438 20.198 11.7656 20.2014 11.7878 20.2014H12.213C12.2352 20.2014 12.2569 20.198 12.2787 20.196L13.1735 26.2989H10.8268L11.7221 20.196ZM12 0.701147C13.3693 0.703669 14.6862 1.29362 15.6822 2.35072C16.6782 3.40782 17.2784 4.85248 17.3603 6.39019C14.1461 6.29697 11.3096 4.84408 10.076 2.62923C10.0439 2.57165 9.99758 2.52581 9.94275 2.49727C9.88792 2.46874 9.8269 2.45874 9.76711 2.46849C9.70732 2.47825 9.65134 2.50734 9.60598 2.55222C9.56061 2.5971 9.52782 2.65585 9.51158 2.72132C9.00253 4.77786 7.89752 6.16026 6.64042 6.36887C6.72703 4.83513 7.32912 3.39591 8.32449 2.34331C9.31985 1.29072 10.6339 0.703613 12 0.701147ZM6.6293 7.07912C8.02484 6.90461 9.25667 5.59213 9.91756 3.58617C11.402 5.67028 14.2259 7.00693 17.3702 7.09219C17.2371 11.1041 14.785 14.5516 12 14.5516C9.21499 14.5516 6.75764 11.0967 6.6293 7.07912ZM12 15.253C13.0062 15.2414 13.9853 14.8844 14.8062 14.2299V14.4649C14.8076 14.624 14.8203 14.7827 14.8441 14.9395C14.0927 15.5204 13.2179 15.8669 12.3087 15.9436C12.1031 15.959 11.8969 15.959 11.6913 15.9436C10.7828 15.8671 9.90854 15.521 9.15764 14.9407C9.18168 14.7837 9.19444 14.6248 9.19579 14.4655V14.231C10.0163 14.8847 10.9946 15.2412 12 15.253ZM7.91192 16.6147C8.01651 17.9763 8.33659 21.1245 9.27613 26.2989H7.18434C6.39294 24.6726 5.69083 22.9934 5.08194 21.2706C5.07636 21.2508 5.07738 21.2294 5.08483 21.2104C5.09227 21.1914 5.10561 21.1761 5.12236 21.1674C5.77055 20.772 6.36857 20.2804 6.90038 19.7057C6.93664 19.6639 6.96303 19.6125 6.97714 19.5562C6.99124 19.4999 6.99262 19.4406 6.98115 19.3836C6.96968 19.3265 6.94572 19.2736 6.91145 19.2297C6.87718 19.1858 6.83369 19.1521 6.78493 19.1319L5.70442 18.6849C6.26121 18.2758 6.78681 17.8154 7.27579 17.3084L7.27983 17.3044C7.52337 17.0526 7.73811 16.8153 7.91192 16.6147ZM0.623242 25.3342V22.2676C0.624509 21.6201 0.802235 20.9887 1.13245 20.4583C1.46267 19.928 1.9295 19.5244 2.46998 19.3019L5.2896 18.1483C5.25069 18.1767 5.21229 18.2037 5.17314 18.2304C5.09186 18.286 5.02619 18.3663 4.98368 18.462C4.94117 18.5578 4.92355 18.6651 4.93284 18.7716C4.94213 18.8781 4.97795 18.9795 5.0362 19.0641C5.09444 19.1487 5.17273 19.2131 5.26206 19.2499L6.0816 19.5886C5.68764 19.953 5.26482 20.276 4.81844 20.5535C4.66868 20.6435 4.55346 20.7921 4.49461 20.9713C4.43575 21.1504 4.43736 21.3476 4.49912 21.5255C5.07521 23.1584 5.73432 24.7526 6.47318 26.3003H1.48042C1.25296 26.2997 1.03498 26.1977 0.874286 26.0166C0.713591 25.8355 0.623308 25.5901 0.623242 25.3342ZM23.3768 25.3342C23.3764 25.5899 23.2859 25.8349 23.1253 26.0157C22.9646 26.1965 22.7468 26.2983 22.5196 26.2989H17.5258C18.2647 24.7512 18.9238 23.157 19.4999 21.5241C19.5616 21.3462 19.5632 21.1489 19.5043 20.9698C19.4454 20.7906 19.3301 20.642 19.1803 20.5521C18.7344 20.2745 18.312 19.9515 17.9184 19.5872L18.7377 19.2484C18.827 19.2117 18.9053 19.1473 18.9636 19.0627C19.0218 18.978 19.0576 18.8767 19.0669 18.7701C19.0762 18.6636 19.0586 18.5564 19.0161 18.4606C18.9736 18.3649 18.9079 18.2846 18.8266 18.229C18.7864 18.2006 18.747 18.1721 18.7071 18.1437L21.53 19.2985C22.0705 19.521 22.5374 19.9246 22.8676 20.4549C23.1978 20.9852 23.3755 21.6167 23.3768 22.2642V25.3342Z" fill="white" stroke="white" stroke-width="6" mask="url(#path-1-inside-1_3093_20224)"/>
</svg>
