    <svg
                      width="40"
                      height="30"
                      viewBox="0 0 28 25"
                      fill="none"
                      xmlns="http://www.w3.org/2000/svg"
                    >
                      <path
                        d="M16.8 2.49998C16.8 1.83684 16.505 1.20109 15.98 0.732137C15.4548 0.263388 14.7427 0 14 0C13.2573 0 12.5452 0.263388 12.02 0.732137C11.495 1.20107 11.2 1.83684 11.2 2.49998C11.2 3.16312 11.495 3.79887 12.02 4.26782C12.5452 4.73657 13.2573 4.99996 14 4.99996C14.7423 4.99921 15.4542 4.73564 15.9792 4.26706C16.504 3.79831 16.7992 3.16274 16.8 2.49998ZM12.1333 2.49998C12.1333 2.05802 12.33 1.63408 12.68 1.32142C13.0302 1.00892 13.505 0.833327 14 0.833327C14.495 0.833327 14.9698 1.00892 15.32 1.32142C15.67 1.6341 15.8667 2.05803 15.8667 2.49998C15.8667 2.94193 15.67 3.36588 15.32 3.67854C14.9698 3.99104 14.495 4.16663 14 4.16663C13.505 4.16663 13.0302 3.99104 12.68 3.67854C12.33 3.36586 12.1333 2.94193 12.1333 2.49998Z"
                        fill="white"
                      />
                      <path
                        d="M9.79999 6.66793V10.0012C9.79999 10.3327 9.94749 10.6508 10.21 10.8851C10.4725 11.1195 10.8288 11.2512 11.2 11.2512H16.8C17.1712 11.2512 17.5275 11.1195 17.7899 10.8851C18.0524 10.6508 18.1999 10.3327 18.1999 10.0012V6.66793C18.1999 6.33647 18.0524 6.01837 17.7899 5.78404C17.5274 5.54971 17.1712 5.41797 16.8 5.41797H14.7402L14 6.07887L13.2598 5.41797H11.2C10.8287 5.41797 10.4724 5.54966 10.21 5.78404C9.94753 6.01841 9.79999 6.33651 9.79999 6.66793ZM14 7.25703L15.1265 6.25127H16.8C16.9237 6.25127 17.0425 6.29517 17.13 6.37329C17.2175 6.45142 17.2667 6.55744 17.2667 6.66793V10.0012C17.2667 10.1117 17.2175 10.2178 17.13 10.2959C17.0425 10.374 16.9237 10.4179 16.8 10.4179H11.2C10.9423 10.4179 10.7333 10.2313 10.7333 10.0012V6.66793C10.7333 6.43784 10.9423 6.25127 11.2 6.25127H12.8735L14 7.25703Z"
                        fill="white"
                      />
                      <path
                        d="M23.8 18.75C24.5428 18.75 25.2548 18.4866 25.78 18.0178C26.305 17.5489 26.6 16.9131 26.6 16.25C26.6 15.5868 26.305 14.9511 25.78 14.4821C25.2548 14.0134 24.5428 13.75 23.8 13.75C23.0573 13.75 22.3453 14.0134 21.82 14.4821C21.295 14.9511 21 15.5868 21 16.25C21.0009 16.9127 21.2961 17.5484 21.8209 18.0171C22.3459 18.4856 23.0577 18.7492 23.8 18.75ZM23.8 14.5833C24.295 14.5833 24.7699 14.7589 25.12 15.0714C25.47 15.3841 25.6667 15.808 25.6667 16.25C25.6667 16.6919 25.47 17.1159 25.12 17.4285C24.7698 17.741 24.295 17.9166 23.8 17.9166C23.305 17.9166 22.8302 17.741 22.48 17.4285C22.13 17.1159 21.9334 16.6919 21.9334 16.25C21.9334 15.808 22.13 15.3841 22.48 15.0714C22.8302 14.7589 23.305 14.5833 23.8 14.5833Z"
                        fill="white"
                      />
                      <path
                        d="M26.6 19.168H24.5402L23.8 19.8289L23.0598 19.168H21C20.6288 19.168 20.2725 19.2997 20.01 19.534C19.7476 19.7684 19.6 20.0865 19.6 20.4179V23.7512C19.6 24.0827 19.7475 24.4008 20.01 24.6351C20.2725 24.8695 20.6288 25.0012 21 25.0012H26.6C26.9713 25.0012 27.3275 24.8695 27.59 24.6351C27.8525 24.4008 28 24.0827 28 23.7512V20.4179C28 20.0865 27.8525 19.7684 27.59 19.534C27.3275 19.2997 26.9712 19.168 26.6 19.168ZM27.0667 23.7513C27.0667 23.8618 27.0175 23.9678 26.93 24.0459C26.8425 24.124 26.7238 24.1679 26.6 24.1679H21C20.7423 24.1679 20.5333 23.9814 20.5333 23.7513V20.418C20.5333 20.1879 20.7423 20.0013 21 20.0013H22.6736L23.8 21.007L24.9265 20.0013H26.6C26.7238 20.0013 26.8425 20.0452 26.93 20.1233C27.0175 20.2014 27.0667 20.3075 27.0667 20.418V23.7513Z"
                        fill="white"
                      />
                      <path
                        d="M1.39996 16.25C1.39996 16.9131 1.69496 17.5489 2.21996 18.0178C2.74518 18.4866 3.45725 18.75 4.19997 18.75C4.94269 18.75 5.65474 18.4866 6.17997 18.0178C6.70498 17.5489 6.99997 16.9131 6.99997 16.25C6.99997 15.5868 6.70498 14.9511 6.17997 14.4821C5.65476 14.0134 4.94269 13.75 4.19997 13.75C3.45767 13.7507 2.74578 14.0143 2.22082 14.4829C1.69603 14.9516 1.40082 15.5872 1.39996 16.25V16.25ZM6.06664 16.25C6.06664 16.6919 5.86997 17.1159 5.51997 17.4285C5.16976 17.741 4.69496 17.9166 4.19997 17.9166C3.70498 17.9166 3.23015 17.741 2.87997 17.4285C2.52997 17.1159 2.3333 16.6919 2.3333 16.25C2.3333 15.808 2.52997 15.3841 2.87997 15.0714C3.23017 14.7589 3.70498 14.5833 4.19997 14.5833C4.69496 14.5833 5.16978 14.7589 5.51997 15.0714C5.86997 15.3841 6.06664 15.808 6.06664 16.25Z"
                        fill="white"
                      />
                      <path
                        d="M1.39998 25.0012H6.99999C7.37123 25.0012 7.72751 24.8695 7.98996 24.6351C8.25241 24.4008 8.39996 24.0827 8.39996 23.7512V20.4179C8.39996 20.0865 8.25246 19.7684 7.98996 19.534C7.72746 19.2997 7.37119 19.168 6.99999 19.168H4.94019L4.19998 19.8289L3.45977 19.168H1.39998C1.02873 19.168 0.672454 19.2997 0.410001 19.534C0.147547 19.7684 0 20.0865 0 20.4179V23.7512C0 24.0827 0.147499 24.4008 0.410001 24.6351C0.672502 24.8695 1.02877 25.0012 1.39998 25.0012ZM0.933308 20.4179C0.933308 20.1878 1.14227 20.0012 1.39998 20.0012H3.07352L4.19998 21.007L5.32644 20.0012H6.99999C7.12373 20.0012 7.24249 20.0451 7.32999 20.1233C7.41748 20.2014 7.46665 20.3074 7.46665 20.4179V23.7512C7.46665 23.8617 7.41749 23.9677 7.32999 24.0459C7.24249 24.124 7.12373 24.1679 6.99999 24.1679H1.39998C1.14227 24.1679 0.933308 23.9813 0.933308 23.7512V20.4179Z"
                        fill="white"
                      />
                      <path
                        d="M8.73012 9.28599C8.54783 9.12342 8.25242 9.12342 8.07012 9.28599L4.80345 12.2026C4.71345 12.2804 4.6622 12.387 4.66116 12.4988C4.65991 12.6106 4.70928 12.7181 4.79782 12.7969C4.88615 12.876 5.00658 12.9201 5.13178 12.919C5.25699 12.918 5.37636 12.8723 5.46345 12.7919L8.73012 9.87527C8.91221 9.71251 8.91221 9.44875 8.73012 9.28599V9.28599Z"
                        fill="white"
                      />
                      <path
                        d="M22.8667 12.9167C23.0555 12.9167 23.2255 12.8152 23.2977 12.6595C23.37 12.5038 23.33 12.3247 23.1967 12.2054L19.93 9.28878C19.7469 9.13085 19.4559 9.13327 19.2758 9.29398C19.0958 9.4547 19.0931 9.71455 19.27 9.87807L22.5367 12.7947C22.6242 12.8728 22.7429 12.9167 22.8667 12.9167L22.8667 12.9167Z"
                        fill="white"
                      />
                      <path
                        d="M9.33331 22.0807C9.33331 22.1912 9.38248 22.2972 9.46998 22.3754C9.55748 22.4535 9.67623 22.4974 9.79998 22.4974H18.2C18.4577 22.4974 18.6667 22.3108 18.6667 22.0807C18.6667 21.8506 18.4577 21.6641 18.2 21.6641H9.79998C9.54227 21.6641 9.33331 21.8506 9.33331 22.0807Z"
                        fill="white"
                      />
                    </svg>