 <svg
                      width="39"
                      height="24"
                      viewBox="0 0 32 24"
                      fill="none"
                      xmlns="http://www.w3.org/2000/svg"
                    >
                      <mask id="path-1-inside-1_3598_1318" fill="white">
                        <path d="M15.8459 0.5C14.6881 0.5 13.5324 0.713345 12.6136 1.17822L2.19077 6.46563C1.73196 6.6979 1.37288 6.96114 1.11348 7.28253C0.853816 7.60426 0.689801 8.00479 0.689801 8.4232C0.689801 8.4755 0.696826 8.52609 0.70196 8.57736V14.605C0.298278 14.7777 0 15.2557 0 15.8227C0 16.534 0.469617 17.1176 1.02894 17.1176C1.58826 17.1176 2.0457 16.534 2.0457 15.8227C2.0457 15.2557 1.75658 14.7777 1.3556 14.605V10.5C1.58392 10.7168 1.8571 10.8653 2.19078 11.0343L6.46376 13.208L6.27746 18.7056C6.27746 19.4599 6.49799 20.425 7 21C7.50204 21.575 8.65561 22.0912 9.5 22.5C11.189 23.3172 13.4666 23.5 16 23.5C18.5334 23.5 20.5 23 22.5 22.1897C23.3455 21.7812 23.9975 21.575 24.5 21C25.0026 20.425 25.5 19.4603 25.5 18.7056V13L30 10.5C30.4588 10.2677 30.906 9.91662 31.1654 9.59524C31.4251 9.27351 31.5 8.91839 31.5 8.5C31.5 8.08123 31.1209 7.55779 30.8612 7.23642C30.6015 6.91469 29.4588 6.23227 29 6L19.0762 1.17861C18.1578 0.713732 17.0018 0.500388 15.8439 0.500388L15.8459 0.5ZM16 2C17.0916 2 18.0307 2.45465 18.836 2.8624L29.2589 7.23642C29.6617 7.44047 29.9471 7.67171 30.1184 7.88402C30.2897 8.09634 30.3362 8.27595 30.3362 8.42357C30.3362 8.57119 30.2897 8.73533 30.1184 8.94764C29.9471 9.15995 29.6617 9.39118 29.2589 9.59524L18.5 14.5C16.889 15.3155 14.6107 15.3155 13 14.5L6.92458 11.8766C6.91269 11.8707 6.90026 11.8656 6.8881 11.8614L2.43354 9.59516C2.03067 9.39111 1.74533 9.15987 1.57401 8.94756C1.40269 8.73524 1.35622 8.57112 1.35622 8.42349C1.35649 8.41317 1.35622 8.40285 1.35595 8.39287C1.36244 8.25144 1.41459 8.08145 1.57374 7.88429C1.74505 7.67198 2.03038 7.44074 2.43327 7.23669L12.8997 2.8624C13.705 2.45465 14.9083 2 16 2ZM24.2101 13.208V18.7056C24.2101 19.1619 23.914 19.5269 23.5 20C23.086 20.4731 22.7936 20.6166 22 21C20.4133 21.767 18.5515 22.1897 16.0857 22.1897C13.6198 22.1897 11.0847 21.767 9.5 21C8.70749 20.6167 8.41344 20.4731 8 20C7.58685 19.5269 7.5 19.1623 7.5 18.7056V13.5L12.5 16C14.3363 16.9298 17.164 16.9298 19 16L24.2101 13.208ZM1.02916 15.3603C1.22992 15.3603 1.38015 15.5613 1.38015 15.8228C1.38015 16.0843 1.22992 16.2853 1.02916 16.2853C0.828401 16.2853 0.666005 16.0843 0.666005 15.8228C0.666005 15.5613 0.828401 15.3603 1.02916 15.3603Z" />
                      </mask>
                      <path
                        d="M15.8459 0.5C14.6881 0.5 13.5324 0.713345 12.6136 1.17822L2.19077 6.46563C1.73196 6.6979 1.37288 6.96114 1.11348 7.28253C0.853816 7.60426 0.689801 8.00479 0.689801 8.4232C0.689801 8.4755 0.696826 8.52609 0.70196 8.57736V14.605C0.298278 14.7777 0 15.2557 0 15.8227C0 16.534 0.469617 17.1176 1.02894 17.1176C1.58826 17.1176 2.0457 16.534 2.0457 15.8227C2.0457 15.2557 1.75658 14.7777 1.3556 14.605V10.5C1.58392 10.7168 1.8571 10.8653 2.19078 11.0343L6.46376 13.208L6.27746 18.7056C6.27746 19.4599 6.49799 20.425 7 21C7.50204 21.575 8.65561 22.0912 9.5 22.5C11.189 23.3172 13.4666 23.5 16 23.5C18.5334 23.5 20.5 23 22.5 22.1897C23.3455 21.7812 23.9975 21.575 24.5 21C25.0026 20.425 25.5 19.4603 25.5 18.7056V13L30 10.5C30.4588 10.2677 30.906 9.91662 31.1654 9.59524C31.4251 9.27351 31.5 8.91839 31.5 8.5C31.5 8.08123 31.1209 7.55779 30.8612 7.23642C30.6015 6.91469 29.4588 6.23227 29 6L19.0762 1.17861C18.1578 0.713732 17.0018 0.500388 15.8439 0.500388L15.8459 0.5ZM16 2C17.0916 2 18.0307 2.45465 18.836 2.8624L29.2589 7.23642C29.6617 7.44047 29.9471 7.67171 30.1184 7.88402C30.2897 8.09634 30.3362 8.27595 30.3362 8.42357C30.3362 8.57119 30.2897 8.73533 30.1184 8.94764C29.9471 9.15995 29.6617 9.39118 29.2589 9.59524L18.5 14.5C16.889 15.3155 14.6107 15.3155 13 14.5L6.92458 11.8766C6.91269 11.8707 6.90026 11.8656 6.8881 11.8614L2.43354 9.59516C2.03067 9.39111 1.74533 9.15987 1.57401 8.94756C1.40269 8.73524 1.35622 8.57112 1.35622 8.42349C1.35649 8.41317 1.35622 8.40285 1.35595 8.39287C1.36244 8.25144 1.41459 8.08145 1.57374 7.88429C1.74505 7.67198 2.03038 7.44074 2.43327 7.23669L12.8997 2.8624C13.705 2.45465 14.9083 2 16 2ZM24.2101 13.208V18.7056C24.2101 19.1619 23.914 19.5269 23.5 20C23.086 20.4731 22.7936 20.6166 22 21C20.4133 21.767 18.5515 22.1897 16.0857 22.1897C13.6198 22.1897 11.0847 21.767 9.5 21C8.70749 20.6167 8.41344 20.4731 8 20C7.58685 19.5269 7.5 19.1623 7.5 18.7056V13.5L12.5 16C14.3363 16.9298 17.164 16.9298 19 16L24.2101 13.208ZM1.02916 15.3603C1.22992 15.3603 1.38015 15.5613 1.38015 15.8228C1.38015 16.0843 1.22992 16.2853 1.02916 16.2853C0.828401 16.2853 0.666005 16.0843 0.666005 15.8228C0.666005 15.5613 0.828401 15.3603 1.02916 15.3603Z"
                        fill="white"
                      />
                      <path
                        d="M15.8459 0.5L16.8356 5.40106L15.8459 -4.5V0.5ZM12.6136 1.17822L10.3562 -3.28318L10.3516 -3.28084L12.6136 1.17822ZM2.19077 6.46563L4.44908 10.9266L4.4528 10.9247L2.19077 6.46563ZM1.11348 7.28253L-2.77732 4.1422L-2.77737 4.14226L1.11348 7.28253ZM0.70196 8.57736H5.70196V8.32763L5.67708 8.07915L0.70196 8.57736ZM0.70196 14.605L2.66894 19.2018L5.70196 17.904V14.605H0.70196ZM1.3556 14.605H-3.6444V17.8952L-0.62264 19.197L1.3556 14.605ZM1.3556 10.5L4.79828 6.87399L-3.6444 -1.14184L-3.6444 10.5H1.3556ZM2.19078 11.0343L4.45785 6.57775L4.44942 6.57348L2.19078 11.0343ZM6.46376 13.208L11.4609 13.3773L11.5687 10.1951L8.73083 8.75146L6.46376 13.208ZM6.27746 18.7056L1.28033 18.5363L1.27746 18.6209V18.7056H6.27746ZM7 21L3.23361 24.2885L3.23362 24.2885L7 21ZM9.5 22.5L7.32111 27.0003L7.3223 27.0008L9.5 22.5ZM22.5 22.1897L24.3776 26.8237L24.5284 26.7626L24.6749 26.6918L22.5 22.1897ZM24.5 21L20.7354 17.7095L20.7353 17.7095L24.5 21ZM25.5 13L23.0718 8.62921L20.5 10.058V13H25.5ZM30 10.5L27.7417 6.03906L27.6559 6.0825L27.5718 6.12921L30 10.5ZM31.1654 9.59524L35.0562 12.7356L35.0563 12.7355L31.1654 9.59524ZM30.8612 7.23642L26.9703 10.3767L26.9721 10.3788L30.8612 7.23642ZM29 6L31.2584 1.53908L31.2218 1.52058L31.185 1.50268L29 6ZM19.0762 1.17861L16.8181 5.63966L16.8545 5.65809L16.8912 5.67593L19.0762 1.17861ZM15.8439 0.500388L14.8542 -4.40067L15.8439 5.50039V0.500388ZM18.836 2.8624L16.5771 7.32309L16.7365 7.40377L16.9012 7.47288L18.836 2.8624ZM29.2589 7.23642L31.518 2.77592L31.3585 2.69513L31.1937 2.62594L29.2589 7.23642ZM30.1184 7.88402L34.0096 4.74425L34.0095 4.74409L30.1184 7.88402ZM30.1184 8.94764L26.2272 5.80784L26.2271 5.80786L30.1184 8.94764ZM29.2589 9.59524L31.3329 14.1448L31.4264 14.1022L31.518 14.0558L29.2589 9.59524ZM18.5 14.5L16.4259 9.95046L16.3329 9.99287L16.2417 10.039L18.5 14.5ZM13 14.5L15.2586 10.0392L15.1223 9.97021L14.9821 9.90967L13 14.5ZM6.92458 11.8766L4.71722 16.363L4.82854 16.4177L4.94244 16.4669L6.92458 11.8766ZM6.8881 11.8614L4.62087 16.3179L4.94068 16.4806L5.28044 16.5959L6.8881 11.8614ZM2.43354 9.59516L4.70078 5.13873L4.69274 5.13466L2.43354 9.59516ZM1.57401 8.94756L-2.31724 12.0873L-2.31712 12.0875L1.57401 8.94756ZM1.35622 8.42349L-3.64206 8.29268L-3.64378 8.35807V8.42349H1.35622ZM1.35595 8.39287L-3.6388 8.16384L-3.64715 8.34596L-3.64221 8.5282L1.35595 8.39287ZM1.57374 7.88429L5.4644 11.0248L5.46499 11.0241L1.57374 7.88429ZM2.43327 7.23669L0.505214 2.62338L0.336888 2.69373L0.174136 2.77616L2.43327 7.23669ZM12.8997 2.8624L14.8278 7.47571L14.9959 7.40543L15.1586 7.32309L12.8997 2.8624ZM24.2101 13.208H29.2101V4.85584L21.8484 8.80088L24.2101 13.208ZM23.5 20L19.737 16.7076L19.7369 16.7077L23.5 20ZM22 21L19.8251 16.4978L19.8239 16.4984L22 21ZM9.5 21L11.6783 16.4994L11.6772 16.4989L9.5 21ZM8 20L4.23376 23.2887L4.23493 23.29L8 20ZM7.5 13.5L9.73607 9.02786L2.5 5.40983V13.5H7.5ZM12.5 16L14.7586 11.5392L14.7474 11.5335L14.7361 11.5279L12.5 16ZM19 16L21.2589 20.4606L21.3106 20.4345L21.3617 20.4071L19 16ZM15.8459 -4.5C14.1514 -4.5 12.1666 -4.19919 10.3562 -3.28317L14.8711 5.63962C14.8619 5.64427 14.9421 5.604 15.1357 5.56466C15.3243 5.52633 15.5668 5.5 15.8459 5.5V-4.5ZM10.3516 -3.28084L-0.0712621 2.00657L4.4528 10.9247L14.8757 5.63728L10.3516 -3.28084ZM-0.0675428 2.00469C-0.924725 2.43863 -1.93426 3.09766 -2.77732 4.1422L5.00429 10.4229C4.68001 10.8246 4.38865 10.9572 4.44908 10.9266L-0.0675428 2.00469ZM-2.77737 4.14226C-3.64088 5.21216 -4.3102 6.69304 -4.3102 8.4232H5.6898C5.6898 9.31655 5.34851 9.99635 5.00433 10.4228L-2.77737 4.14226ZM-4.3102 8.4232C-4.3102 8.66732 -4.29389 8.86411 -4.28424 8.96713C-4.27943 9.01842 -4.2747 9.06195 -4.27314 9.07645C-4.27049 9.10088 -4.27194 9.08775 -4.27316 9.07556L5.67708 8.07915C5.67329 8.04133 5.66904 8.00265 5.66892 8.00154C5.66773 7.9905 5.66974 8.00851 5.67215 8.03421C5.67701 8.08604 5.6898 8.23139 5.6898 8.4232H-4.3102ZM-4.29804 8.57736V14.605H5.70196V8.57736H-4.29804ZM-1.26502 10.0081C-3.86367 11.1201 -5 13.6714 -5 15.8227H5C5 16.8399 4.46023 18.4353 2.66894 19.2018L-1.26502 10.0081ZM-5 15.8227C-5 18.1825 -3.28659 22.1176 1.02894 22.1176V12.1176C2.57946 12.1176 3.66286 12.9287 4.2133 13.6187C4.76759 14.3135 5 15.1028 5 15.8227H-5ZM1.02894 22.1176C5.41045 22.1176 7.0457 18.0991 7.0457 15.8227H-2.9543C-2.9543 15.1355 -2.73882 14.354 -2.18626 13.65C-1.63147 12.9431 -0.535818 12.1176 1.02894 12.1176V22.1176ZM7.0457 15.8227C7.0457 13.7447 5.97686 11.1516 3.33383 10.013L-0.62264 19.197C-2.4637 18.4039 -2.9543 16.7666 -2.9543 15.8227H7.0457ZM6.3556 14.605V10.5H-3.6444V14.605H6.3556ZM-2.08709 14.126C-1.26817 14.9035 -0.383641 15.3351 -0.0678509 15.495L4.44942 6.57348C4.38044 6.53855 4.34567 6.52034 4.32626 6.50986C4.30836 6.5002 4.3226 6.50733 4.35615 6.528C4.42797 6.57223 4.59887 6.68466 4.79828 6.87399L-2.08709 14.126ZM-0.0762832 15.4908L4.1967 17.6645L8.73083 8.75146L4.45785 6.57776L-0.0762832 15.4908ZM1.46663 13.0386L1.28033 18.5363L11.2746 18.875L11.4609 13.3773L1.46663 13.0386ZM1.27746 18.7056C1.27746 20.0631 1.61209 22.4314 3.23361 24.2885L10.7664 17.7115C10.9719 17.9469 11.0892 18.1521 11.1503 18.2746C11.2129 18.4002 11.2417 18.4895 11.2535 18.5304C11.2717 18.5935 11.2775 18.6326 11.2775 18.7056H1.27746ZM3.23362 24.2885C4.09939 25.2801 5.18245 25.9012 5.70585 26.19C6.31636 26.5269 7.01069 26.85 7.32111 27.0003L11.6789 17.9997C11.5625 17.9434 11.4386 17.8841 11.3332 17.8336C11.2221 17.7803 11.1204 17.7313 11.0215 17.6829C10.8205 17.5846 10.6635 17.5042 10.5374 17.4346C10.4062 17.3622 10.3599 17.3295 10.3692 17.3361C10.3772 17.3418 10.4175 17.3705 10.4792 17.4236C10.5392 17.4753 10.643 17.5702 10.7664 17.7115L3.23362 24.2885ZM7.3223 27.0008C10.14 28.3642 13.4609 28.5 16 28.5V18.5C13.4722 18.5 12.2381 18.2703 11.6777 17.9992L7.3223 27.0008ZM16 28.5C19.2947 28.5 21.9008 27.8272 24.3776 26.8237L20.6224 17.5556C19.0992 18.1728 17.7722 18.5 16 18.5V28.5ZM24.6749 26.6918C24.8229 26.6203 24.952 26.5626 25.1748 26.4608C25.3664 26.3734 25.6557 26.2406 25.9575 26.0818C26.6057 25.7406 27.4682 25.2017 28.2647 24.2905L20.7353 17.7095C20.8717 17.5535 21.0124 17.431 21.1333 17.3421C21.2456 17.2596 21.3178 17.2233 21.2997 17.2328C21.2909 17.2374 21.267 17.2497 21.2189 17.2726C21.1695 17.2962 21.1091 17.3241 21.0223 17.3638C20.9491 17.3972 20.8256 17.4532 20.7193 17.502C20.6028 17.5556 20.4692 17.6178 20.3251 17.6875L24.6749 26.6918ZM28.2646 24.2905C28.8523 23.6181 29.3576 22.8223 29.7319 22.0077C30.0828 21.244 30.5 20.0723 30.5 18.7056H20.5C20.5 18.363 20.5536 18.1252 20.5813 18.0205C20.6114 17.9069 20.6391 17.8457 20.6451 17.8327C20.6524 17.8167 20.6558 17.8115 20.6583 17.8077C20.6592 17.8062 20.6804 17.7723 20.7354 17.7095L28.2646 24.2905ZM30.5 18.7056V13H20.5V18.7056H30.5ZM27.9282 17.3708L32.4282 14.8708L27.5718 6.12921L23.0718 8.62921L27.9282 17.3708ZM32.2583 14.9609C33.2311 14.4685 34.2764 13.7018 35.0562 12.7356L27.2746 6.45491C27.3668 6.34072 27.4417 6.26512 27.4848 6.22394C27.5302 6.18053 27.5643 6.15258 27.5854 6.13616C27.6195 6.10958 27.6639 6.07846 27.7417 6.03906L32.2583 14.9609ZM35.0563 12.7355C36.2932 11.2029 36.5 9.56497 36.5 8.5H26.5C26.5 8.42564 26.5044 8.12824 26.6182 7.72533C26.7429 7.28364 26.9629 6.84113 27.2746 6.45497L35.0563 12.7355ZM36.5 8.5C36.5 6.96344 35.8731 5.79678 35.6225 5.35686C35.299 4.78892 34.9452 4.3352 34.7503 4.09401L26.9721 10.3788C27.0369 10.459 27.0024 10.4277 26.9334 10.3065C26.8953 10.2396 26.8056 10.0744 26.7182 9.82499C26.6355 9.58925 26.5 9.12416 26.5 8.5H36.5ZM34.752 4.09615C34.2624 3.48943 33.6982 3.06946 33.5209 2.93683C33.237 2.72436 32.9445 2.52914 32.6969 2.37097C32.217 2.06443 31.6698 1.74738 31.2584 1.53908L26.7416 10.4609C26.7368 10.4585 26.7542 10.4672 26.7958 10.4901C26.8349 10.5116 26.8852 10.5398 26.9437 10.5737C27.0631 10.6427 27.194 10.7219 27.3137 10.7984C27.3726 10.836 27.4227 10.8691 27.4631 10.8966C27.5047 10.925 27.5259 10.9406 27.5298 10.9435C27.531 10.9444 27.5237 10.939 27.5093 10.9274C27.4954 10.9163 27.4684 10.8944 27.4317 10.8622C27.3962 10.8311 27.3389 10.7795 27.2684 10.709C27.201 10.6417 27.0937 10.5295 26.9703 10.3767L34.752 4.09615ZM31.185 1.50268L21.2611 -3.31871L16.8912 5.67593L26.815 10.4973L31.185 1.50268ZM21.3342 -3.28244C19.5236 -4.19895 17.538 -4.49961 15.8439 -4.49961V5.50039C16.1231 5.50039 16.3657 5.52673 16.5543 5.56506C16.748 5.60442 16.8279 5.64463 16.8181 5.63966L21.3342 -3.28244ZM16.8337 5.40145L16.8356 5.40106L14.8561 -4.40106L14.8542 -4.40067L16.8337 5.40145ZM16 7C15.8423 7 15.7819 6.96559 15.8783 6.99923C15.9283 7.01665 16.0061 7.04726 16.1252 7.10179C16.2487 7.15832 16.3847 7.22565 16.5771 7.32309L21.0948 -1.59828C20.3391 -1.98097 18.4224 -3 16 -3V7ZM16.9012 7.47288L27.324 11.8469L31.1937 2.62594L20.7708 -1.74807L16.9012 7.47288ZM26.9997 11.6969C26.9495 11.6715 26.8549 11.6185 26.7309 11.5233C26.6124 11.4324 26.4283 11.2731 26.2273 11.0239L34.0095 4.74409C33.2906 3.85314 32.3869 3.21601 31.518 2.77592L26.9997 11.6969ZM26.2271 11.0238C26.0158 10.7618 25.7771 10.3892 25.5983 9.90251C25.415 9.40365 25.3362 8.89801 25.3362 8.42357H35.3362C35.3362 7.04552 34.8412 5.77483 34.0096 4.74425L26.2271 11.0238ZM25.3362 8.42357C25.3362 7.93255 25.4206 7.39814 25.6238 6.86906C25.8152 6.37045 26.0582 6.01722 26.2272 5.80784L34.0096 12.0874C34.7732 11.1411 35.3362 9.89829 35.3362 8.42357H25.3362ZM26.2271 5.80786C26.4283 5.55858 26.6124 5.39931 26.7309 5.30834C26.8549 5.21314 26.9495 5.16013 26.9997 5.13471L31.518 14.0558C32.3869 13.6157 33.2906 12.9785 34.0096 12.0874L26.2271 5.80786ZM27.1848 5.0457L16.4259 9.95046L20.5741 19.0495L31.3329 14.1448L27.1848 5.0457ZM16.2417 10.039C16.2572 10.0312 16.2186 10.0524 16.1175 10.0746C16.0182 10.0963 15.8915 10.1116 15.7499 10.1116C15.6083 10.1116 15.4816 10.0963 15.3824 10.0746C15.2814 10.0524 15.2429 10.0313 15.2586 10.0392L10.7414 18.9608C13.7721 20.4953 17.7277 20.4951 20.7583 18.961L16.2417 10.039ZM14.9821 9.90967L8.90672 7.28625L4.94244 16.4669L11.0179 19.0903L14.9821 9.90967ZM9.13193 7.3902C8.93292 7.29229 8.72043 7.20324 8.49575 7.12695L5.28044 16.5959C5.08009 16.5279 4.89245 16.4492 4.71722 16.363L9.13193 7.3902ZM9.15533 7.40503L4.70077 5.13874L0.166309 14.0516L4.62087 16.3179L9.15533 7.40503ZM4.69274 5.13466C4.74294 5.16009 4.83752 5.21309 4.9615 5.30827C5.07999 5.39922 5.26405 5.55845 5.46513 5.80763L-2.31712 12.0875C-1.59817 12.9784 -0.694556 13.6156 0.174344 14.0557L4.69274 5.13466ZM5.46526 5.80778C5.63416 6.01711 5.87713 6.37033 6.06859 6.86895C6.27176 7.39806 6.35622 7.93248 6.35622 8.42349H-3.64378C-3.64378 9.89826 -3.08081 11.141 -2.31724 12.0873L5.46526 5.80778ZM6.35451 8.55431C6.35688 8.46392 6.35648 8.38965 6.35586 8.34206C6.35527 8.29741 6.35417 8.25937 6.35412 8.25754L-3.64221 8.5282C-3.64199 8.53635 -3.64282 8.50846 -3.64327 8.47404C-3.64377 8.43669 -3.64416 8.37274 -3.64206 8.29268L6.35451 8.55431ZM6.35071 8.62189C6.32921 9.09069 6.23102 9.56135 6.05349 10.0076C5.87974 10.4444 5.66025 10.7822 5.4644 11.0248L-2.31693 4.74379C-3.07173 5.67889 -3.5785 6.8488 -3.6388 8.16384L6.35071 8.62189ZM5.46499 11.0241C5.26386 11.2733 5.07974 11.4326 4.96123 11.5236C4.83721 11.6188 4.74261 11.6718 4.69241 11.6972L0.174136 2.77616C-0.694785 3.21625 -1.5985 3.85342 -2.31751 4.74452L5.46499 11.0241ZM4.36133 11.85L14.8278 7.47571L10.9717 -1.7509L0.505214 2.62338L4.36133 11.85ZM15.1586 7.32309C15.3507 7.22576 15.586 7.12662 15.8056 7.05941C15.9107 7.02727 15.9873 7.0101 16.0333 7.00201C16.0815 6.99354 16.068 7 16 7V-3C13.7509 -3 11.7135 -2.14145 10.6409 -1.59828L15.1586 7.32309ZM19.2101 13.208V18.7056H29.2101V13.208H19.2101ZM19.2101 18.7056C19.2101 17.7599 19.5423 17.0715 19.735 16.7538C19.8202 16.6133 19.8833 16.5362 19.8755 16.5461C19.866 16.5579 19.8344 16.5963 19.737 16.7076L27.263 23.2924C27.3937 23.143 29.2101 21.3621 29.2101 18.7056H19.2101ZM19.7369 16.7077C19.7442 16.6994 19.8033 16.6327 19.9057 16.5429C19.9561 16.4987 20.0093 16.4556 20.0639 16.4149C20.1181 16.3745 20.1658 16.3423 20.2032 16.3184C20.2719 16.2746 20.298 16.2642 20.2258 16.3013C20.1916 16.3189 20.1443 16.3426 20.075 16.3766C20.0049 16.4109 19.926 16.449 19.8251 16.4978L24.1749 25.5022C24.9611 25.1224 26.1103 24.6099 27.2631 23.2923L19.7369 16.7077ZM19.8239 16.4984C19.0374 16.8786 17.9458 17.1897 16.0857 17.1897V27.1897C19.1573 27.1897 21.7892 26.6554 24.1761 25.5016L19.8239 16.4984ZM16.0857 17.1897C13.9917 17.1897 12.3078 16.8041 11.6783 16.4994L7.32172 25.5006C9.86171 26.7299 13.248 27.1897 16.0857 27.1897V17.1897ZM11.6772 16.4989C11.576 16.4499 11.497 16.4117 11.4265 16.3772C11.3569 16.343 11.3093 16.3191 11.2747 16.3014C11.2017 16.2638 11.2272 16.2739 11.2953 16.3174C11.3325 16.341 11.3801 16.3731 11.4343 16.4135C11.4889 16.4542 11.5424 16.4974 11.5932 16.5419C11.6963 16.6324 11.7564 16.7 11.7651 16.71L4.23493 23.29C5.3893 24.6111 6.54574 25.1252 7.32284 25.5011L11.6772 16.4989ZM11.7662 16.7113C11.8718 16.8322 12.1249 17.1591 12.3088 17.6791C12.492 18.1969 12.5 18.6096 12.5 18.7056H2.5C2.5 19.2583 2.55146 20.0817 2.88131 21.0141C3.21199 21.9489 3.71507 22.6947 4.23376 23.2887L11.7662 16.7113ZM12.5 18.7056V13.5H2.5V18.7056H12.5ZM5.26393 17.9721L10.2639 20.4721L14.7361 11.5279L9.73607 9.02786L5.26393 17.9721ZM10.2414 20.4608C12.0145 21.3586 13.9936 21.6973 15.7501 21.6973C17.5065 21.6973 19.4857 21.3586 21.2589 20.4606L16.7411 11.5394C16.7415 11.5392 16.7351 11.5424 16.7213 11.5482C16.7074 11.5539 16.6874 11.5617 16.6607 11.5708C16.6066 11.5892 16.5322 11.6104 16.4378 11.6303C16.2445 11.671 16.0078 11.6973 15.7501 11.6973C15.4924 11.6973 15.2557 11.671 15.0623 11.6303C14.9678 11.6104 14.8934 11.5891 14.8392 11.5707C14.8125 11.5616 14.7924 11.5539 14.7786 11.5481C14.7647 11.5423 14.7583 11.539 14.7586 11.5392L10.2414 20.4608ZM21.3617 20.4071L26.5718 17.615L21.8484 8.80088L16.6383 11.5929L21.3617 20.4071ZM1.02916 20.3603C-0.686785 20.3603 -1.98789 19.4626 -2.70946 18.5076C-3.39762 17.5967 -3.61985 16.611 -3.61985 15.8228H6.38015C6.38015 14.1904 5.20165 10.3603 1.02916 10.3603V20.3603ZM-3.61985 15.8228C-3.61985 15.0346 -3.39762 14.0489 -2.70946 13.138C-1.9879 12.183 -0.686794 11.2853 1.02916 11.2853V21.2853C5.20166 21.2853 6.38015 17.4552 6.38015 15.8228H-3.61985ZM1.02916 11.2853C2.70601 11.2853 3.97571 12.1437 4.69155 13.0474C5.39467 13.9349 5.66601 14.9426 5.66601 15.8228H-4.33399C-4.33399 17.697 -2.95627 21.2853 1.02916 21.2853V11.2853ZM5.66601 15.8228C5.66601 16.703 5.39467 17.7107 4.69154 18.5982C3.9757 19.5019 2.706 20.3603 1.02916 20.3603V10.3603C-2.95626 10.3603 -4.33399 13.9486 -4.33399 15.8228H5.66601Z"
                        fill="white"
                        mask="url(#path-1-inside-1_3598_1318)"
                      />
                    </svg>