<svg width="41" height="47" viewBox="0 0 41 47" fill="none" xmlns="http://www.w3.org/2000/svg">
<path d="M40.054 47C40.5763 47 41 46.5933 41 46.092C41 45.5902 40.5763 45.1835 40.054 45.1835H35.7456L38.7921 42.3319C39.497 41.7013 39.9924 40.8858 40.2168 39.9867C40.4412 39.0876 40.3844 38.1449 40.054 37.2761C39.5999 36.0653 38.9817 33.7521 38.3824 31.4998C36.8372 26.3836 37.2723 24.1734 32.6361 21.9878L32.6357 21.9882C31.0341 21.2977 29.3327 20.8424 27.5899 20.638C21.5598 20.1717 13.0821 19.7481 8.03597 21.9882C3.41254 24.1983 3.86658 26.2264 2.35926 31.397C1.77276 33.6675 1.16688 36.0107 0.706644 37.2215C0.366974 38.1055 0.311973 39.0667 0.547802 39.981C0.784082 40.8954 1.30063 41.7207 2.03101 42.3499L5.21652 45.1834H0.945976C0.42371 45.1834 0 45.5901 0 46.0919C0 46.5932 0.42371 46.9999 0.945976 46.9999L40.054 47ZM32.2324 45.1835H8.76769L7.56303 31.3735H33.4246L32.2324 45.1835ZM24.2848 22.2125C25.3003 22.2729 26.3224 22.3456 27.3629 22.4427C31.7782 22.9939 34.1247 24.7617 34.7935 26.0757C35.7083 28.1342 37.3164 35.5514 38.2562 37.8704V37.87C38.4718 38.4051 38.518 38.9893 38.3887 39.5496C38.2597 40.1097 37.9614 40.6207 37.5307 41.0185L34.2506 44.0459L35.4302 30.544C35.4518 30.2868 35.3589 30.0333 35.1755 29.8454C34.9915 29.6575 34.7337 29.5527 34.4653 29.557H23.6032L22.9283 25.44L24.2848 22.2125ZM22.2727 22.1276L21.0552 24.9915V24.9919C20.9919 25.1456 20.9725 25.3129 20.9985 25.4763L21.6857 29.557H19.3141L19.9829 25.4518H19.9825C20.0084 25.2884 19.9891 25.1215 19.9257 24.9674L18.6643 22.0912C19.869 22.0916 21.0803 22.0975 22.2911 22.1279L22.2727 22.1276ZM3.3113 41.0128C2.85855 40.6255 2.53735 40.1162 2.38996 39.5515C2.24256 38.9867 2.276 38.3925 2.485 37.8461C3.39974 35.5515 4.9512 28.1584 5.86593 26.1054C6.53471 24.7611 8.88123 22.9932 13.3026 22.4724C14.4065 22.3576 15.5355 22.2668 16.6835 22.2123L18.0712 25.4698L17.3967 29.5568H6.53462C6.27062 29.5593 6.01939 29.667 5.8412 29.8541C5.66301 30.0412 5.57369 30.2908 5.59481 30.5438L6.77446 44.0879L3.3113 41.0128Z" fill="#39407F"/>
<path d="M19.0128 42.2288H21.9903H21.9898C22.5125 42.2288 22.9363 41.8221 22.9363 41.3208C22.9363 40.8191 22.5125 40.4124 21.9898 40.4124H19.0128C18.4901 40.4124 18.0664 40.8191 18.0664 41.3208C18.0664 41.8221 18.4901 42.2288 19.0128 42.2288H19.0128Z" fill="#39407F"/>
<path d="M20.5 39.4553C20.995 39.4553 21.4412 39.1694 21.6303 38.7302C21.82 38.2913 21.7153 37.7862 21.3655 37.4505C21.0152 37.1143 20.489 37.0138 20.0318 37.1958C19.5742 37.3774 19.2764 37.8056 19.2764 38.2808C19.2764 38.9295 19.8242 39.4553 20.4999 39.4553L20.5 39.4553Z" fill="#39407F"/>
<path d="M20.3808 19.408C25.6669 19.5351 30.1829 13.5713 30.0633 8.69115C29.8613 -2.89705 10.9003 -2.89705 10.6986 8.69115C10.5785 13.5713 15.095 19.5355 20.3811 19.408H20.3808ZM14.8238 3.71994C18.7344 0.268568 26.3793 1.53432 27.8683 6.74728C25.8184 7.01377 24.5252 6.58975 23.2322 5.26994H23.2317C23.0491 5.08326 22.7922 4.97979 22.5255 4.98571C22.2593 4.98993 22.0072 5.10227 21.8317 5.29444C19.3655 8.00077 16.4387 8.7336 12.66 7.57716V7.57673C12.8937 6.08923 13.6584 4.72596 14.8239 3.71991L14.8238 3.71994ZM15.9149 9.93214C18.4475 9.93045 20.8666 8.92486 22.601 7.15316C24.1339 8.40031 25.8684 8.81797 28.1643 8.52151C28.3596 12.445 24.6637 17.6639 20.3805 17.5672C16.4065 17.6639 12.912 13.1292 12.6344 9.43587L12.6348 9.43545C13.7053 9.74672 14.8154 9.91396 15.9338 9.93213L15.9149 9.93214Z" fill="#39407F"/>
</svg>
