<svg width="41" height="35" viewBox="0 0 41 35" fill="none" xmlns="http://www.w3.org/2000/svg">
<path d="M34.129 17.9984V3.64323C34.129 3.45 34.039 3.26483 33.8791 3.12796C33.7191 2.99133 33.502 2.91472 33.2757 2.91472H29.0097V2.18597C29.0097 1.40501 28.5218 0.683313 27.7299 0.292768C26.9377 -0.0975894 25.9621 -0.0975894 25.1702 0.292768C24.378 0.68337 23.8904 1.40507 23.8904 2.18597V2.91472H10.2386V2.18597C10.2386 1.40501 9.7507 0.683313 8.9588 0.292768C8.16692 -0.0975894 7.19103 -0.0975894 6.39915 0.292768C5.60726 0.68337 5.11932 1.40507 5.11932 2.18597V2.91472H0.853317C0.381952 2.91472 0 3.24092 0 3.64322V31.333C0 31.5262 0.0899902 31.7114 0.249969 31.8483C0.409947 31.9849 0.627058 32.0615 0.853317 32.0615H23.1055C25.2107 34.0863 28.2951 35.1639 31.4581 34.9797C34.6214 34.7953 37.5061 33.37 39.2694 31.12C41.0331 28.8701 41.4768 26.0493 40.471 23.4815C39.4648 20.9137 37.1229 18.889 34.1289 17.9985L34.129 17.9984ZM25.5966 2.1861C25.5966 1.78379 25.9785 1.45735 26.4499 1.45735C26.921 1.45735 27.3029 1.78379 27.3029 2.1861V5.10086C27.3029 5.50317 26.921 5.82936 26.4499 5.82936C25.9785 5.82936 25.5966 5.50316 25.5966 5.10086V2.1861ZM6.82551 2.1861C6.82551 1.78379 7.20775 1.45735 7.67883 1.45735C8.14991 1.45735 8.53214 1.78379 8.53214 2.1861V5.10086C8.53214 5.50317 8.14991 5.82936 7.67883 5.82936C7.20775 5.82936 6.82551 5.50316 6.82551 5.10086V2.1861ZM1.7062 4.37211H5.11917V5.10086C5.11917 5.88182 5.60711 6.60352 6.399 6.99387C7.19088 7.38448 8.16677 7.38448 8.95866 6.99387C9.75054 6.60352 10.2385 5.88182 10.2385 5.10086V4.37211H23.8902V5.10086C23.8902 5.88182 24.3779 6.60352 25.1701 6.99387C25.962 7.38448 26.9375 7.38448 27.7297 6.99387C28.5216 6.60352 29.0096 5.88182 29.0096 5.10086V4.37211H32.4225V8.74411H1.70663L1.7062 4.37211ZM1.7062 30.6041V10.2012H32.4221V17.6193C29.3505 17.1687 26.2067 17.9445 23.8904 19.725V18.9453C23.8904 18.7521 23.8004 18.5669 23.6404 18.43C23.4804 18.2934 23.2633 18.2168 23.0371 18.2168H19.6241C19.153 18.2168 18.7711 18.543 18.7711 18.9453V21.8601C18.7711 22.0533 18.8608 22.2387 19.0208 22.3753C19.181 22.512 19.3978 22.5888 19.6241 22.5888H21.4073C20.0289 25.1654 20.1975 28.1526 21.8595 30.604L1.7062 30.6041ZM22.1835 21.1313H20.4771V19.674H22.1835V21.1313ZM30.7159 33.519C23.4977 33.519 19.8205 26.3339 23.7365 22.0425C28.523 16.2132 39.248 19.1278 39.248 26.2323C39.248 28.1648 38.349 30.0182 36.7489 31.3847C35.1489 32.7512 32.9786 33.519 30.7157 33.519H30.7159Z" fill="#39407F"/>
<path d="M16.2116 12.3872H12.7986C12.3275 12.3872 11.9453 12.7137 11.9453 13.116V16.0307C11.9453 16.224 12.0353 16.4091 12.1953 16.546C12.3553 16.6826 12.5724 16.7593 12.7986 16.7593H16.2116C16.4379 16.7593 16.6547 16.6826 16.815 16.546C16.9749 16.4091 17.0646 16.224 17.0646 16.0307V13.116C17.0646 12.9228 16.9749 12.7373 16.815 12.6007C16.6547 12.4641 16.4379 12.3872 16.2116 12.3872ZM15.3583 15.302H13.6519V13.8447H15.3583V15.302Z" fill="#39407F"/>
<path d="M19.6235 16.7592H23.0365C23.2628 16.7592 23.4799 16.6826 23.6399 16.546C23.7998 16.4091 23.8898 16.224 23.8898 16.0307V13.116C23.8898 12.9228 23.7998 12.7373 23.6399 12.6007C23.4799 12.4641 23.2628 12.3872 23.0365 12.3872H19.6235C19.1525 12.3872 18.7705 12.7137 18.7705 13.116V16.0307C18.7705 16.224 18.8602 16.4091 19.0202 16.546C19.1805 16.6826 19.3973 16.7592 19.6235 16.7592H19.6235ZM20.4768 13.8445H22.1832V15.3017L20.4768 15.302V13.8445Z" fill="#39407F"/>
<path d="M26.45 16.7592H29.863H29.8627C30.0889 16.7592 30.306 16.6826 30.466 16.546C30.626 16.4091 30.716 16.224 30.716 16.0307V13.116C30.716 12.9228 30.626 12.7373 30.466 12.6007C30.306 12.4641 30.0889 12.3872 29.8627 12.3872H26.45C25.9786 12.3872 25.5967 12.7137 25.5967 13.116V16.0307C25.5967 16.224 25.6867 16.4091 25.8466 16.546C26.0066 16.6826 26.2237 16.7592 26.45 16.7592H26.45ZM27.3033 13.8445H29.0096V15.3017L27.303 15.302L27.3033 13.8445Z" fill="#39407F"/>
<path d="M9.38514 18.217H5.97246C5.50109 18.217 5.11914 18.5432 5.11914 18.9455V21.8603C5.11914 22.0535 5.20913 22.2389 5.36911 22.3755C5.52909 22.5122 5.7462 22.589 5.97246 22.589H9.38543H9.38515C9.61141 22.589 9.82852 22.5122 9.98849 22.3755C10.1485 22.2389 10.2385 22.0535 10.2385 21.8603V18.9455C10.2385 18.7523 10.1485 18.5671 9.98849 18.4302C9.82852 18.2936 9.61141 18.217 9.38515 18.217L9.38514 18.217ZM8.53182 21.1318L6.82548 21.1315V19.6743H8.53182V21.1318Z" fill="#39407F"/>
<path d="M16.2116 18.217H12.7986C12.3275 18.217 11.9453 18.5432 11.9453 18.9455V21.8603C11.9453 22.0535 12.0353 22.2389 12.1953 22.3755C12.3553 22.5122 12.5724 22.589 12.7986 22.589H16.2116C16.4379 22.589 16.6547 22.5122 16.815 22.3755C16.9749 22.2389 17.0646 22.0535 17.0646 21.8603V18.9455C17.0646 18.7523 16.9749 18.5671 16.815 18.4302C16.6547 18.2936 16.4379 18.217 16.2116 18.217V18.217ZM15.3583 21.1318L13.6519 21.1315V19.6743H15.3583V21.1318Z" fill="#39407F"/>
<path d="M9.38514 24.0461H5.97246C5.50109 24.0461 5.11914 24.3723 5.11914 24.7749V27.6896V27.6894C5.11914 27.8826 5.20913 28.068 5.36911 28.2047C5.52909 28.3413 5.7462 28.4181 5.97246 28.4181H9.38543H9.38515C9.61141 28.4181 9.82852 28.3413 9.98849 28.2047C10.1485 28.068 10.2385 27.8826 10.2385 27.6894V24.7749C10.2385 24.5817 10.1485 24.3962 9.98849 24.2596C9.82852 24.123 9.61141 24.0461 9.38515 24.0461L9.38514 24.0461ZM8.53182 26.9609H6.82548V25.5034H8.53182V26.9609Z" fill="#39407F"/>
<path d="M16.2116 24.0461H12.7986C12.3275 24.0461 11.9453 24.3723 11.9453 24.7749V27.6896V27.6894C11.9453 27.8826 12.0353 28.068 12.1953 28.2047C12.3553 28.3413 12.5724 28.4181 12.7986 28.4181H16.2116C16.4379 28.4181 16.6547 28.3413 16.815 28.2047C16.9749 28.068 17.0646 27.8826 17.0646 27.6894V24.7749C17.0646 24.5817 16.9749 24.3962 16.815 24.2596C16.6547 24.123 16.4379 24.0461 16.2116 24.0461V24.0461ZM15.3583 26.9609H13.6519V25.5034H15.3583V26.9609Z" fill="#39407F"/>
<path d="M31.5699 25.933V21.1311C31.5699 20.7288 31.1877 20.4026 30.7166 20.4026C30.2455 20.4026 29.8633 20.7288 29.8633 21.1311V26.2318C29.8633 26.6327 29.8633 26.5451 32.6703 28.9353C33.0052 29.221 33.5474 29.221 33.8822 28.9353C34.2167 28.6494 34.2167 28.1863 33.8822 27.9004L31.5699 25.933Z" fill="#39407F"/>
</svg>
