<svg width="46" height="47" viewBox="0 0 46 47" fill="none" xmlns="http://www.w3.org/2000/svg">
<path d="M32.7107 25.4843C32.864 25.3409 32.915 25.1018 32.915 24.9107L32.3527 20.1294C32.3017 19.6991 31.8927 19.3643 31.4328 19.4123L26.117 19.9383C25.9127 19.9383 25.7081 20.0817 25.5547 20.2251C25.4014 20.3685 25.3504 20.6076 25.3504 20.7987C25.3504 20.9899 25.5038 21.1813 25.6571 21.3247C25.8104 21.4681 26.066 21.5158 26.2703 21.5158L29.7974 21.181L29.695 21.2767L23.6633 28.1622L23.6123 28.1141L19.6253 24.4804C19.472 24.337 19.2673 24.2413 19.063 24.2413H19.0121C18.7564 24.2413 18.5521 24.337 18.3988 24.5281L12.3156 31.0307C12.1623 31.1741 12.1113 31.4132 12.1113 31.6044C12.1113 31.7955 12.2137 31.9869 12.418 32.1303C12.5713 32.2737 12.7759 32.3214 13.0312 32.3214C13.2355 32.3214 13.4912 32.2257 13.5935 32.0823L19.1139 26.2014L19.1649 26.2491L23.1519 29.8828C23.3052 30.0262 23.5609 30.1219 23.7652 30.1219C24.0208 30.1219 24.2251 30.0262 24.3784 29.8351L30.9212 22.424L31.2278 25.1014C31.2788 25.5317 31.6878 25.8665 32.1477 25.8185C32.4041 25.7234 32.6084 25.628 32.7107 25.4843L32.7107 25.4843Z" fill="#39407F"/>
<path d="M10.9354 42.601C10.9354 42.5533 10.6288 38.9673 5.77288 38.9673C0.865653 38.9673 0.610352 42.5533 0.610352 42.601V43.6529C0.610352 43.9397 0.866 44.1788 1.17264 44.1788H10.3733C10.68 44.1788 10.9356 43.9397 10.9356 43.6529L10.9354 42.601Z" fill="#39407F"/>
<path d="M5.66966 38.1068C7.10088 38.1068 8.22541 36.9114 8.22541 35.477C8.22541 33.9948 7.04985 32.8472 5.66966 32.8472C4.23843 32.8472 3.1139 34.0425 3.1139 35.477C3.06292 36.9114 4.23843 38.1068 5.66966 38.1068Z" fill="#39407F"/>
<path d="M45.1317 42.601C45.1317 42.5533 44.8251 38.9673 39.9692 38.9673C35.0619 38.9673 34.8066 42.601 34.8066 42.601V43.6529C34.8066 43.9397 35.0623 44.1788 35.3689 44.1788H44.5696C44.8763 44.1788 45.1319 43.9397 45.1319 43.6529L45.1317 42.601Z" fill="#39407F"/>
<path d="M39.8145 38.1068C41.2458 38.1068 42.3703 36.9114 42.3703 35.477C42.3703 33.9948 41.1947 32.8472 39.8145 32.8472C38.3833 32.8472 37.2588 34.0425 37.2588 35.477C37.2588 36.9114 38.3833 38.1068 39.8145 38.1068Z" fill="#39407F"/>
<path d="M27.8036 9.80142C27.8036 9.75373 27.4969 6.16772 22.641 6.16772C17.7338 6.16772 17.4785 9.80142 17.4785 9.80142V10.8533C17.4785 11.1401 17.7342 11.3793 18.0408 11.3793H27.2415C27.5481 11.3793 27.8038 11.1401 27.8038 10.8533L27.8036 9.80142Z" fill="#39407F"/>
<path d="M22.4884 5.30724C23.9196 5.30724 25.0441 4.11191 25.0441 2.67744C25.0441 1.24297 23.9196 0 22.4884 0C21.0571 0 19.9326 1.19532 19.9326 2.6298C19.9326 4.06393 21.1082 5.30724 22.4884 5.30724Z" fill="#39407F"/>
<path d="M14.7691 6.69383C14.6668 6.45469 14.4111 6.31128 14.1558 6.31128C14.0535 6.31128 13.9515 6.31128 13.9002 6.35897C-5.0635 14.1526 0.865847 32.1301 0.916962 32.3214C1.01929 32.6563 1.42826 32.8474 1.73488 32.7039C1.8882 32.6563 2.04152 32.5605 2.14385 32.4171C2.24618 32.2737 2.24618 32.0823 2.19484 31.9389C2.19484 31.8912 0.712683 27.6359 1.53023 22.4719C2.55244 15.5867 6.8974 10.5665 14.4112 7.50644C14.7689 7.36303 14.9222 7.02851 14.7689 6.69366L14.7691 6.69383Z" fill="#39407F"/>
<path d="M32.0979 6.35897C31.9956 6.31128 31.9446 6.31128 31.8423 6.31128C31.74 6.31128 31.689 6.31128 31.5866 6.35897C31.4333 6.40666 31.28 6.55008 31.2287 6.69382C31.1777 6.83724 31.1777 7.02868 31.2287 7.17209C31.2797 7.3155 31.433 7.45892 31.5866 7.50694C49.4258 14.822 44.0076 31.27 43.8031 31.9394C43.7008 32.2742 43.9055 32.6087 44.2121 32.7044C44.5701 32.8002 44.9277 32.6087 45.03 32.3219C45.132 32.1308 51.1125 14.153 32.0979 6.35947L32.0979 6.35897Z" fill="#39407F"/>
<path d="M31.6373 44.0833C22.3343 47.765 14.7182 44.131 14.616 44.0833C14.5136 44.0356 14.4117 44.0356 14.3093 44.0356C14.2584 44.0356 14.156 44.0356 14.105 44.0833C13.9517 44.131 13.7984 44.2268 13.6961 44.3702C13.5937 44.5136 13.5937 44.705 13.6451 44.8484C13.6961 44.9918 13.7984 45.1353 13.9517 45.231C14.105 45.3267 17.683 47 22.9479 47C26.0659 47 29.133 46.4263 32.0975 45.231C32.4555 45.0876 32.6088 44.7527 32.4555 44.4182C32.4045 44.0833 31.9955 43.9396 31.6375 44.0833L31.6373 44.0833Z" fill="#39407F"/>
</svg>
