<svg width="52" height="56" viewBox="0 0 52 56" fill="none" xmlns="http://www.w3.org/2000/svg">
<path d="M25.9788 13.5499C18.0251 13.5576 11.5547 19.7923 11.5547 27.4562C11.5627 31.3956 13.3019 35.1677 16.4262 37.8524C16.4429 37.8685 17.6376 38.71 17.4398 40.1398C17.4151 40.4019 17.3737 40.6562 17.3329 40.9021C17.0776 42.4988 16.7229 44.6987 19.6326 45.4133C19.7396 45.4449 19.8471 45.461 19.9707 45.4848V49.1539C19.9707 49.3206 19.9626 49.4874 19.954 49.6702C19.9213 50.2657 19.8799 50.9327 20.1438 51.6002C20.5721 52.6722 21.6684 53.5143 23.1357 53.927C23.1852 54.3159 23.3255 54.8083 23.7043 55.2294C24.0177 55.5867 24.6191 56 25.6826 56C26.721 56 27.3397 55.595 27.6771 55.2532C28.0727 54.856 28.2458 54.3873 28.3286 54.0145C28.5838 53.9508 28.8311 53.8876 29.0789 53.784C30.0103 53.4106 30.7519 52.7037 31.1561 51.7907C31.6425 50.6866 31.6011 49.4478 31.5516 48.3676C31.535 48.0341 31.5269 47.7006 31.5269 47.3826L31.5516 45.5162C31.8069 45.4763 32.0047 45.4287 32.1369 45.381C34.3538 44.5473 35.195 42.9192 34.7253 40.4251C34.3464 38.3997 35.9287 37.4629 36.0109 37.4152C36.077 37.3753 36.1425 37.336 36.192 37.28C38.92 34.6592 40.4202 31.1567 40.4202 27.4478C40.411 19.7845 33.9407 13.5499 25.9789 13.5499L25.9788 13.5499ZM28.3935 52.1962C27.7754 52.4422 26.9843 52.4505 26.1926 52.466H25.8712C25.2612 52.4738 24.6846 52.4821 24.124 52.3868C23.0523 52.1962 22.2118 51.7198 21.8984 51.1398H29.498C29.2835 51.6162 28.888 51.9979 28.3935 52.1962L28.3935 52.1962ZM21.7421 49.4246C21.7587 49.3293 21.7587 49.2418 21.7587 49.1548V48.5355H29.7619C29.7866 48.8291 29.7947 49.1232 29.7947 49.4169L21.7421 49.4246ZM29.8607 21.612C30.2483 21.7948 30.7099 21.6912 30.9652 21.3577C31.0394 21.2547 31.1877 21.1987 31.3441 21.207C32.0202 21.2547 32.7285 22.0646 32.9022 22.6923C32.9436 22.9145 32.9683 23.5022 32.9436 23.9471C32.3663 23.8756 31.6988 23.9072 31.1382 24.1931C30.4788 23.6928 29.8193 23.4701 29.7124 23.4386C29.2593 23.2796 28.7562 23.5261 28.5912 23.9787C28.4429 24.4235 28.6901 24.9077 29.1518 25.0667C29.1685 25.0667 29.9429 25.3365 30.3799 25.885C30.5449 26.0994 30.6352 26.3138 30.6438 26.552C30.6765 27.0123 31.0721 27.3541 31.5338 27.3541H31.5999C32.0944 27.3143 32.4571 26.9015 32.4244 26.4329C32.4077 26.1548 32.3422 25.8927 32.2513 25.6384C32.3008 25.6307 32.3583 25.6307 32.4077 25.6307C32.6302 25.6307 32.8774 25.6623 33.0672 25.7182C33.3558 25.9642 33.9819 26.5126 34.0647 26.5919C34.6914 27.2589 34.9138 27.7353 34.7902 28.1725C34.7327 28.3946 34.6091 28.6411 34.4275 28.8954C34.2958 29.0145 33.7019 29.3004 33.1827 29.4832C32.8366 29.6101 32.6141 29.9358 32.6141 30.2931C32.6141 30.6903 32.8447 31 33.0424 31.2698C33.1333 31.3889 33.2977 31.6033 33.3063 31.6986C33.4052 32.2548 33.2983 32.8027 32.993 33.1999C32.7377 33.5257 32.391 33.7162 31.9547 33.7799C31.8477 33.216 31.5511 32.5806 30.9658 32.0804C31.1469 31.7945 31.3119 31.4926 31.4602 31.143C31.666 30.7142 31.4602 30.2056 31.0152 30.0073C30.5622 29.8245 30.0344 30.0151 29.8285 30.4522C29.5646 31.0322 29.3094 31.4289 29.0869 31.7147L29.0788 31.7385C29.046 31.7624 29.0294 31.7939 29.0046 31.8177C28.988 31.8255 28.9719 31.8338 28.9719 31.8416C28.5844 32.2626 28.2957 32.3341 28.1721 32.2942C27.7518 32.0875 27.2327 32.2305 27.0016 32.6199C26.7463 33.0327 26.886 33.549 27.3149 33.7955C27.3971 33.8509 27.7352 34.0177 28.2463 34.0177C28.436 34.0177 28.6666 33.9938 28.9138 33.9146C29.2433 33.8193 29.5485 33.6526 29.8452 33.4144C30.2822 33.8271 30.2488 34.3672 30.2327 34.5024C30.216 34.55 30.216 34.5899 30.216 34.6453C30.1172 34.8359 30.0183 35.0187 29.9274 35.1932C29.6227 35.781 29.4497 36.1145 28.8971 36.3605C28.0974 36.7178 27.2241 36.2336 26.7871 35.9317V29.8008C27.4052 30.3885 28.106 30.6822 28.8724 30.6822C28.9219 30.6822 28.988 30.6744 29.0455 30.6744C29.3421 30.6583 29.606 30.5076 29.7624 30.2617C29.9027 30.0157 29.9188 29.7215 29.7952 29.4672C29.6635 29.1736 29.2346 27.9343 29.713 27.2989C30.0016 26.9178 29.9108 26.3777 29.5152 26.0996C29.103 25.8215 28.551 25.9167 28.2705 26.2979C27.8255 26.9017 27.6852 27.5925 27.7099 28.2279C27.4874 27.9343 27.2482 27.5526 27.0337 27.0845L26.9515 26.9177C26.9021 26.8302 26.8526 26.7587 26.7785 26.7033V19.2699C27.5121 18.563 28.4929 18.9048 28.7482 19.0079C29.4985 19.548 29.548 20.0483 29.391 20.6122C29.2755 21.0166 29.4732 21.4376 29.8608 21.6121L29.8607 21.612ZM29.7619 45.7075L29.7538 46.8193H21.7587V45.6836C22.9788 45.7789 24.4868 45.8188 25.9707 45.8188C27.3305 45.8188 28.6655 45.7789 29.7619 45.7075L29.7619 45.7075ZM35.0122 35.995C34.4683 36.3362 32.4238 37.8299 32.9683 40.7283C33.3805 42.8805 32.4658 43.4129 31.4849 43.7858C31.048 43.9365 29.0535 44.0556 26.8113 44.0877C27.3471 42.8966 27.8582 40.935 27.4046 38.0996C27.6932 38.1711 27.9899 38.2026 28.3032 38.2026C28.7316 38.2026 29.1932 38.1312 29.6382 37.9245C30.7594 37.416 31.1629 36.6459 31.5257 35.9551C31.5918 35.8199 31.666 35.6692 31.7563 35.5185C31.8718 35.5185 32.0035 35.5024 32.1685 35.4869C33.0832 35.3678 33.8829 34.923 34.4269 34.2161C35.0202 33.4538 35.2514 32.4212 35.0697 31.3968C35.0202 31.1348 34.9047 30.8883 34.7811 30.6822C35.2427 30.4678 35.6464 30.2057 35.8527 29.9276C36.0672 29.6257 36.3719 29.157 36.5203 28.6014C36.883 27.2435 36.0505 26.1471 35.3911 25.4403C35.1025 25.1229 34.8472 24.8924 34.6408 24.7018C34.8633 23.7091 34.6327 22.3191 34.6327 22.2953C34.3033 21.0089 33.0252 19.6106 31.4843 19.4915L31.1796 19.4909C31.0065 18.7602 30.5201 18.117 29.7123 17.5691C29.6796 17.5375 29.6382 17.5137 29.5968 17.4976C28.797 17.1087 27.0745 16.7508 25.7395 17.8389C25.0967 17.5214 24.0912 17.1719 23.0114 17.4178C21.9812 17.6638 21.1319 18.3868 20.5139 19.5539C19.6319 19.7207 17.9916 20.2531 17.3241 21.9283C16.8871 23.0164 16.9533 23.8662 17.2085 24.47C16.4669 25.0263 15.5108 25.9952 15.4118 27.3608C15.3049 28.9098 15.7332 30.0609 16.7388 30.8631C16.541 31.6015 16.4174 32.8248 17.1424 34.0558C17.8185 35.223 18.8983 35.5964 19.7716 35.644C19.9694 36.4385 20.4885 37.5264 21.8402 38.1297C22.2772 38.3126 22.7222 38.3918 23.1344 38.3918C24.0658 38.3918 24.9064 38.0184 25.5331 37.6688C26.2995 41.4332 25.2612 43.4271 24.7995 44.0857C22.805 44.0696 20.9422 43.9666 20.085 43.7522C18.8489 43.4502 18.7994 43.0215 19.0961 41.1628C19.1375 40.9007 19.1869 40.6304 19.2117 40.3606C19.5331 37.9226 17.5547 36.5165 17.5467 36.5165C14.8761 34.2136 13.3433 30.9013 13.3433 27.4549C13.3352 20.7439 19.0139 15.2721 25.9788 15.2721C32.9516 15.2643 38.6309 20.7361 38.6309 27.4472C38.6303 30.6731 37.3447 33.7073 35.0122 35.9948L35.0122 35.995ZM21.5443 22.4139C21.9479 23.1523 23.0523 24.3755 24.6023 24.3755C24.734 24.3755 24.8662 24.3595 24.9979 24.3517V35.9312C24.4954 36.2962 23.4237 36.9317 22.5832 36.5666C21.4373 36.058 21.4373 34.8032 21.4373 34.7555V34.7317L23.0529 32.6509C23.0529 32.6509 23.0529 32.6431 23.061 32.6271C23.1352 32.6033 23.3824 32.6587 23.5554 32.7539C23.9677 32.9922 24.5196 32.8653 24.7755 32.4603C25.0307 32.0631 24.8991 31.5313 24.4788 31.2847C24.0832 31.0465 23.5802 30.9036 23.1024 30.9114C22.9621 30.2521 22.6988 29.5214 22.1382 29.1241C21.7427 28.8543 21.1821 28.9258 20.8935 29.2986C20.5968 29.6875 20.679 30.2277 21.0746 30.5058C21.231 30.6487 21.3793 31.2681 21.4374 31.8636L19.8385 33.9284C19.4924 33.9046 19.006 33.7539 18.6926 33.2137C18.0412 32.0941 18.5771 30.9423 18.6018 30.9025C18.8076 30.4897 18.6513 30.0128 18.2477 29.7829C17.6624 29.4571 17.0938 28.9408 17.1926 27.48C17.2501 26.5509 18.1815 25.8757 18.6185 25.6136C19.2118 25.7089 19.9949 25.931 20.506 26.2806C20.1518 26.6141 19.8793 26.9952 19.731 27.2972C19.5251 27.7337 19.7229 28.2423 20.1679 28.4406C20.2915 28.496 20.4151 28.5198 20.5468 28.5198C20.8849 28.5198 21.1982 28.337 21.3546 28.0273C21.4121 27.9082 21.9232 26.9155 22.8961 27.2966C23.3491 27.4634 23.8769 27.2567 24.058 26.8202C24.2477 26.3753 24.0166 25.8751 23.5636 25.7006C23.0691 25.51 22.6155 25.4546 22.2038 25.4784C21.3385 24.438 19.6488 24.0408 18.9072 23.9216C18.8002 23.7388 18.668 23.3261 18.9814 22.5477C19.4758 21.3168 21.0914 21.1977 21.1575 21.1977C21.4955 21.1816 21.8003 20.9755 21.9325 20.6814C22.3361 19.7678 22.8472 19.2361 23.4245 19.0931C23.977 18.9579 24.6031 19.1961 24.9986 19.4105V22.6032C24.9739 22.6032 24.9492 22.6032 24.9164 22.611C23.8533 22.8891 23.1526 21.6736 23.1197 21.6022C22.8972 21.1894 22.3614 21.0221 21.9164 21.2526C21.4783 21.4687 21.3219 21.985 21.5444 22.4138L21.5443 22.4139Z" fill="#39407F"/>
<path d="M7.25164 23.4363C7.15275 23.4363 7.05386 23.4202 6.96303 23.3886L0.600245 21.2679C0.13052 21.109 -0.108653 20.6248 0.0477302 20.1721C0.212739 19.7273 0.71524 19.4813 1.18496 19.6398L7.54775 21.7604C8.01747 21.9194 8.25665 22.4036 8.10026 22.8562C7.9686 23.2141 7.62249 23.4362 7.25166 23.4362L7.25164 23.4363Z" fill="#39407F"/>
<path d="M13.0714 12.7784C12.8242 12.7784 12.577 12.6753 12.3953 12.4847L7.96944 7.59247C7.64805 7.23515 7.68083 6.69501 8.06028 6.37757C8.43111 6.06789 8.99168 6.09947 9.32112 6.4651L13.747 11.3574C14.0683 11.7147 14.0356 12.2548 13.6561 12.5723C13.4923 12.7152 13.2778 12.7784 13.0714 12.7784H13.0714Z" fill="#39407F"/>
<path d="M25.4177 8.20462C24.9233 8.20462 24.5277 7.82347 24.5277 7.3548L24.4863 0.865891C24.4863 0.389456 24.8819 0.00831074 25.3763 0H25.3844C25.8788 0 26.2744 0.381146 26.2744 0.849823L26.3158 7.33873C26.3077 7.81516 25.9122 8.20462 25.4177 8.20462Z" fill="#39407F"/>
<path d="M38.3668 12.906C38.177 12.906 37.9879 12.8506 37.8309 12.7315C37.4354 12.4456 37.3612 11.9055 37.6579 11.5244L41.7296 6.35397C42.0262 5.97283 42.5868 5.90136 42.9824 6.18722C43.3779 6.47307 43.4521 7.01322 43.1554 7.39436L39.0837 12.5647C38.902 12.7947 38.6387 12.906 38.3668 12.906V12.906Z" fill="#39407F"/>
<path d="M44.5724 23.303C44.1688 23.303 43.806 23.0409 43.7071 22.6515C43.5915 22.1911 43.8801 21.7224 44.3585 21.6111L50.8944 20.0466C51.3721 19.9353 51.8585 20.2134 51.9741 20.6743C52.0897 21.1347 51.801 21.6033 51.3227 21.7147L44.7868 23.2791C44.7121 23.2946 44.6465 23.3029 44.5724 23.3029V23.303Z" fill="#39407F"/>
</svg>
