<svg width="52" height="56" viewBox="0 0 52 56" fill="none" xmlns="http://www.w3.org/2000/svg">
<path d="M38.9519 15.167C41.9348 15.167 44.3617 12.2885 44.3617 8.75024C44.3617 5.21197 41.9348 2.3335 38.9519 2.3335C35.9689 2.3335 33.542 5.21197 33.542 8.75024C33.542 12.2885 35.9689 15.167 38.9519 15.167ZM38.9519 4.66708C40.7419 4.66708 42.1979 6.49906 42.1979 8.75024C42.1979 11.0014 40.7419 12.8334 38.9519 12.8334C37.1618 12.8334 35.7059 11.0014 35.7059 8.75024C35.7059 6.49906 37.1618 4.66708 38.9519 4.66708V4.66708Z" fill="#39407F"/>
<path d="M12.9851 15.167C15.968 15.167 18.3949 12.2885 18.3949 8.75024C18.3949 5.21197 15.968 2.3335 12.9851 2.3335C10.0021 2.3335 7.5752 5.21197 7.5752 8.75024C7.5752 12.2885 10.0021 15.167 12.9851 15.167ZM12.9851 4.66708C14.7751 4.66708 16.2311 6.49906 16.2311 8.75024C16.2311 11.0014 14.7751 12.8334 12.9851 12.8334C11.195 12.8334 9.73907 11.0014 9.73907 8.75024C9.73907 6.49906 11.195 4.66708 12.9851 4.66708V4.66708Z" fill="#39407F"/>
<path d="M4.32925 32.6671C4.92736 32.6671 5.41137 32.1448 5.41137 31.5003V25.5918C5.41101 22.4164 7.85421 19.8336 10.856 19.8336H15.8742C15.4138 20.8754 15.149 22.0336 15.149 23.2586V26.8335C15.149 27.4777 15.633 28.0003 16.2311 28.0003C16.8292 28.0003 17.3132 27.4781 17.3132 26.8335V23.2586C17.3132 20.0832 19.756 17.5004 22.7578 17.5004H29.1803C32.1821 17.5004 34.6249 20.0832 34.6249 23.2586V26.8335C34.6249 27.4777 35.1089 28.0003 35.707 28.0003C36.3052 28.0003 36.7892 27.4781 36.7892 26.8335V23.2586C36.7892 22.0336 36.5243 20.8754 36.0639 19.8336H42.199C43.5039 19.8336 45.445 20.4551 45.445 22.1668C45.445 22.8109 45.929 23.3336 46.5271 23.3336C47.1252 23.3336 47.6092 22.8113 47.6092 22.1668C47.6092 19.1031 44.8874 17.5 42.1994 17.5H35.7422C35.3636 17.5 34.9865 17.5442 34.614 17.6047C33.232 16.1031 31.308 15.1672 29.1803 15.1672H22.7578C20.6302 15.1672 18.7061 16.1032 17.324 17.6051C16.952 17.5446 16.5748 17.5004 16.1963 17.5004H10.856C6.66009 17.5004 3.24707 21.1301 3.24707 25.5918V31.5003C3.24707 32.1444 3.73108 32.6671 4.32919 32.6671H4.32925Z" fill="#39407F"/>
<path d="M25.9675 12.8331C28.9505 12.8331 31.3774 9.95462 31.3774 6.41635C31.3774 2.87848 28.9505 0 25.9675 0C22.9845 0 20.5576 2.87848 20.5576 6.41675C20.5576 9.95462 22.9845 12.8331 25.9675 12.8331ZM25.9675 2.33318C27.7575 2.33318 29.2135 4.16517 29.2135 6.41635C29.2135 8.66793 27.7575 10.4999 25.9675 10.4999C24.1775 10.4999 22.7215 8.66793 22.7215 6.41675C22.7215 4.16516 24.1775 2.33318 25.9675 2.33318V2.33318Z" fill="#39407F"/>
<path d="M51.8676 26.7849C51.6266 25.8091 51.0698 25.0619 50.2562 24.6232C47.9165 23.3619 45.1578 26.5779 44.6793 27.1752L38.8332 33.4786C37.5635 32.4645 35.7876 32.6458 35.6321 32.6696C31.4699 32.9778 26.4626 32.7169 25.6511 31.8419C23.0992 29.0892 17.8427 29.7306 14.9357 30.3564C10.8339 31.2408 8.79655 34.3724 8.28248 35.281L7.25683 34.1751C6.83406 33.7192 6.14939 33.7192 5.72695 34.1751L0.317083 40.0082C-0.105694 40.4641 -0.105694 41.2023 0.317083 41.6578L13.3011 55.6577C13.5126 55.8858 13.7894 55.9999 14.0666 55.9999C14.3433 55.9999 14.6201 55.8858 14.8317 55.6581L20.2415 49.8249C20.6643 49.3691 20.6643 48.6309 20.2415 48.1754L19.9246 47.8332H36.7889C40.7069 47.8332 45.6965 40.4144 50.0613 33.1573C50.3076 32.7471 50.5134 32.4042 50.6732 32.1468C51.7995 30.3245 52.2466 28.3206 51.868 26.7847L51.8676 26.7849ZM14.0666 53.1836L2.61284 40.8337L6.49282 36.6502L16.5471 47.4911C16.5478 47.4919 16.5481 47.4923 16.5489 47.493L17.9472 49.0008L14.0666 53.1836ZM48.872 30.8528C48.7093 31.1165 48.497 31.468 48.2445 31.888C42.8133 40.9203 38.9591 45.4999 36.788 45.4999H17.76L9.82037 36.9391C9.91674 36.8473 10.0044 36.741 10.0674 36.611C10.0823 36.5797 11.6469 33.4442 15.3603 32.6438C19.4613 31.7614 22.817 32.086 24.1208 33.4914C26.0249 35.5445 33.525 35.1621 35.8361 34.9914C36.2082 34.9442 37.1748 34.9742 37.6091 35.3891C37.7214 35.4961 37.8703 35.6934 37.8703 36.1668C37.8703 36.6387 37.7235 36.8352 37.6123 36.9422C37.1504 37.3875 36.1459 37.3793 35.8361 37.3422C35.793 37.3363 35.7499 37.3332 35.7064 37.3332H24.8861C24.288 37.3332 23.804 37.8555 23.804 38.5C23.804 39.1441 24.288 39.6668 24.8861 39.6668H35.6489C35.7515 39.6777 35.9311 39.6918 36.1634 39.6918C36.8977 39.6918 38.1469 39.548 39.0449 38.6902C39.4963 38.2589 40.0343 37.4711 40.0343 36.1668C40.0343 35.9399 40.0002 35.7481 39.9709 35.5516L46.2599 28.7672C47.2225 27.5806 48.7535 26.4232 49.2882 26.7107C49.545 26.8486 49.695 27.0564 49.7754 27.3845C49.9866 28.2423 49.624 29.6368 48.8719 30.8529L48.872 30.8528Z" fill="#39407F"/>
</svg>
