<svg width="131" height="115" viewBox="0 0 131 115" fill="none" xmlns="http://www.w3.org/2000/svg">
<rect width="131" height="115" rx="20" fill="#C4C4C4" fill-opacity="0.14"/>
<path d="M43.237 58.6124L22.2883 81.8227C21.459 82.7414 21 83.9351 21 85.1727V97C21 99.7614 23.2386 102 26 102H104C106.761 102 109 99.7614 109 97V72.2036C109 71.2542 108.73 70.3244 108.221 69.5229L91.3942 43.0304C89.5331 40.1001 85.3256 39.9115 83.2097 42.6635L65.2717 65.9944C63.3688 68.4695 59.688 68.6145 57.5961 66.2969L50.6605 58.6124C48.6749 56.4125 45.2225 56.4125 43.237 58.6124Z" fill="#FF7A00" fill-opacity="0.65"/>
<circle cx="109" cy="21" r="8" fill="#FAA354"/>
</svg>
