<svg width="45" height="45" viewBox="0 0 45 45" fill="none" xmlns="http://www.w3.org/2000/svg">
<path d="M44.6855 30.8108L38.7125 31.0081H38.7129C38.589 31.0068 38.4759 31.0788 38.4221 31.1924C38.3686 31.306 38.3846 31.4412 38.4628 31.5389L39.9129 33.3247L39.7968 33.3859L30.3253 41.3823L24.025 35.8812L21.3569 33.5503L20.7059 33.6616L14.416 34.7267V37.5273L20.5511 36.4944L28.2031 43.1713L30.2974 45L32.4197 43.2108L41.529 35.5225L41.6134 35.4113L43.0038 37.1144V37.1148C43.0811 37.2114 43.2063 37.2536 43.3249 37.2237C43.4439 37.1938 43.5352 37.0972 43.5596 36.9749L44.9921 31.2015L44.9924 31.2018C45.0123 31.1068 44.9895 31.0078 44.9302 30.9321C44.8708 30.8564 44.7812 30.8119 44.686 30.8109L44.6855 30.8108Z" fill="#39407F"/>
<path d="M10.9838 32.6147V37.7565H1.32295H1.31352L1.30409 37.7567C1.23046 37.7581 1.15662 37.7381 1.09127 37.6973C1.06233 37.651 1.03855 37.6009 1.02062 37.5481L3.04401 26.8217L3.04404 26.8217L3.04547 26.8138C3.07415 26.6547 3.17306 26.5273 3.30076 26.4627C4.6556 25.7941 7.7105 24.314 9.73104 23.5825C10.1393 23.4355 10.521 23.2227 10.8615 22.9529L10.8633 22.9515L13.2574 21.0904L13.6437 20.7901V20.3009V19.277V18.8107L13.2864 18.5109C12.2704 17.6585 11.4897 16.5464 11.0247 15.2849L10.8538 14.8212L10.3815 14.6754C9.99151 14.5549 9.646 14.3085 9.39835 13.9683L9.39809 13.9679C9.15038 13.6279 9.01467 13.2126 9.01406 12.7835C9.01406 12.7832 9.01406 12.783 9.01406 12.7827L9.01406 10.9947V10.9937C9.01391 10.8351 9.0594 10.6816 9.14263 10.5523L8.33221 10.0306L9.14263 10.5523C9.22553 10.4235 9.34158 10.3255 9.4741 10.2673L10.0721 10.0048V9.35168V6.32452H10.0721L10.0721 6.31724C10.0609 4.7826 10.7652 3.34065 11.9577 2.42902C13.1562 1.52981 14.5945 1.03191 16.0767 1.00005C16.1233 0.999644 16.1684 1.00173 16.2125 1.00626L16.274 1.01256L16.3357 1.01124C17.8918 0.978116 19.4164 1.47519 20.6691 2.42743C21.8629 3.33885 22.5679 4.78157 22.5568 6.31726H22.5568V6.3245V9.35166V10.0048L23.1548 10.2673C23.2873 10.3255 23.4034 10.4235 23.4863 10.5523L23.4867 10.5529C23.5699 10.6819 23.6151 10.8348 23.6148 10.9928V10.9947V12.7827C23.6144 13.2121 23.4787 13.6278 23.2309 13.9682L23.2308 13.9683C22.9834 14.3083 22.6376 14.5549 22.2476 14.6754L21.7756 14.8212L21.6046 15.2847C21.1392 16.5463 20.3585 17.6583 19.3424 18.5109L18.9852 18.8107V19.277V20.3009V20.7901L19.3714 21.0904L21.7714 22.9561C22.111 23.2244 22.4914 23.4361 22.8982 23.5826C24.9188 24.3138 27.9742 25.7942 29.3285 26.4629C29.4554 26.5268 29.5543 26.6536 29.583 26.8133L29.5829 26.8133L29.5848 26.823L31.3256 36.0006L30.3645 36.8136L22.7442 30.1457L22.3866 29.8328L21.9182 29.9124L11.8162 31.6289L10.9838 31.7703V32.6147Z" stroke="#39407F" stroke-width="2"/>
</svg>
