<svg width="45" height="43" viewBox="0 0 45 43" fill="none" xmlns="http://www.w3.org/2000/svg">
<path d="M43.8651 20.3429C44.3995 20.2938 44.9339 20.5892 44.9936 21.0323C45.0528 21.4263 44.6965 21.8203 44.1622 21.9186C40.2425 22.5588 36.7387 22.8543 33.5317 22.8543C18.3879 22.8543 10.5487 16.3538 4.96621 9.5089L1.58089 11.0354C1.22463 11.1831 0.808722 11.1831 0.452416 11.0354C0.0961528 10.8386 -0.0819794 10.5428 0.0364993 10.2474L2.23374 0.644629C2.29298 0.398333 2.47111 0.201503 2.76814 0.102916C3.06516 0.00432908 3.36218 -0.0447928 3.65878 0.0537948L15.1206 3.69801C15.4769 3.7966 15.7739 4.09202 15.7739 4.38743C15.7739 4.68284 15.5365 4.97826 15.1799 5.12596L11.7354 6.40624C20.9414 21.5245 42.915 20.3918 43.8652 20.3426L43.8651 20.3429ZM9.36078 6.25883C9.12341 5.86483 9.36078 5.42171 9.89517 5.22451L12.2113 4.38739L4.07527 1.82656L2.5313 8.72069L4.84742 7.68637C5.08479 7.58778 5.38182 7.53866 5.61959 7.58778C5.91661 7.6369 6.09475 7.78461 6.27288 7.93266C11.8554 15.123 19.2194 21.475 34.2445 21.2789C26.1085 19.9492 15.0623 16.3544 9.36104 6.25921L9.36078 6.25883Z" fill="#39407F"/>
<path d="M40.4825 30.3934C42.5016 30.3934 44.1052 31.8708 44.1052 33.7419V39.6512C44.1052 41.5226 42.5016 42.9997 40.4825 42.9997L35.5533 43C33.5342 43 31.9307 41.5226 31.9307 39.6515V33.7422C31.9307 31.8708 33.5342 30.3937 35.5533 30.3937L40.4825 30.3934ZM34.0093 33.7422V39.6515C34.0093 40.5873 34.7219 41.4735 35.5533 41.4735H40.4825C41.3139 41.4735 42.0265 40.6364 42.0265 39.6515V33.7422C42.0265 32.8065 41.314 31.9202 40.4825 31.9202L35.5533 31.9199C34.7219 31.9199 34.0093 32.8065 34.0093 33.7422V33.7422Z" fill="#39407F"/>
<path d="M25.5069 24.822C27.526 24.822 29.1296 26.2995 29.1296 28.1705V39.5954C29.1296 41.4668 27.526 42.9439 25.5069 42.9439H20.5777C18.5587 42.9439 16.9551 41.4664 16.9551 39.5954L16.9555 28.2198C16.9555 26.3484 18.5591 24.8713 20.5781 24.8713H25.507L25.5069 24.822ZM19.0338 28.22V39.6449C19.0338 40.5806 19.7463 41.4669 20.5777 41.4669H25.5069C26.3383 41.4669 27.0509 40.6297 27.0509 39.6449L27.0513 28.22C27.0513 27.2843 26.3388 26.3981 25.5073 26.3981H20.5781C19.7463 26.3981 19.0339 27.2352 19.0339 28.22H19.0338Z" fill="#39407F"/>
<path d="M4.12949 18.1795H9.05868C11.0778 18.1795 12.6813 19.657 12.6813 21.528V39.601C12.6813 41.4724 11.0778 42.9495 9.05868 42.9495H4.12949C2.11041 42.9495 0.506836 41.472 0.506836 39.601V21.5773C0.506836 19.6567 2.11041 18.1793 4.12949 18.1793V18.1795ZM2.6448 39.6504C2.6448 40.5861 3.35732 41.4724 4.18877 41.4724H9.11796C9.94937 41.4724 10.6619 40.6352 10.6619 39.6504V21.5774C10.6619 20.6417 9.94941 19.7555 9.11796 19.7555H4.18877C3.35737 19.7555 2.6448 20.5926 2.6448 21.5774V39.6504Z" fill="#39407F"/>
</svg>
