<svg width="245" height="151" viewBox="0 0 245 151" fill="none" xmlns="http://www.w3.org/2000/svg">
<g filter="url(#filter0_d_773:200)">
<path d="M22.4645 142.563C22.4645 142.563 -6.12369 106.564 7.84442 69.5045C16.9514 45.3474 51.1096 32.1107 70.3919 45.3474C78.603 50.9853 104.947 45.5376 119.012 22.1971C146.35 -23.1589 241.745 4.38614 224.378 74.0236C215.974 107.724 249.956 108.944 232.641 142.634L22.4645 142.563Z" fill="#EBF3FA"/>
</g>
<path d="M43.6258 83.3153C43.6258 83.3153 40.7426 79.7993 43.4481 77.5655C43.4481 77.5655 45.4244 76.3153 47.0351 76.4166C47.0351 76.4166 44.752 80.4151 45.4907 80.8167C46.2293 81.2183 47.7279 76.1634 47.7279 76.1634C47.7279 76.1634 52.2244 75.7075 53.6711 76.4299C53.6711 76.4299 49.8265 79.7176 50.6366 79.9139C51.4467 80.1103 55.5989 76.8822 55.5989 76.8822C55.5989 76.8822 59.7843 77.6268 59.5608 80.296C59.3372 82.9652 57.8956 83.7889 57.2658 83.7178C56.6359 83.6467 52.924 82.1673 52.8458 82.7102C52.7676 83.2531 54.9971 85.0276 56.5603 85.1093C56.5603 85.1093 53.6091 88.5116 51.6481 87.5297C49.6871 86.5479 49.5231 84.992 48.2974 84.4082C47.0717 83.8245 46.0313 83.8253 46.5353 84.4207C47.0394 85.016 49.2553 85.5944 49.9523 86.8873C50.6493 88.1801 51.2784 89.0518 49.2494 88.7328C47.2204 88.4138 43.9224 86.8615 43.7771 85.0844L43.6258 83.3153Z" fill="#C8DBF4"/>
<path d="M57.5071 80.3762C57.5071 80.3762 46.1392 79.9177 43.6282 83.3164C43.6282 83.3164 43.0732 85.0544 41.3647 86.6378L41.0986 87.3966C41.0986 87.3966 43.0681 85.225 43.7727 85.0935C43.7693 85.0935 42.6677 80.8835 57.5071 80.3762Z" fill="#C8DBF4"/>
<path d="M41.3624 86.6385C41.3624 86.6385 38.9221 88.5249 38.7529 91.8952L39.1958 91.937C39.1958 91.937 39.9752 88.4512 41.3837 87.089C42.7921 85.7269 41.3624 86.6385 41.3624 86.6385Z" fill="#C8DBF4"/>
<path d="M33.5449 78.8938C33.5449 78.8938 38.1306 76.2095 35.9903 72.5656C35.9903 72.5656 34.2784 70.3282 32.4441 69.7533C32.4441 69.7533 33.4225 75.1868 32.4441 75.3147C31.4658 75.4427 31.7709 69.1775 31.7709 69.1775C31.7709 69.1775 26.9404 66.7456 25.0448 66.9402C25.0448 66.9402 28.0411 72.2457 27.0628 72.1177C26.0844 71.9898 22.7209 66.6203 22.7209 66.6203C22.7209 66.6203 17.7671 65.6615 16.9724 68.7306C16.1776 71.7996 17.462 73.3324 18.1955 73.5243C18.9291 73.7162 23.6355 73.6523 23.5157 74.292C23.3958 74.9318 20.2134 75.9536 18.4403 75.3787C18.4403 75.3787 20.3953 80.4284 22.9649 80.1725C25.5344 79.9166 26.3283 78.255 27.9187 78.1288C29.5091 78.0026 30.6702 78.4487 29.8737 78.8956C29.0773 79.3426 26.3887 79.0431 25.1035 80.184C23.8183 81.3249 22.7804 82.0286 25.1647 82.5396C27.549 83.0505 31.8304 82.7315 32.6864 80.814L33.5449 78.8938Z" fill="#C8DBF4"/>
<path d="M19.2354 69.6895C19.2354 69.6895 32.0772 74.0362 33.5452 78.8939C33.5452 78.8939 33.484 81.0682 34.7675 83.5606V84.5167C34.7675 84.5167 33.4228 81.2557 32.6884 80.8088C32.6875 80.8123 35.5631 76.5935 19.2354 69.6895Z" fill="#C8DBF4"/>
<path d="M34.7673 83.5613C34.7673 83.5613 36.7478 86.7059 35.6173 90.532L35.1073 90.3889C35.1073 90.3889 35.602 86.1745 34.5659 84.0545C33.5297 81.9344 34.7673 83.5613 34.7673 83.5613Z" fill="#C8DBF4"/>
<path d="M40.8417 75.191C40.8417 75.191 34.7956 71.6519 37.6176 66.8493C37.6176 66.8493 39.8752 63.8993 42.2926 63.1414C42.2926 63.1414 41.0023 70.304 42.2926 70.4728C43.583 70.6416 43.1792 62.3826 43.1792 62.3826C43.1792 62.3826 49.5474 59.1838 52.0464 59.4335C52.0464 59.4335 48.0965 66.4272 49.3859 66.2593C50.6754 66.0914 55.1099 59.015 55.1099 59.015C55.1099 59.015 61.6387 57.7514 62.6868 61.7961C63.7348 65.8408 62.0416 67.8631 61.0718 68.1155C60.1019 68.3678 53.8977 68.2843 54.0592 69.1267C54.2207 69.969 58.4121 71.3178 60.7496 70.559C60.7496 70.559 58.1699 77.216 54.7843 76.8793C51.3987 76.5425 50.3507 74.3513 48.2554 74.1825C46.1602 74.0137 44.6276 74.6037 45.6757 75.1937C46.7237 75.7837 50.2657 75.3874 51.9657 76.8917C53.6657 78.396 55.0257 79.3228 51.8849 79.9972C48.7442 80.6716 43.0985 80.2513 41.9705 77.719L40.8417 75.191Z" fill="#D4E4F8"/>
<path d="M59.704 63.0566C59.704 63.0566 42.7762 68.7887 40.8416 75.1907C40.8416 75.1907 40.9266 78.0563 39.2266 81.3421V82.6065C39.2266 82.6065 40.9997 78.3086 41.9678 77.7195C41.9704 77.7186 38.1811 72.1572 59.704 63.0566Z" fill="#D4E4F8"/>
<path d="M39.233 81.3432C39.233 81.3432 36.6226 85.4873 38.111 90.5316L38.7825 90.3433C38.7825 90.3433 38.1305 84.7872 39.4965 81.9909C40.8625 79.1946 39.233 81.3432 39.233 81.3432Z" fill="#D4E4F8"/>
<path d="M40.6372 101.472C43.7782 101.472 46.7905 100.168 49.0115 97.8459C51.2325 95.5242 52.4803 92.3752 52.4803 89.0918H28.7949C28.7949 92.3751 30.0426 95.5239 32.2634 97.8456C34.4842 100.167 37.4963 101.472 40.6372 101.472V101.472Z" fill="#D4E4F8"/>
<path d="M30.092 100.572H51.1823C51.5698 100.572 51.9415 100.733 52.2155 101.02C52.4895 101.306 52.6435 101.695 52.6435 102.1V102.1H28.6309C28.6309 101.899 28.6687 101.7 28.7421 101.515C28.8155 101.33 28.9231 101.161 29.0588 101.02C29.1945 100.878 29.3556 100.765 29.5329 100.689C29.7101 100.612 29.9001 100.572 30.092 100.572V100.572Z" fill="#D4E4F8"/>
<path d="M52.7504 89.0918H28.4062V89.4712H52.7504V89.0918Z" fill="#9FC1F4"/>
<path d="M101.746 142.304H101.804C102.283 142.295 102.654 141.887 102.608 141.416L99.4124 108.088L96.627 108.348L101.211 141.854C101.232 141.984 101.298 142.102 101.397 142.185C101.495 142.268 101.619 142.31 101.746 142.304V142.304Z" fill="#8CB4F4"/>
<path d="M71.0085 142.305H70.9498C70.4713 142.296 70.0998 141.888 70.1466 141.417L73.3392 108.09L76.1246 108.35L71.5406 141.855C71.5194 141.985 71.4537 142.102 71.3558 142.185C71.2578 142.268 71.1344 142.311 71.0085 142.305V142.305Z" fill="#8CB4F4"/>
<path d="M124.267 142.304H124.325C124.804 142.295 125.175 141.887 125.129 141.416L121.938 108.088L119.152 108.348L123.736 141.854C123.757 141.983 123.823 142.101 123.92 142.183C124.018 142.266 124.141 142.309 124.267 142.304V142.304Z" fill="#8CB4F4"/>
<path d="M71.9579 103.242L66.2918 73.9901C65.5642 70.0298 68.7032 66.4081 72.7799 66.5058L83.7084 66.7662C85.5453 66.8102 87.3209 67.4658 88.7769 68.6375C90.2328 69.8092 91.2932 71.4359 91.8038 73.281L100.093 103.242H71.9579Z" fill="#8CB4F4"/>
<path d="M75.3866 103.242L69.7205 73.9901C68.9929 70.0334 72.132 66.4081 76.2077 66.5058L87.1362 66.7662C88.9732 66.8102 90.7488 67.4658 92.2047 68.6375C93.6607 69.8092 94.7211 71.4359 95.2317 73.281L103.522 103.242H75.3866Z" fill="#8CB4F4"/>
<path d="M116.774 108.576H73.538C73.1192 108.576 72.7175 108.402 72.4213 108.093C72.1251 107.783 71.9587 107.363 71.9587 106.925V103.241H116.774C116.982 103.241 117.187 103.284 117.379 103.367C117.571 103.45 117.745 103.571 117.892 103.725C118.038 103.878 118.155 104.06 118.234 104.26C118.314 104.461 118.354 104.675 118.354 104.892V106.925C118.354 107.142 118.314 107.357 118.234 107.557C118.155 107.758 118.038 107.94 117.892 108.093C117.745 108.246 117.571 108.368 117.379 108.451C117.187 108.534 116.982 108.576 116.774 108.576Z" fill="#8CB4F4"/>
<path d="M93.8283 108.576H121.39C122.092 108.576 122.662 107.981 122.662 107.246V104.571C122.662 103.837 122.092 103.241 121.39 103.241H93.8283C93.1255 103.241 92.5558 103.837 92.5558 104.571V107.246C92.5558 107.981 93.1255 108.576 93.8283 108.576Z" fill="#8CB4F4"/>
<path d="M59.0578 102.861V103.859C59.0578 104.208 58.949 104.493 58.8172 104.493H23.9798C23.8472 104.493 23.7393 104.208 23.7393 103.859V102.861C23.7393 102.512 23.8472 102.227 23.9798 102.227H58.8172C58.9524 102.227 59.0578 102.512 59.0578 102.861Z" fill="#9ABFE2"/>
<path d="M59.0585 102.861V103.859C59.0585 104.208 58.9591 104.493 58.8375 104.493H31.1801C31.0594 104.493 30.96 104.208 30.96 103.859V102.861C30.96 102.512 31.0594 102.227 31.1801 102.227H58.8375C58.9591 102.227 59.0585 102.512 59.0585 102.861Z" fill="#BAD4F4"/>
<path d="M50.2404 104.494H25.5078V142.178H50.2404V104.494Z" fill="#C8DBF4"/>
<path d="M57.171 104.494H32.4385V142.178H57.171V104.494Z" fill="#DFEBFD"/>
<path d="M55.8431 140.097H33.7686V105.559H55.8431V140.097ZM34.0074 139.848H55.6051V105.807H34.0074V139.848Z" fill="#B7D3F3"/>
<path d="M55.7233 116.984H33.8867V117.233H55.7233V116.984Z" fill="#B7D3F3"/>
<path d="M55.7233 128.633H33.8867V128.882H55.7233V128.633Z" fill="#B7D3F3"/>
<path d="M47.0436 107.785H42.9916C42.8968 107.785 42.8059 107.746 42.7388 107.675C42.6718 107.605 42.634 107.51 42.6338 107.411V107.411C42.634 107.312 42.6718 107.217 42.7388 107.147C42.8059 107.077 42.8968 107.037 42.9916 107.037H47.0436C47.1383 107.038 47.229 107.077 47.2958 107.147C47.3627 107.217 47.4004 107.312 47.4006 107.411V107.411C47.4004 107.51 47.3627 107.605 47.2958 107.675C47.229 107.745 47.1383 107.785 47.0436 107.785V107.785Z" fill="#B7D3F3"/>
<path d="M47.0436 119.177H42.9916C42.8969 119.177 42.806 119.138 42.7389 119.068C42.6718 118.998 42.634 118.903 42.6338 118.804C42.634 118.705 42.6718 118.61 42.7388 118.54C42.8059 118.469 42.8968 118.43 42.9916 118.43H47.0436C47.1384 118.43 47.2292 118.469 47.2961 118.54C47.363 118.61 47.4006 118.705 47.4006 118.804V118.804C47.4004 118.903 47.3627 118.997 47.2958 119.067C47.2289 119.137 47.1382 119.177 47.0436 119.177V119.177Z" fill="#B7D3F3"/>
<path d="M47.0436 131.052H42.9916C42.8968 131.052 42.8059 131.012 42.7388 130.942C42.6718 130.872 42.634 130.777 42.6338 130.678V130.678C42.634 130.579 42.6718 130.484 42.7389 130.414C42.806 130.344 42.8969 130.305 42.9916 130.305H47.0436C47.1382 130.305 47.2289 130.344 47.2958 130.414C47.3627 130.484 47.4004 130.579 47.4006 130.678V130.678C47.4006 130.777 47.363 130.872 47.2961 130.942C47.2292 131.012 47.1384 131.052 47.0436 131.052V131.052Z" fill="#B7D3F3"/>
<path d="M156.152 18.1855H140.474C139.752 18.1855 139.166 18.7978 139.166 19.553V35.371C139.166 36.1262 139.752 36.7385 140.474 36.7385H156.152C156.874 36.7385 157.46 36.1262 157.46 35.371V19.553C157.46 18.7978 156.874 18.1855 156.152 18.1855Z" fill="#C0D8FB"/>
<path d="M155.473 18.9883H141.154C140.494 18.9883 139.959 19.5476 139.959 20.2376V34.6845C139.959 35.3745 140.494 35.9338 141.154 35.9338H155.473C156.133 35.9338 156.668 35.3745 156.668 34.6845V20.2376C156.668 19.5476 156.133 18.9883 155.473 18.9883Z" fill="#DFEBFD"/>
<path d="M148.313 21.0777C148.522 21.0777 148.692 20.9003 148.692 20.6814C148.692 20.4626 148.522 20.2852 148.313 20.2852C148.103 20.2852 147.934 20.4626 147.934 20.6814C147.934 20.9003 148.103 21.0777 148.313 21.0777Z" fill="#B7D3F3"/>
<path d="M150.992 21.2405C151.029 21.172 151.084 21.1164 151.151 21.0807C151.217 21.045 151.293 21.0307 151.367 21.0397C151.442 21.0488 151.512 21.0807 151.569 21.1314C151.626 21.1821 151.667 21.2494 151.688 21.3248C151.709 21.4001 151.707 21.4802 151.684 21.5548C151.661 21.6294 151.618 21.6952 151.559 21.7439C151.5 21.7926 151.429 21.822 151.354 21.8284C151.28 21.8348 151.205 21.8179 151.139 21.7798C151.096 21.7545 151.057 21.7205 151.026 21.6797C150.995 21.6389 150.973 21.5921 150.959 21.542C150.945 21.4919 150.941 21.4395 150.947 21.3878C150.953 21.336 150.968 21.286 150.992 21.2405V21.2405Z" fill="#B7D3F3"/>
<path d="M153.611 23.4169C153.674 23.3744 153.748 23.3523 153.823 23.3536C153.898 23.3548 153.971 23.3792 154.033 23.4238C154.094 23.4684 154.142 23.5311 154.169 23.6041C154.197 23.677 154.203 23.7568 154.187 23.8334C154.172 23.9101 154.134 23.9801 154.081 24.0346C154.027 24.0891 153.958 24.1257 153.885 24.1397C153.811 24.1537 153.735 24.1445 153.666 24.1133C153.597 24.0821 153.539 24.0302 153.498 23.9643C153.471 23.9206 153.453 23.8718 153.444 23.8206C153.435 23.7695 153.436 23.7169 153.446 23.6661C153.457 23.6152 153.477 23.5671 153.505 23.5243C153.533 23.4816 153.569 23.4451 153.611 23.4169V23.4169Z" fill="#B7D3F3"/>
<path d="M154.909 26.7852C154.984 26.7852 155.058 26.8084 155.12 26.852C155.182 26.8956 155.231 26.9575 155.26 27.03C155.288 27.1025 155.296 27.1822 155.281 27.2591C155.266 27.336 155.23 27.4066 155.177 27.462C155.124 27.5174 155.056 27.555 154.983 27.5702C154.909 27.5854 154.833 27.5775 154.764 27.5473C154.694 27.5172 154.635 27.4663 154.594 27.401C154.552 27.3357 154.53 27.259 154.53 27.1806C154.53 27.1286 154.54 27.0771 154.559 27.029C154.578 26.981 154.606 26.9374 154.641 26.9007C154.677 26.8639 154.718 26.8348 154.764 26.815C154.81 26.7952 154.86 26.785 154.909 26.7852V26.7852Z" fill="#B7D3F3"/>
<path d="M154.247 30.6923C154.299 30.7476 154.335 30.8181 154.35 30.8948C154.364 30.9714 154.357 31.0509 154.328 31.1231C154.3 31.1953 154.251 31.257 154.189 31.3004C154.127 31.3438 154.054 31.367 153.979 31.367C153.904 31.367 153.831 31.3438 153.769 31.3004C153.707 31.257 153.658 31.1953 153.629 31.1231C153.601 31.0509 153.593 30.9714 153.608 30.8948C153.622 30.8181 153.658 30.7476 153.711 30.6923C153.746 30.6555 153.788 30.6263 153.834 30.6064C153.88 30.5864 153.929 30.5762 153.979 30.5762C154.029 30.5762 154.078 30.5864 154.124 30.6064C154.17 30.6263 154.211 30.6555 154.247 30.6923V30.6923Z" fill="#B7D3F3"/>
<path d="M151.868 33.1869C151.921 33.2423 151.957 33.3129 151.972 33.3898C151.986 33.4666 151.979 33.5463 151.95 33.6187C151.921 33.6911 151.873 33.753 151.81 33.7965C151.748 33.84 151.675 33.8633 151.6 33.8633C151.525 33.8633 151.452 33.84 151.389 33.7965C151.327 33.753 151.278 33.6911 151.25 33.6187C151.221 33.5463 151.213 33.4666 151.228 33.3898C151.243 33.3129 151.279 33.2423 151.332 33.1869C151.367 33.1499 151.409 33.1206 151.455 33.1006C151.501 33.0806 151.55 33.0703 151.6 33.0703C151.65 33.0703 151.699 33.0806 151.745 33.1006C151.791 33.1206 151.833 33.1499 151.868 33.1869Z" fill="#B7D3F3"/>
<path d="M147.935 34.4705C147.935 34.3921 147.957 34.3154 147.999 34.2503C148.04 34.1851 148.099 34.1343 148.169 34.1043C148.238 34.0743 148.314 34.0665 148.388 34.0819C148.462 34.0973 148.529 34.1351 148.582 34.1906C148.635 34.2461 148.671 34.3168 148.686 34.3937C148.7 34.4707 148.692 34.5504 148.664 34.6228C148.635 34.6952 148.586 34.757 148.524 34.8005C148.461 34.8439 148.388 34.867 148.313 34.8668C148.263 34.8668 148.214 34.8566 148.168 34.8366C148.122 34.8167 148.08 34.7875 148.045 34.7507C148.01 34.7139 147.982 34.6702 147.963 34.6221C147.944 34.574 147.934 34.5225 147.935 34.4705V34.4705Z" fill="#B7D3F3"/>
<path d="M145.622 21.2405C145.586 21.172 145.531 21.1164 145.464 21.0807C145.397 21.045 145.322 21.0307 145.248 21.0397C145.173 21.0488 145.103 21.0807 145.046 21.1314C144.989 21.1821 144.947 21.2494 144.927 21.3248C144.906 21.4001 144.907 21.4802 144.93 21.5548C144.953 21.6294 144.997 21.6952 145.056 21.7439C145.114 21.7926 145.186 21.822 145.26 21.8284C145.335 21.8348 145.41 21.8179 145.475 21.7798C145.563 21.7286 145.628 21.643 145.655 21.5419C145.683 21.4408 145.671 21.3324 145.622 21.2405V21.2405Z" fill="#B7D3F3"/>
<path d="M143.003 23.4169C142.94 23.3744 142.866 23.3523 142.791 23.3536C142.716 23.3548 142.643 23.3792 142.581 23.4238C142.52 23.4684 142.472 23.5311 142.445 23.6041C142.417 23.677 142.411 23.7568 142.427 23.8334C142.442 23.9101 142.48 23.9801 142.533 24.0346C142.587 24.0891 142.656 24.1257 142.729 24.1397C142.803 24.1537 142.879 24.1445 142.948 24.1133C143.017 24.0821 143.075 24.0302 143.116 23.9643C143.17 23.876 143.189 23.7688 143.168 23.6662C143.146 23.5636 143.087 23.4739 143.003 23.4169V23.4169Z" fill="#B7D3F3"/>
<path d="M141.704 26.7852C141.629 26.7852 141.556 26.8084 141.494 26.852C141.431 26.8956 141.383 26.9575 141.354 27.03C141.325 27.1025 141.318 27.1822 141.333 27.2591C141.347 27.336 141.383 27.4066 141.437 27.462C141.49 27.5174 141.557 27.555 141.631 27.5702C141.704 27.5854 141.781 27.5775 141.85 27.5473C141.919 27.5172 141.978 27.4663 142.02 27.401C142.061 27.3357 142.084 27.259 142.083 27.1806C142.083 27.0756 142.043 26.975 141.972 26.9009C141.901 26.8268 141.805 26.7852 141.704 26.7852V26.7852Z" fill="#B7D3F3"/>
<path d="M142.367 30.6927C142.315 30.748 142.279 30.8184 142.264 30.8951C142.25 30.9718 142.257 31.0513 142.286 31.1235C142.314 31.1957 142.363 31.2574 142.425 31.3008C142.487 31.3442 142.56 31.3674 142.635 31.3674C142.71 31.3674 142.783 31.3442 142.845 31.3008C142.907 31.2574 142.956 31.1957 142.984 31.1235C143.013 31.0513 143.021 30.9718 143.006 30.8951C142.992 30.8184 142.956 30.748 142.903 30.6927C142.868 30.6557 142.826 30.6264 142.78 30.6065C142.734 30.5865 142.685 30.5762 142.635 30.5762C142.585 30.5762 142.536 30.5865 142.49 30.6065C142.444 30.6264 142.402 30.6557 142.367 30.6927V30.6927Z" fill="#B7D3F3"/>
<path d="M145.015 33.8629C145.224 33.8629 145.394 33.6855 145.394 33.4666C145.394 33.2477 145.224 33.0703 145.015 33.0703C144.805 33.0703 144.636 33.2477 144.636 33.4666C144.636 33.6855 144.805 33.8629 145.015 33.8629Z" fill="#B7D3F3"/>
<path d="M148.211 27.1795C148.211 27.1011 148.233 27.0245 148.275 26.9593C148.316 26.8942 148.376 26.8434 148.445 26.8134C148.514 26.7834 148.59 26.7755 148.664 26.7908C148.738 26.8061 148.805 26.8439 148.858 26.8993C148.911 26.9547 148.947 27.0253 148.962 27.1022C148.976 27.1791 148.969 27.2587 148.94 27.3312C148.912 27.4036 148.863 27.4655 148.801 27.509C148.738 27.5525 148.665 27.5758 148.59 27.5758C148.49 27.5758 148.393 27.534 148.322 27.4597C148.251 27.3854 148.211 27.2846 148.211 27.1795V27.1795Z" fill="#B7D3F3"/>
<path d="M148.642 22.2324H148.538V27.1817H148.642V22.2324Z" fill="#B7D3F3"/>
<path d="M150.958 24.9912L148.448 27.0508L148.64 27.3059L151.15 25.2463L150.958 24.9912Z" fill="#B7D3F3"/>
<path d="M109.624 97.1189C107.284 101.375 104.343 103.017 104.343 103.017H92.1025C92.1025 103.017 111.408 93.873 109.624 97.1189Z" fill="#233862"/>
<path d="M124.719 139.399C124.588 140.741 126.374 141.087 128.445 141.219C130.516 141.352 129.89 141.787 132.721 142.356C135.551 142.926 136.702 142.126 136.912 141.727C137.098 141.372 135.783 140.802 134.382 140.157C134.206 140.076 134.03 139.994 133.854 139.91C132.277 139.165 131.403 137.67 130.182 136.28C129.026 134.962 127.959 130.771 127.959 130.771L124.107 129.865C124.107 129.865 125.153 133.635 125.512 135.244C125.724 136.19 125.387 137.241 125.087 138.041C124.929 138.481 124.766 138.926 124.719 139.399Z" fill="#FFB27D"/>
<path d="M128.445 141.219C130.517 141.349 129.89 141.787 132.721 142.356C135.551 142.926 136.702 142.126 136.912 141.727C137.098 141.372 135.783 140.802 134.383 140.157L134.36 140.182C132.953 140.589 131.466 140.591 130.058 140.187C128.188 139.633 126.38 138.439 125.089 138.045C124.929 138.48 124.766 138.925 124.72 139.398C124.588 140.741 126.374 141.087 128.445 141.219Z" fill="#0F2549"/>
<path d="M118.885 92.7609C116.813 91.2406 103.106 88.5288 96.1104 87.7442L88.3754 80.7246C88.3754 80.7246 81.7938 90.9145 81.7454 98.7098C81.7216 102.344 83.323 102.708 83.323 102.708C83.323 102.708 108.108 102.901 109.195 103.017C110.973 103.209 113.318 107.841 113.904 112.058C114.491 116.276 124.828 133.433 124.828 133.433C124.828 133.433 126.983 134.155 127.98 134.094C129.051 134.028 129.548 133.649 129.548 133.649C129.548 133.649 123.558 96.1916 118.885 92.7609Z" fill="#233862"/>
<path d="M118.308 139.399C118.177 140.741 119.962 141.087 122.034 141.219C124.105 141.352 123.475 141.787 126.309 142.356C129.144 142.926 130.291 142.126 130.5 141.727C130.687 141.372 129.372 140.802 127.971 140.157C127.795 140.076 127.618 139.994 127.442 139.91C125.866 139.165 124.992 137.67 123.771 136.28C122.615 134.962 121.548 130.771 121.548 130.771L117.696 129.865C117.696 129.865 118.742 133.635 119.101 135.244C119.313 136.19 118.976 137.241 118.676 138.041C118.517 138.481 118.355 138.926 118.308 139.399Z" fill="#FFB27D"/>
<path d="M122.034 141.219C124.106 141.349 123.475 141.787 126.31 142.356C129.144 142.926 130.291 142.126 130.5 141.727C130.687 141.372 129.372 140.802 127.971 140.157L127.949 140.182C126.542 140.589 125.055 140.591 123.647 140.187C121.777 139.633 119.969 138.439 118.678 138.045C118.517 138.48 118.355 138.925 118.309 139.398C118.177 140.741 119.963 141.087 122.034 141.219Z" fill="#233862"/>
<path d="M112.418 92.7606C110.618 91.4393 105.203 90.4148 99.2271 89.6506C98.4198 89.5474 97.6614 89.1907 97.0521 88.6275C96.4428 88.0643 96.0112 87.3212 95.8143 86.4963V86.4963L81.9125 80.7207C81.9125 80.7207 75.3318 90.9106 75.2825 98.7059C75.2587 102.34 76.8601 102.704 76.8601 102.704C76.8601 102.704 101.645 102.897 102.732 103.014C104.51 103.205 106.856 107.837 107.442 112.055C108.027 116.273 118.363 133.428 118.363 133.428C118.363 133.428 120.519 134.15 121.515 134.089C122.588 134.023 123.083 133.645 123.083 133.645C123.083 133.645 117.093 96.1913 112.418 92.7606Z" fill="#2B478B"/>
<path d="M93.8152 38.3929C91.9044 37.3435 88.9983 37.2022 88.5257 37.1356C82.8748 36.3421 79.474 44.9255 79.2734 47.5263C78.9053 52.3245 76.4794 53.0513 73.0683 56.0564C66.2216 62.0763 68.2293 69.0719 71.9735 71.6718C74.2192 73.2312 78.1786 71.6718 78.1786 71.6718C78.2347 71.7126 89.0076 65.3764 94.3176 62.3198C102.275 61.1336 98.6832 41.0656 93.8152 38.3929Z" fill="#233862"/>
<path d="M92.636 59.3654C92.6615 59.3787 90.1251 60.5845 88.2951 59.9518C86.573 59.3591 85.0566 56.6491 85.0804 56.6446C85.8284 56.5318 86.5874 55.7605 86.7999 51.1934L87.1306 51.2822L92.6972 52.751C92.6972 52.751 92.4771 54.5938 92.3861 56.3363C92.3079 57.7997 92.3241 59.1939 92.636 59.3654Z" fill="#FFB27D"/>
<path d="M92.697 52.749C92.697 52.749 92.697 53.1284 92.4887 54.8424C89.3437 54.0125 87.9539 52.9222 86.9756 51.6738L92.697 52.749Z" fill="#ED975D"/>
<path d="M93.888 52.9823C93.888 52.9823 86.5287 54.2352 85.8538 49.4281C85.1789 44.6211 83.773 41.5529 88.4429 40.5497C93.1128 39.5465 94.2858 41.2392 94.8842 42.7853C95.4826 44.3314 95.7801 52.5292 93.888 52.9823Z" fill="#FFB27D"/>
<path d="M93.8871 40.3554C93.8871 40.3554 90.5457 45.8697 87.5622 47.1759C84.5787 48.4821 83.1133 47.8183 83.1133 47.8183C84.0082 46.2791 84.5906 44.5639 84.8243 42.7793C84.8739 42.3612 85.0295 41.9644 85.2751 41.6303C85.5206 41.2961 85.8472 41.0366 86.2209 40.8787C88.3621 39.9795 92.5058 38.5658 93.8871 40.3554Z" fill="#233862"/>
<path d="M90.9551 40.8886C90.9551 40.8886 92.9101 41.938 93.7201 42.9216C94.4987 43.8714 95.398 46.4474 95.3351 47.6043C95.3351 47.6043 96.3016 42.0606 94.2888 40.1546C92.1527 38.1341 90.9551 40.8886 90.9551 40.8886Z" fill="#233862"/>
<path d="M98.5238 71.0999C98.3011 86.7384 98.4626 83.4685 96.8238 84.9524C96.4294 85.3078 95.3218 85.5228 93.8623 85.6232C89.2723 85.9413 81.2134 85.1523 80.9066 84.2655C79.8483 81.2 80.5955 80.2475 79.7166 75.5533C79.6239 75.0539 79.51 74.5137 79.3766 73.9255C78.6405 70.7018 77.9248 69.6044 80.5351 64.426C82.9032 59.7344 85.6879 55.9225 85.9089 56.0603C92.1555 59.937 92.3689 56.6876 92.3689 56.6876C92.3689 56.6876 98.6334 63.4708 98.5238 71.0999Z" fill="white"/>
<path d="M92.3691 56.6836C92.3691 56.6836 98.7629 57.8165 99.5177 60.7096C100.272 63.6027 104.714 80.6132 104.714 80.6132C104.714 80.6132 101.446 81.2271 99.9367 79.6491C98.4271 78.071 94.6837 65.0084 94.6837 65.0084L92.3691 56.6836Z" fill="white"/>
<path d="M93.8645 85.6203C89.2745 85.9384 81.2156 85.1494 80.9088 84.2626C79.8505 81.1971 80.5977 80.2446 79.7188 75.5504L81.9288 69.0391C81.9288 69.0391 81.5632 76.2905 83.6092 78.1974C85.6552 80.1042 91.9851 81.8795 92.9796 83.4727C93.4573 84.2377 93.7727 85.0045 93.8645 85.6203Z" fill="#EBF3FF"/>
<path d="M88.6104 82.5701C88.6104 82.5701 93.1349 81.5172 93.8651 81.9366C94.5952 82.356 96.3802 83.8852 96.6029 84.4174C96.8256 84.9497 94.9777 84.0131 94.3768 83.8443C93.9866 83.735 92.9615 84.1109 92.4541 84.2886C90.3189 85.0323 89.0098 84.6493 89.0098 84.6493L88.6104 82.5701Z" fill="#FFB27D"/>
<path d="M85.9084 56.0566C85.9084 56.0566 79.5045 56.4476 77.4007 59.5149C74.4402 63.8315 68.5667 82.2289 71.9327 84.6822C75.7237 87.4456 89.1877 85.4046 89.1877 85.4046C89.1877 85.4046 89.6357 83.2161 89.0118 82.1569C88.3879 81.0978 78.2601 79.3882 77.7917 78.8995C77.3234 78.4108 83.6347 69.3698 83.6347 67.9037C83.6347 66.4376 85.9084 56.0566 85.9084 56.0566Z" fill="white"/>
<path d="M94.084 83.2539C94.084 83.2539 95.0317 84.5316 95.3428 84.6845C95.6539 84.8373 95.8528 84.7991 95.8528 84.7991L95.2136 83.5969L94.084 83.2539Z" fill="#FFB27D"/>
<path d="M93.8643 81.9395L96.6208 83.3389C96.6208 83.3389 96.5035 83.5397 96.1644 83.5228C95.8252 83.506 94.9693 83.1799 94.9693 83.1799L93.8643 81.9395Z" fill="#FFB27D"/>
<path d="M104.02 85.2538H91.2168C91.2168 84.971 91.3243 84.6998 91.5156 84.4998C91.7068 84.2998 91.9663 84.1875 92.2368 84.1875H104.02V85.2538Z" fill="#ED7D2B"/>
<path d="M103.983 70.6797H123.776L119.028 85.2546H99.1064L103.983 70.6797Z" fill="#ED7D2B"/>
<path d="M124.068 70.6797L119.32 85.2555H99.3984L104.274 70.6797H124.068Z" fill="#F99746"/>
<path d="M113.396 77.8327C113.273 78.3898 112.741 78.8412 112.206 78.8412C111.67 78.8412 111.341 78.3898 111.464 77.8327C111.588 77.2756 112.119 76.8242 112.654 76.8242C113.19 76.8242 113.522 77.2756 113.396 77.8327Z" fill="white"/>
<path d="M173.534 85.2539H86.7923C86.4275 85.2539 86.1318 85.563 86.1318 85.9443V87.8423C86.1318 88.2236 86.4275 88.5327 86.7923 88.5327H173.534C173.899 88.5327 174.195 88.2236 174.195 87.8423V85.9443C174.195 85.563 173.899 85.2539 173.534 85.2539Z" fill="#182D4F"/>
<path d="M175.658 142.55H175.696C175.8 142.538 175.901 142.504 175.993 142.451C176.085 142.398 176.166 142.326 176.231 142.24C176.297 142.154 176.345 142.055 176.374 141.949C176.403 141.843 176.411 141.733 176.398 141.623L168.669 86.9277L165.839 87.0166L174.934 142.009C174.966 142.178 175.059 142.329 175.194 142.429C175.328 142.53 175.494 142.573 175.658 142.55V142.55Z" fill="#182D4F"/>
<path d="M83.8875 142.55H83.8501C83.7456 142.538 83.6445 142.504 83.5525 142.451C83.4605 142.398 83.3795 142.326 83.3142 142.24C83.2488 142.154 83.2004 142.055 83.1718 141.949C83.1431 141.843 83.1348 141.733 83.1472 141.623L90.8771 86.9277L93.7068 87.0166L84.6117 142.009C84.5797 142.179 84.4869 142.329 84.3523 142.43C84.2177 142.53 84.0515 142.573 83.8875 142.55V142.55Z" fill="#182D4F"/>
<path d="M101.781 142.55H101.744C101.639 142.538 101.538 142.504 101.446 142.451C101.354 142.398 101.273 142.326 101.208 142.24C101.143 142.153 101.095 142.055 101.066 141.949C101.038 141.843 101.029 141.732 101.042 141.623L108.771 86.9277L111.601 87.0166L102.506 142.009C102.474 142.179 102.381 142.329 102.246 142.429C102.112 142.53 101.945 142.573 101.781 142.55V142.55Z" fill="#182D4F"/>
<path d="M244.565 142.031H4.33005C4.14885 142.031 4.00195 142.185 4.00195 142.374V142.656C4.00195 142.845 4.14885 142.999 4.33005 142.999H244.565C244.746 142.999 244.893 142.845 244.893 142.656V142.374C244.893 142.185 244.746 142.031 244.565 142.031Z" fill="#2E3552"/>
<path d="M147.385 142.506H162.724C163.462 141.565 163.19 138.092 163.078 136.959C163.055 136.73 163.039 136.597 163.039 136.597C163.039 136.597 157.802 132.217 157.082 135.571C157.06 135.676 157.033 135.779 157.004 135.88C156.098 139.017 152.032 140.443 149.684 140.839C148.157 141.098 147.594 141.927 147.385 142.506Z" fill="#233862"/>
<path d="M189.238 90.4043C188.684 90.4043 162.964 95.4522 158.71 100.958C156.585 103.712 156.268 135.47 156.268 135.47C156.268 135.47 158.897 138.877 164.576 136.899C164.576 136.899 168.741 115.168 168.433 108.577C168.348 106.755 186.006 108.31 189.238 107.439C192.471 106.567 200.367 99.2143 198.627 95.6343C196.886 92.0543 189.238 90.4043 189.238 90.4043Z" fill="#233862"/>
<path d="M158.819 82.627C158.819 82.627 153.634 82.6998 152.405 83.2489C151.175 83.7981 148.688 85.0598 149.355 85.2535C150.021 85.4472 153.199 85.1744 153.886 85.2837C154.573 85.393 155.416 85.2535 155.841 85.2535H158.221L158.819 82.627Z" fill="#FFB27D"/>
<path d="M152.754 69.6104C152.754 69.6104 150.985 68.2891 149.269 68.0323C148.29 67.8857 147.337 67.7036 146.762 67.4912C145.177 66.9074 142.002 63.9272 142.246 63.5816C143.011 62.4611 146.717 64.8327 147.363 64.5777C148.009 64.3226 146.121 62.9196 146.778 62.4265C147.118 62.1688 147.923 63.4607 148.579 63.5905C149.466 63.7682 150.161 65.0761 150.428 65.1445C150.948 65.2778 153.225 67.0487 153.225 67.0487L152.754 69.6104Z" fill="#FFB27D"/>
<path d="M186.677 54.1797C186.677 54.1797 182.727 55.4592 178.836 66.6603C174.945 77.8613 173.467 78.4664 172.052 78.9063C170.638 79.3461 158.223 81.9274 158.223 81.9274V85.2514H177.353C177.353 85.2514 184.526 78.1181 186.677 73.32C188.827 68.5218 186.677 54.1797 186.677 54.1797Z" fill="#ED7D2B"/>
<path d="M140.605 142.506H155.944C156.682 141.565 156.41 138.092 156.298 136.959C156.275 136.73 156.26 136.597 156.26 136.597C156.26 136.597 151.021 132.217 150.302 135.571C150.28 135.676 150.254 135.779 150.225 135.88C149.318 139.017 145.252 140.443 142.905 140.839C141.378 141.098 140.814 141.927 140.605 142.506Z" fill="#1B3051"/>
<path d="M181.659 90.4043C181.105 90.4043 155.385 95.4522 151.131 100.958C149.006 103.712 148.688 135.47 148.688 135.47C148.688 135.47 151.318 138.877 156.997 136.899C156.997 136.899 161.162 115.168 160.854 108.577C160.769 106.755 178.427 108.31 181.659 107.439C184.892 106.567 192.788 99.2143 191.048 95.6343C189.307 92.0543 181.659 90.4043 181.659 90.4043Z" fill="#2B478B"/>
<path d="M183.269 57.7299C185.119 57.57 187.059 57.0546 188.735 56.4859C190.832 55.7751 192.521 54.7355 191.433 52.7336C190.429 50.8881 188.805 46.7643 188.915 43.3496L185.015 46.6372L182.366 48.8693C182.366 48.8693 182.377 50.1843 182.666 52.4901C182.719 52.9104 182.78 53.3645 182.853 53.8487C182.882 54.0406 182.856 54.2371 182.779 54.4136C182.702 54.5901 182.576 54.7389 182.418 54.8412C182.398 54.8537 182.378 54.867 182.359 54.8803C181.042 55.7422 181.719 57.8596 183.269 57.7299Z" fill="#FFB27D"/>
<path d="M182.366 48.3226C182.366 48.3226 182.23 48.8006 182.463 50.5644C184.825 50.1619 187.033 48.1928 187.033 48.1928C185.83 47.8472 185.393 46.4895 184.497 46.6157L182.366 48.3226Z" fill="#ED975D"/>
<path d="M180.181 48.7247C180.181 48.7247 189.266 50.3027 190.119 44.3708C190.973 38.4388 192.719 34.6509 186.954 33.3927C181.189 32.1345 179.735 34.2199 178.99 36.1268C178.244 38.0336 177.839 48.1613 180.181 48.7247Z" fill="#FFB27D"/>
<path d="M177.654 33.5064C177.264 34.9343 178.307 36.6732 180.06 37.2463C182.662 38.0958 182.087 41.4323 183.258 41.3861C184.428 41.3398 184.901 39.4686 185.946 40.9649C186.839 42.2408 185.204 43.7532 185.317 44.4533C185.51 45.6547 187.31 48.1124 188.932 47.9889C190.553 47.8654 193.59 39.8071 192.982 37.3138C192.374 34.8206 189.947 32.1913 187.649 31.8288C185.351 31.4663 182.159 32.5041 181.422 32.5041C180.685 32.5041 177.869 32.7351 177.654 33.5064Z" fill="#2B478B"/>
<path d="M198.748 62.4112C197.435 56.8862 193.806 51.0884 191.353 51.0938C187.172 51.1018 181.16 52.2551 178.733 58.514C176.948 63.1238 174.562 89.6409 177.256 91.5264C183.416 95.8376 197.695 104.639 200.232 95.6635C202.555 87.4408 201.027 71.9996 198.748 62.4112Z" fill="#F99746"/>
<path d="M188.592 56.9115C188.315 56.1568 187.872 55.4805 187.3 54.9366C186.728 54.3928 186.042 53.9965 185.297 53.7796C184.552 53.5628 183.769 53.5313 183.01 53.6877C182.252 53.8441 181.538 54.1841 180.928 54.6804C179.509 55.8355 177.771 57.4784 175.672 59.8153C167.868 68.5018 166.282 68.4485 164.816 68.269C163.351 68.0895 150.967 65.3421 150.967 65.3421C150.548 65.6885 150.204 66.1248 149.96 66.6216C149.462 67.6772 149.713 68.3987 149.713 68.3987C149.227 68.0717 154.102 71.5841 156.529 72.9845C159.732 74.8336 164.56 76.568 166.484 77.2264C167.029 77.4128 167.617 77.4034 168.156 77.1998C171.01 76.1246 180.596 72.2061 188.398 65.4061C190.453 63.6112 189.698 59.9193 188.592 56.9115Z" fill="#F99746"/>
<path d="M191.772 51.1463L190.826 48.916C190.826 48.916 182.351 49.6384 180.927 54.6809C180.928 54.6809 187.496 51.2538 191.772 51.1463Z" fill="white"/>
<path d="M212.348 142.305H212.406C212.885 142.296 213.256 141.888 213.209 141.417L210.017 108.09L207.231 108.35L211.815 141.856C211.836 141.985 211.902 142.103 212 142.185C212.098 142.268 212.222 142.311 212.348 142.305V142.305Z" fill="#8CB4F4"/>
<path d="M195.916 142.305H195.975C196.453 142.296 196.825 141.888 196.778 141.417L193.585 108.09L190.8 108.35L195.384 141.856C195.405 141.985 195.471 142.103 195.569 142.185C195.667 142.268 195.79 142.311 195.916 142.305V142.305Z" fill="#8CB4F4"/>
<path d="M165.069 142.305H165.011C164.533 142.296 164.161 141.888 164.208 141.417L167.4 108.09L170.185 108.35L165.602 141.855C165.581 141.985 165.515 142.102 165.417 142.185C165.319 142.268 165.195 142.311 165.069 142.305Z" fill="#73A2E5"/>
<path d="M211.443 103.369L214.472 75.5341C214.869 71.5223 213.586 67.5949 208.048 67.291L198.307 66.669C192.533 66.4203 189.926 71.4432 189.195 75.3102L183.415 105.908L211.443 103.369Z" fill="#8CB4F4"/>
<path d="M166.581 103.242H211.397V106.926C211.397 107.364 211.23 107.784 210.934 108.093C210.638 108.403 210.236 108.577 209.818 108.577H166.581C166.162 108.577 165.761 108.403 165.465 108.093C165.168 107.784 165.002 107.364 165.002 106.926V104.893C165.002 104.455 165.168 104.035 165.465 103.726C165.761 103.416 166.162 103.242 166.581 103.242Z" fill="#73A2E5"/>
<path d="M184.642 103.242H211.397V107.295C211.397 107.635 211.268 107.961 211.038 108.202C210.808 108.442 210.496 108.577 210.171 108.577H184.642C184.316 108.577 184.004 108.442 183.774 108.202C183.544 107.961 183.415 107.635 183.415 107.295V104.524C183.415 104.184 183.544 103.858 183.774 103.618C184.004 103.377 184.316 103.242 184.642 103.242V103.242Z" fill="#8CB4F4"/>
<defs>
<filter id="filter0_d_773:200" x="0" y="0" width="241.631" height="150.635" filterUnits="userSpaceOnUse" color-interpolation-filters="sRGB">
<feFlood flood-opacity="0" result="BackgroundImageFix"/>
<feColorMatrix in="SourceAlpha" type="matrix" values="0 0 0 0 0 0 0 0 0 0 0 0 0 0 0 0 0 0 127 0" result="hardAlpha"/>
<feOffset dy="4"/>
<feGaussianBlur stdDeviation="2"/>
<feComposite in2="hardAlpha" operator="out"/>
<feColorMatrix type="matrix" values="0 0 0 0 0 0 0 0 0 0 0 0 0 0 0 0 0 0 0.25 0"/>
<feBlend mode="normal" in2="BackgroundImageFix" result="effect1_dropShadow_773:200"/>
<feBlend mode="normal" in="SourceGraphic" in2="effect1_dropShadow_773:200" result="shape"/>
</filter>
</defs>
</svg>
