<svg width="29" height="27" viewBox="0 0 29 27" fill="none" xmlns="http://www.w3.org/2000/svg">
<path d="M14.501 0C10.6551 0 6.96671 1.42232 4.24724 3.95406C1.52778 6.4858 0 9.91958 0 13.5H0C0 17.0804 1.52778 20.5142 4.24724 23.0459C6.96671 25.5777 10.6551 27 14.501 27V27C18.3469 27 22.0353 25.5777 24.7547 23.0459C27.4742 20.5142 29.002 17.0804 29.002 13.5V13.5C29.002 9.91958 27.4742 6.4858 24.7547 3.95406C22.0353 1.42232 18.3469 0 14.501 0ZM24.0374 14.1536C23.9318 15.4024 23.5445 16.6165 22.9009 17.7165C22.2572 18.8166 21.3717 19.778 20.3021 20.538C19.2324 21.2979 18.0027 21.8394 16.6931 22.1271C15.3835 22.4148 14.0235 22.4422 12.7018 22.2075C12.4994 22.1686 12.3177 22.0658 12.1875 21.9163C12.0574 21.7669 11.9868 21.5801 11.9878 21.3877V19.1566C11.9878 19.113 11.9989 19.0701 12.0201 19.0312C12.0413 18.9924 12.0721 18.9588 12.1099 18.9331C12.1476 18.9074 12.1914 18.8904 12.2376 18.8834C12.2838 18.8764 12.3311 18.8797 12.3757 18.8929C13.617 19.3132 14.9699 19.3541 16.2379 19.0098C17.5059 18.6655 18.623 17.9538 19.427 16.9782C20.231 16.0026 20.68 14.8137 20.7088 13.5844C20.7376 12.355 20.3447 11.1491 19.5872 10.1417C18.8297 9.13439 17.747 8.37807 16.4963 7.98261C15.2456 7.58714 13.8921 7.57312 12.6323 7.94258C11.3725 8.31203 10.272 9.04574 9.49056 10.0371C8.70916 11.0285 8.28755 12.226 8.28696 13.4557C8.28696 13.5643 8.28696 13.6773 8.28696 13.777V19.438C8.28802 19.5059 8.26727 19.5726 8.22737 19.6295C8.18747 19.6863 8.13024 19.7308 8.063 19.7573C7.99577 19.7837 7.9216 19.7908 7.84999 19.7777C7.77837 19.7647 7.71258 19.732 7.66104 19.6839C6.54152 18.6187 5.72692 17.309 5.29182 15.8748C4.85672 14.4406 4.81502 12.9277 5.17054 11.4747C5.52606 10.0216 6.26743 8.67475 7.32679 7.55747C8.38615 6.44019 9.72964 5.58815 11.2343 5.07938C12.7389 4.5706 14.3566 4.42134 15.9392 4.64526C17.5218 4.86919 19.0188 5.45913 20.2931 6.36109C21.5675 7.26305 22.5784 8.4482 23.2334 9.80804C23.8883 11.1679 24.1664 12.659 24.0422 14.1448L24.0374 14.1536ZM11.3761 13.5576C11.3548 12.9761 11.5215 12.4021 11.8545 11.9097C12.1874 11.4174 12.6715 11.0294 13.2439 10.7959C13.8164 10.5624 14.4509 10.4943 15.0654 10.6002C15.6799 10.7062 16.2462 10.9814 16.6908 11.3902C17.1355 11.799 17.4382 12.3227 17.5597 12.8934C17.6812 13.4641 17.616 14.0556 17.3724 14.5915C17.1288 15.1273 16.7182 15.5827 16.1935 15.8989C15.6689 16.215 15.0544 16.3774 14.4296 16.3648C13.6354 16.3394 12.8806 16.0364 12.3157 15.5162C11.7507 14.9959 11.4169 14.2966 11.3809 13.5576H11.3761Z" fill="white"/>
</svg>
