<svg width="278" height="177" viewBox="0 0 278 177" fill="none" xmlns="http://www.w3.org/2000/svg">
<path d="M13.7799 173.533C13.7799 173.533 -9.50783 136.429 4.46441 101.118C18.4367 65.807 44.9871 74.1862 82.2431 38.2783C127.48 -5.31441 159.244 -7.70776 199.619 11.3493C222.444 22.1117 226.17 66.4066 262.5 93.9378C295.251 118.755 268.555 160.964 251.322 167.547C234.089 174.13 222.444 174.133 222.444 174.133L13.7799 173.533Z" fill="#E7F3FE"/>
<path d="M152.437 93.7578C146.624 108.917 139.336 150.347 137.348 152.618C135.36 154.888 123.876 163.682 121.888 167.939C119.9 172.195 120.785 170.778 121.669 171.062C122.552 171.347 172.46 171.639 172.46 171.639C172.46 171.639 166.718 127.657 166.056 127.372C165.394 127.088 152.437 93.7578 152.437 93.7578Z" fill="#A2DFF2"/>
<path d="M144.164 171.424C153.338 171.506 163.004 171.57 168.329 171.603L161.038 115.582C157.151 105.894 152.431 93.7578 152.431 93.7578C151.697 95.6669 150.941 97.9961 150.175 100.612C149.419 142.691 154.136 154.483 150.592 161.981C147.828 167.831 145.305 170.447 144.164 171.424Z" fill="#96CFE0"/>
<path d="M183.042 75.4648C191.33 85.2945 209.784 94.6193 209.784 94.6193C209.784 94.6193 212.576 127.901 210.673 146.748C208.771 165.595 209.824 169.415 209.824 169.415H171.776C171.776 169.415 166.669 160.311 157.321 132.003C151.37 113.979 152.433 93.7686 152.433 93.7686L175.601 80.3848L183.042 75.4648Z" fill="#A2DFF2"/>
<path d="M171.78 169.413H209.828C209.828 169.413 208.765 165.59 210.678 146.745C212.253 131.227 210.63 105.92 210.01 97.469L206.547 95.5625C197.862 98.7784 192.854 115.427 191.391 131.693C190.405 142.581 176.369 153.298 167.188 159.196C170.197 166.589 171.78 169.413 171.78 169.413Z" fill="#96CFE0"/>
<path d="M162.446 41.2969C157.859 54.4218 163.366 66.5808 163.198 66.0683C163.031 65.5558 170.14 43.908 170.14 43.908L162.446 41.2969Z" fill="#2E5B9A"/>
<path d="M179.839 51.0039L185.656 78.3198C185.736 78.6998 185.744 79.0987 185.68 79.4837C185.617 79.8686 185.482 80.2286 185.289 80.5338C183.923 82.694 181.981 87.1348 178.062 88.5595C177.257 88.8116 176.431 88.9313 175.603 88.9157C175.216 88.9182 174.84 88.7471 174.541 88.4318C174.241 88.1164 174.037 87.6767 173.963 87.1886L170.066 61.2769L179.839 51.0039Z" fill="#F09959"/>
<path d="M178.72 53.2891L176.594 54.4089L170.066 61.2788L173.566 84.2616C179.518 79.4852 180.385 76.2667 178.72 53.2891Z" fill="#E38540"/>
<path d="M179.615 63.0879C178.329 72.0745 173.094 78.1527 167.927 76.669C162.759 75.1853 160.292 69.3634 160.899 57.7067C161.375 48.5562 164.887 38.6112 170.055 40.1026C175.222 41.5939 180.904 54.1013 179.615 63.0879Z" fill="#F09959"/>
<path d="M209.785 94.6175C217.483 96.852 218.913 116.942 221.416 138.131C221.705 140.568 223.183 161.211 223.183 161.211C223.18 162.398 222.916 163.56 222.422 164.564C221.929 165.567 221.225 166.372 220.391 166.884C217.876 168.501 216.857 169.724 202.281 169.913C188.282 170.095 170.232 169.344 170.232 169.344C170.232 169.344 170.072 162.651 171.508 159.381C173.654 154.474 195.791 147.399 197.859 147.023C198.152 141.723 195.825 122.559 199.036 109.564C201.246 100.624 203.623 95.9423 206.594 94.7174C207.631 94.3135 208.734 94.2789 209.785 94.6175Z" fill="#A2DFF2"/>
<path d="M178.141 169.749C185.041 169.882 194.512 170.005 202.272 169.91C216.848 169.721 217.868 168.499 220.382 166.882C223.328 164.99 223.476 161.775 223.476 161.775C223.476 161.775 221.988 139.812 221.709 137.37C220.089 123.181 218.338 106.945 214.266 99.1094C218.095 113.526 218.711 125.692 218.779 130.884C218.815 133.516 218.625 137.118 218.027 139.635C217.365 142.425 215.672 144.176 213.021 143.222C207.72 141.331 201.095 145.303 201.095 145.303C201.095 145.303 206.101 143.033 210.812 145.113C215.522 147.194 225.243 161.001 214.641 166.126C211.396 167.689 191.965 168.965 178.141 169.749Z" fill="#96CFE0"/>
<path d="M172.682 160.006C172.682 160.006 174.644 155.719 178.665 155.719C182.685 155.719 182.396 164.175 181.806 166.942C181.215 169.71 178.866 169.843 178.866 169.843L170.227 169.331L172.682 160.006Z" fill="#96CFE0"/>
<path d="M163.923 167.383H109.47C108.645 167.383 107.977 168.242 107.977 169.302V169.853C107.977 170.913 108.645 171.772 109.47 171.772H163.923C164.748 171.772 165.417 170.913 165.417 169.853V169.302C165.417 168.242 164.748 167.383 163.923 167.383Z" fill="#75A1DE"/>
<path d="M171.6 160.515C163.158 156.605 160.942 158.079 159.035 157.361C154.323 155.596 153.144 157.105 150.103 167.831C149.504 169.966 151.279 170.102 153.046 170.102C154.813 170.102 156.973 165.687 157.659 165.182C158.345 164.677 160.212 164.426 160.212 164.426C160.212 164.426 159.614 164.426 158.74 166.696C157.867 168.967 156.776 169.848 158.152 169.848C159.528 169.848 159.721 166.947 162.274 167.578C164.827 168.208 163.844 169.848 170.224 169.722C176.603 169.597 181.42 169.722 181.316 164.802C181.218 160.136 181.621 157.804 178.175 156.984C175.524 156.354 171.6 160.515 171.6 160.515Z" fill="#F09959"/>
<path d="M171.715 160.518C177.359 159.698 175.704 168.718 175.105 169.486C174.507 170.255 178.248 169.743 178.248 169.743C178.248 169.743 180.001 166.119 178.53 161.958C177.058 157.796 174.112 157.602 174.112 157.602L171.609 159.367L171.715 160.518Z" fill="#A86B48"/>
<path d="M177.607 159.729C177.533 160.849 176.053 161.605 174.3 161.415C172.547 161.225 171.183 160.167 171.257 159.047C171.331 157.927 172.808 157.172 174.563 157.361C176.318 157.551 177.679 158.609 177.607 159.729Z" fill="#2E5B9A"/>
<path d="M176.175 158.713C176.129 159.433 175.178 159.917 174.049 159.797C172.921 159.676 172.055 158.995 172.091 158.275C172.127 157.555 173.088 157.068 174.219 157.191C175.35 157.314 176.221 157.993 176.175 158.713Z" fill="#F0CEB4"/>
<path d="M107.479 157.912H52.6232C51.2164 157.902 49.8571 157.258 48.7822 156.092C47.7074 154.925 46.9853 153.312 46.7419 151.531L39.5883 100.794C38.9142 96.0077 41.7342 91.5977 45.4695 91.5977H100.325C101.732 91.6072 103.091 92.2513 104.166 93.4176C105.241 94.5838 105.962 96.1979 106.205 97.9782L113.36 148.715C114.034 153.502 111.214 157.912 107.479 157.912Z" fill="#ED7D2B"/>
<path d="M110.032 148.909L102.731 99.2147C102.199 95.5939 99.6738 92.9648 96.7282 92.9648H40.9888C40.3836 93.8637 39.9438 94.9262 39.7021 96.0734C39.4605 97.2206 39.4231 98.4231 39.5928 99.5914L46.9937 151.397C47.2539 153.227 48.006 154.882 49.1187 156.073C50.2314 157.264 51.6342 157.915 53.0824 157.913H104.037C107.849 157.913 110.726 153.593 110.032 148.909Z" fill="#FF9E55"/>
<path d="M96.8154 164.726H86.401C84.5443 164.726 83.0386 162.602 83.0386 159.978V135.514C83.0386 131.339 80.6454 127.957 77.6858 127.957H72.2473C69.2897 127.957 66.8945 131.339 66.8945 135.514V162.899C66.8945 167.583 69.5948 171.373 72.9154 171.355L101.335 171.099C101.335 167.57 99.3103 164.726 96.8154 164.726Z" fill="#ED7D2B"/>
<path d="M67.3125 136.048V163.026C67.3132 165.127 67.9326 167.149 69.0462 168.687C70.1598 170.224 71.685 171.164 73.3154 171.316L101.05 171.093C101.05 170.511 98.8567 169.445 96.1604 169.445H84.8965C83.9317 169.445 83.0064 168.953 82.3243 168.076C81.6421 167.2 81.2588 166.011 81.2588 164.771V136.048C81.2588 134.078 80.6495 132.187 79.5649 130.794C78.4802 129.4 77.0092 128.617 75.4753 128.617H73.11C72.3493 128.615 71.5958 128.805 70.8924 129.178C70.1891 129.55 69.5499 130.097 69.0114 130.787C68.4729 131.478 68.0456 132.298 67.7541 133.2C67.4625 134.103 67.3125 135.071 67.3125 136.048Z" fill="#FF9E55"/>
<path d="M125.363 161.6C129.551 158.607 134.678 159.604 136.531 162.597C138.384 165.59 138.705 167.584 134.513 167.584C130.321 167.584 121.939 167.984 120.541 167.784C119.143 167.584 125.363 161.6 125.363 161.6Z" fill="#F09959"/>
<path d="M131.578 159.805C136.079 158.409 139.157 161.776 142.912 164.992C146.171 167.785 146.827 170.498 143.221 168.184C137.944 164.792 134.845 164.394 134.845 164.394L131.578 159.805Z" fill="#F09959"/>
<path d="M127.474 161.581C125.201 161.581 123.216 160.648 121.611 160.812C120.006 160.976 114.924 167.687 115.726 168.202C115.784 168.238 115.845 168.272 115.913 168.305C116.504 168.575 117.148 168.577 117.739 168.31C118.331 168.044 118.833 167.524 119.162 166.839C119.882 165.358 121.051 163.631 122.413 164.249C123.916 164.886 125.491 165.201 127.073 165.181L127.474 161.581Z" fill="#F09959"/>
<path d="M126.14 168.783C123.813 167.586 127.536 157.613 128.781 157.613C130.025 157.613 134.68 162.4 134.68 162.4C134.68 162.4 133.585 163.194 129.867 161.603C128.936 161.203 128.158 167.986 127.075 168.778C125.992 169.57 126.14 168.783 126.14 168.783Z" fill="#F7A96F"/>
<path d="M160.889 62.9478C160.674 73.928 163.586 75.7858 165.622 77.2772C167.658 78.7685 176.435 76.306 177.724 73.5898C181.018 66.6404 178.244 60.1599 178.982 60.2649C179.72 60.37 180.394 63.0683 182.314 66.5814C182.494 66.9069 183.742 69.0773 183.808 68.3546C184.7 58.5199 188.686 55.4654 187.737 45.5205C187.037 38.1867 183.415 38.7684 183.415 38.7684C183.415 38.7684 181.078 32.6338 173.803 33.3282C168.929 33.7972 164.583 36.2366 159.559 37.8971C154.536 39.5576 165.502 54.1919 172.02 48.8466C178.537 43.5012 175.318 55.2758 176.347 56.1906C177.377 57.1054 176.842 56.311 177.315 62.3405C177.787 68.37 171.83 72.3008 170.123 72.8159C164.665 74.4661 163.741 73.3079 162.557 70.6686C161.524 68.3726 160.889 62.9478 160.889 62.9478Z" fill="#2E5B9A"/>
<path d="M183.496 59.5483C182.87 62.3183 181.338 64.1043 180.078 63.5432C178.817 62.982 178.779 60.7244 178.927 57.5137C179.061 54.6129 181.083 52.9576 182.345 53.5188C183.608 54.08 184.122 56.7808 183.496 59.5483Z" fill="#F09959"/>
<path d="M63.5168 12H16.9174C16.4107 12 16 12.5277 16 13.1787V38.9444C16 39.5954 16.4107 40.1231 16.9174 40.1231H63.5168C64.0235 40.1231 64.4342 39.5954 64.4342 38.9444V13.1787C64.4342 12.5277 64.0235 12 63.5168 12Z" fill="#B7E1FF"/>
<path d="M62.3602 19.3984H18.0583C17.6486 19.3984 17.3164 19.8252 17.3164 20.3517V37.861C17.3164 38.3875 17.6486 38.8143 18.0583 38.8143H62.3602C62.77 38.8143 63.1021 38.3875 63.1021 37.861V20.3517C63.1021 19.8252 62.77 19.3984 62.3602 19.3984Z" fill="white"/>
<path d="M19.4741 14.0781H18.3991C18.1722 14.0781 17.9883 14.3145 17.9883 14.606V15.7437C17.9883 16.0353 18.1722 16.2716 18.3991 16.2716H19.4741C19.701 16.2716 19.8849 16.0353 19.8849 15.7437V14.606C19.8849 14.3145 19.701 14.0781 19.4741 14.0781Z" fill="white"/>
<path d="M22.9194 14.0781H21.8444C21.6175 14.0781 21.4336 14.3145 21.4336 14.606V15.7437C21.4336 16.0353 21.6175 16.2716 21.8444 16.2716H22.9194C23.1463 16.2716 23.3302 16.0353 23.3302 15.7437V14.606C23.3302 14.3145 23.1463 14.0781 22.9194 14.0781Z" fill="white"/>
<path d="M26.3725 14.0781H25.2975C25.0706 14.0781 24.8867 14.3145 24.8867 14.606V15.7437C24.8867 16.0353 25.0706 16.2716 25.2975 16.2716H26.3725C26.5994 16.2716 26.7833 16.0353 26.7833 15.7437V14.606C26.7833 14.3145 26.5994 14.0781 26.3725 14.0781Z" fill="white"/>
<path d="M61.236 23.6494H37.0169C36.8249 23.6494 36.6408 23.5514 36.505 23.377C36.3692 23.2025 36.293 22.9659 36.293 22.7192C36.293 22.4725 36.3692 22.2359 36.505 22.0615C36.6408 21.8871 36.8249 21.7891 37.0169 21.7891H61.236C61.428 21.7891 61.6121 21.8871 61.7479 22.0615C61.8836 22.2359 61.9599 22.4725 61.9599 22.7192C61.9599 22.9659 61.8836 23.2025 61.7479 23.377C61.6121 23.5514 61.428 23.6494 61.236 23.6494Z" fill="#B7E1FF"/>
<path d="M43.0192 38.0127H18.8021C18.6101 38.0127 18.4259 37.9147 18.2902 37.7403C18.1544 37.5658 18.0781 37.3292 18.0781 37.0825C18.0781 36.8358 18.1544 36.5992 18.2902 36.4248C18.4259 36.2503 18.6101 36.1523 18.8021 36.1523H43.0192C43.2112 36.1523 43.3953 36.2503 43.5311 36.4248C43.6668 36.5992 43.7431 36.8358 43.7431 37.0825C43.7431 37.3292 43.6668 37.5658 43.5311 37.7403C43.3953 37.9147 43.2112 38.0127 43.0192 38.0127Z" fill="#B7E1FF"/>
<path d="M61.4534 27.706H21.3675C21.2425 27.6958 21.1253 27.6247 21.0396 27.5074C20.9539 27.3901 20.9062 27.2352 20.9062 27.0743C20.9062 26.9134 20.9539 26.7586 21.0396 26.6412C21.1253 26.5239 21.2425 26.4529 21.3675 26.4427H61.4534C61.5206 26.4372 61.588 26.4494 61.6513 26.4787C61.7147 26.5079 61.7727 26.5536 61.8218 26.6128C61.8709 26.672 61.9101 26.7435 61.9368 26.8229C61.9636 26.9022 61.9774 26.9878 61.9774 27.0743C61.9774 27.1608 61.9636 27.2464 61.9368 27.3258C61.9101 27.4052 61.8709 27.4767 61.8218 27.5359C61.7727 27.5951 61.7147 27.6407 61.6513 27.67C61.588 27.6992 61.5206 27.7115 61.4534 27.706Z" fill="#B7E1FF"/>
<path d="M61.4534 30.4365H21.3675C21.2425 30.4262 21.1253 30.3552 21.0396 30.2379C20.9539 30.1206 20.9062 29.9657 20.9062 29.8048C20.9062 29.6439 20.9539 29.4891 21.0396 29.3717C21.1253 29.2544 21.2425 29.1834 21.3675 29.1732H61.4534C61.5206 29.1677 61.588 29.1799 61.6513 29.2092C61.7147 29.2384 61.7727 29.284 61.8218 29.3432C61.8709 29.4024 61.9101 29.4739 61.9368 29.5533C61.9636 29.6327 61.9774 29.7183 61.9774 29.8048C61.9774 29.8913 61.9636 29.9769 61.9368 30.0563C61.9101 30.1357 61.8709 30.2072 61.8218 30.2664C61.7727 30.3256 61.7147 30.3712 61.6513 30.4004C61.588 30.4297 61.5206 30.442 61.4534 30.4365Z" fill="#B7E1FF"/>
<path d="M28.5658 43.7383H75.1632C75.4065 43.7383 75.6399 43.8625 75.8119 44.0835C75.984 44.3046 76.0806 44.6044 76.0806 44.917V70.6827C76.0806 70.8375 76.0569 70.9907 76.0108 71.1337C75.9647 71.2768 75.8971 71.4067 75.8119 71.5162C75.7267 71.6256 75.6256 71.7124 75.5143 71.7717C75.403 71.8309 75.2837 71.8614 75.1632 71.8614H28.5658C28.4454 71.8614 28.3261 71.8309 28.2148 71.7717C28.1035 71.7124 28.0023 71.6256 27.9172 71.5162C27.832 71.4067 27.7644 71.2768 27.7183 71.1337C27.6722 70.9907 27.6484 70.8375 27.6484 70.6827V44.9196C27.6484 44.6067 27.745 44.3066 27.917 44.0852C28.089 43.8637 28.3224 43.739 28.5658 43.7383Z" fill="#9EC8FF"/>
<path d="M74.0126 51.125H29.7107C29.3009 51.125 28.9688 51.5518 28.9688 52.0782V69.5876C28.9688 70.1141 29.3009 70.5408 29.7107 70.5408H74.0126C74.4223 70.5408 74.7545 70.1141 74.7545 69.5876V52.0782C74.7545 51.5518 74.4223 51.125 74.0126 51.125Z" fill="white"/>
<path d="M31.1303 45.8086H30.0554C29.8285 45.8086 29.6445 46.0449 29.6445 46.3365V47.4742C29.6445 47.7657 29.8285 48.0021 30.0554 48.0021H31.1303C31.3572 48.0021 31.5411 47.7657 31.5411 47.4742V46.3365C31.5411 46.0449 31.3572 45.8086 31.1303 45.8086Z" fill="white"/>
<path d="M34.5756 45.8086H33.5007C33.2738 45.8086 33.0898 46.0449 33.0898 46.3365V47.4742C33.0898 47.7657 33.2738 48.0021 33.5007 48.0021H34.5756C34.8025 48.0021 34.9864 47.7657 34.9864 47.4742V46.3365C34.9864 46.0449 34.8025 45.8086 34.5756 45.8086Z" fill="white"/>
<path d="M38.0307 45.8086H36.9538C36.7269 45.8086 36.543 46.0449 36.543 46.3365V47.4742C36.543 47.7657 36.7269 48.0021 36.9538 48.0021H38.0307C38.2576 48.0021 38.4415 47.7657 38.4415 47.4742V46.3365C38.4415 46.0449 38.2576 45.8086 38.0307 45.8086Z" fill="white"/>
<path d="M72.8903 55.3877H48.6732C48.4812 55.3877 48.297 55.2897 48.1613 55.1152C48.0255 54.9408 47.9492 54.7042 47.9492 54.4575C47.9492 54.2108 48.0255 53.9742 48.1613 53.7998C48.297 53.6253 48.4812 53.5273 48.6732 53.5273H72.8903C73.0823 53.5273 73.2664 53.6253 73.4022 53.7998C73.5379 53.9742 73.6142 54.2108 73.6142 54.4575C73.6142 54.7042 73.5379 54.9408 73.4022 55.1152C73.2664 55.2897 73.0823 55.3877 72.8903 55.3877Z" fill="#9EC8FF"/>
<path d="M54.6734 69.7432H30.4583C30.2663 69.7432 30.0822 69.6452 29.9464 69.4707C29.8107 69.2963 29.7344 69.0597 29.7344 68.813C29.7344 68.5663 29.8107 68.3297 29.9464 68.1553C30.0822 67.9808 30.2663 67.8828 30.4583 67.8828H54.6774C54.8694 67.8828 55.0535 67.9808 55.1893 68.1553C55.3251 68.3297 55.4013 68.5663 55.4013 68.813C55.4013 69.0597 55.3251 69.2963 55.1893 69.4707C55.0535 69.6452 54.8694 69.7432 54.6774 69.7432H54.6734Z" fill="#9EC8FF"/>
<path d="M59.1409 67.8828H56.634C56.4974 67.8828 56.3867 68.0251 56.3867 68.2006V69.428C56.3867 69.6035 56.4974 69.7457 56.634 69.7457H59.1409C59.2774 69.7457 59.3882 69.6035 59.3882 69.428V68.2006C59.3882 68.0251 59.2774 67.8828 59.1409 67.8828Z" fill="#9EC8FF"/>
<path d="M62.9182 67.8828H60.4114C60.2748 67.8828 60.1641 68.0251 60.1641 68.2006V69.428C60.1641 69.6035 60.2748 69.7457 60.4114 69.7457H62.9182C63.0548 69.7457 63.1655 69.6035 63.1655 69.428V68.2006C63.1655 68.0251 63.0548 67.8828 62.9182 67.8828Z" fill="#9EC8FF"/>
<path d="M73.1278 59.4404H33.0239C32.9567 59.4459 32.8894 59.4336 32.826 59.4043C32.7627 59.3751 32.7046 59.3295 32.6555 59.2703C32.6064 59.2111 32.5673 59.1396 32.5406 59.0602C32.5138 58.9808 32.5 58.8952 32.5 58.8087C32.5 58.7222 32.5138 58.6366 32.5406 58.5572C32.5673 58.4778 32.6064 58.4063 32.6555 58.3471C32.7046 58.288 32.7627 58.2423 32.826 58.2131C32.8894 58.1838 32.9567 58.1716 33.0239 58.1771H73.1278C73.195 58.1716 73.2624 58.1838 73.3257 58.2131C73.3891 58.2423 73.4471 58.288 73.4962 58.3471C73.5453 58.4063 73.5844 58.4778 73.6112 58.5572C73.6379 58.6366 73.6517 58.7222 73.6517 58.8087C73.6517 58.8952 73.6379 58.9808 73.6112 59.0602C73.5844 59.1396 73.5453 59.2111 73.4962 59.2703C73.4471 59.3295 73.3891 59.3751 73.3257 59.4043C73.2624 59.4336 73.195 59.4459 73.1278 59.4404Z" fill="#9EC8FF"/>
<path d="M73.1278 62.1669H33.0239C32.9567 62.1724 32.8894 62.1602 32.826 62.1309C32.7627 62.1017 32.7046 62.056 32.6555 61.9968C32.6064 61.9376 32.5673 61.8661 32.5406 61.7868C32.5138 61.7074 32.5 61.6218 32.5 61.5353C32.5 61.4488 32.5138 61.3632 32.5406 61.2838C32.5673 61.2044 32.6064 61.1329 32.6555 61.0737C32.7046 61.0145 32.7627 60.9689 32.826 60.9396C32.8894 60.9104 32.9567 60.8981 33.0239 60.9036H73.1278C73.195 60.8981 73.2624 60.9104 73.3257 60.9396C73.3891 60.9689 73.4471 61.0145 73.4962 61.0737C73.5453 61.1329 73.5844 61.2044 73.6112 61.2838C73.6379 61.3632 73.6517 61.4488 73.6517 61.5353C73.6517 61.6218 73.6379 61.7074 73.6112 61.7868C73.5844 61.8661 73.5453 61.9376 73.4962 61.9968C73.4471 62.056 73.3891 62.1017 73.3257 62.1309C73.2624 62.1602 73.195 62.1724 73.1278 62.1669Z" fill="#9EC8FF"/>
<path d="M93.3145 64.9832C93.3149 66.5812 92.9464 68.1436 92.2557 69.4726C91.565 70.8016 90.5831 71.8375 89.4341 72.4494C88.2852 73.0614 87.0208 73.2217 85.8009 72.9103C84.581 72.5988 83.4604 71.8295 82.5807 70.6997C81.7011 69.5698 81.102 68.1302 80.8593 66.5629C80.6165 64.9956 80.7409 63.3709 81.2168 61.8944C81.6926 60.418 82.4986 59.156 83.5327 58.2681C84.5668 57.3802 85.7826 56.9063 87.0264 56.9062C88.6938 56.9062 90.2929 57.7571 91.4721 59.2718C92.6513 60.7864 93.314 62.8408 93.3145 64.9832Z" fill="#9CD499"/>
<path d="M86.397 67.9667H86.3791C86.3144 67.9628 86.251 67.9424 86.1924 67.9068C86.1339 67.8711 86.0814 67.821 86.0381 67.7592L84.3309 65.2659C84.2893 65.2053 84.2573 65.1348 84.2369 65.0584C84.2165 64.9819 84.208 64.9011 84.2119 64.8204C84.2157 64.7397 84.232 64.6608 84.2596 64.5882C84.2872 64.5156 84.3257 64.4507 84.3728 64.3972C84.4199 64.3437 84.4748 64.3026 84.5343 64.2764C84.5938 64.2501 84.6567 64.2392 84.7195 64.2442C84.7823 64.2492 84.8437 64.27 84.9002 64.3055C84.9567 64.341 85.0072 64.3904 85.0489 64.451L86.423 66.4574L89.7116 62.3242C89.8023 62.21 89.9246 62.1468 90.0516 62.1485C90.1786 62.1502 90.2999 62.2166 90.3887 62.3331C90.4776 62.4497 90.5267 62.6068 90.5254 62.77C90.5241 62.9331 90.4724 63.0889 90.3817 63.2031L86.7321 67.7925C86.6426 67.9048 86.5222 67.9674 86.397 67.9667Z" fill="white"/>
<path d="M133.593 4.32422H93.6166C92.5879 4.32422 91.7539 5.39576 91.7539 6.71756V25.07C91.7539 26.3918 92.5879 27.4633 93.6166 27.4633H133.593C134.622 27.4633 135.456 26.3918 135.456 25.07V6.71756C135.456 5.39576 134.622 4.32422 133.593 4.32422Z" fill="#9EC8FF"/>
<path d="M97.0352 23.9684V36.7346L108.485 22.0234C108.485 22.0234 97.2745 23.9684 97.0352 23.9684Z" fill="#9EC8FF"/>
<path d="M131.621 6.61328H95.599C94.7267 6.61328 94.0195 7.52191 94.0195 8.64276V23.1335C94.0195 24.2544 94.7267 25.163 95.599 25.163H131.621C132.493 25.163 133.2 24.2544 133.2 23.1335V8.64276C133.2 7.52191 132.493 6.61328 131.621 6.61328Z" fill="white"/>
<path d="M115.352 11.2006H97.6547C97.4489 11.2006 97.2516 11.0956 97.1061 10.9087C96.9607 10.7217 96.8789 10.4682 96.8789 10.2038C96.8789 9.93946 96.9607 9.68592 97.1061 9.49898C97.2516 9.31205 97.4489 9.20703 97.6547 9.20703H115.352C115.558 9.20703 115.755 9.31205 115.901 9.49898C116.046 9.68592 116.128 9.93946 116.128 10.2038C116.128 10.4682 116.046 10.7217 115.901 10.9087C115.755 11.0956 115.558 11.2006 115.352 11.2006Z" fill="#9EC8FF"/>
<path d="M130.132 13.8945H97.3058C97.0679 13.8945 96.875 14.1423 96.875 14.448V14.4608C96.875 14.7665 97.0679 15.0143 97.3058 15.0143H130.132C130.37 15.0143 130.563 14.7665 130.563 14.4608V14.448C130.563 14.1423 130.37 13.8945 130.132 13.8945Z" fill="#9EC8FF"/>
<path d="M130.132 16.0625H97.3058C97.0679 16.0625 96.875 16.3103 96.875 16.616V16.6288C96.875 16.9345 97.0679 17.1823 97.3058 17.1823H130.132C130.37 17.1823 130.563 16.9345 130.563 16.6288V16.616C130.563 16.3103 130.37 16.0625 130.132 16.0625Z" fill="#9EC8FF"/>
<path d="M123.349 22.1758H122.274C122.047 22.1758 121.863 22.4121 121.863 22.7036V23.8414C121.863 24.1329 122.047 24.3693 122.274 24.3693H123.349C123.576 24.3693 123.76 24.1329 123.76 23.8414V22.7036C123.76 22.4121 123.576 22.1758 123.349 22.1758Z" fill="#9EC8FF"/>
<path d="M126.794 22.1758H125.719C125.493 22.1758 125.309 22.4121 125.309 22.7036V23.8414C125.309 24.1329 125.493 24.3693 125.719 24.3693H126.794C127.021 24.3693 127.205 24.1329 127.205 23.8414V22.7036C127.205 22.4121 127.021 22.1758 126.794 22.1758Z" fill="#9EC8FF"/>
<path d="M130.247 22.1758H129.173C128.946 22.1758 128.762 22.4121 128.762 22.7036V23.8414C128.762 24.1329 128.946 24.3693 129.173 24.3693H130.247C130.474 24.3693 130.658 24.1329 130.658 23.8414V22.7036C130.658 22.4121 130.474 22.1758 130.247 22.1758Z" fill="#9EC8FF"/>
<path d="M249.036 176.751H9.36046C8.87015 176.751 8.3999 176.501 8.0532 176.055C7.70649 175.61 7.51172 175.005 7.51172 174.375C7.51172 173.745 7.70649 173.141 8.0532 172.696C8.3999 172.25 8.87015 172 9.36046 172H249.036C249.527 172 249.997 172.25 250.344 172.696C250.69 173.141 250.885 173.745 250.885 174.375C250.885 175.005 250.69 175.61 250.344 176.055C249.997 176.501 249.527 176.751 249.036 176.751Z" fill="#2E5B9A"/>
</svg>
